SplineFontDB: 3.2
FontName: ZhudouSans-Normal-ss02
FullName: Zhudou Sans Normal SS02
FamilyName: Zhudou Sans Normal SS02
Weight: Normal
Copyright: Copyright \\(c\\) 2022 Buernia \\(https://github.com/Buernia\\), with Reserved Font Name 'Zhudou'.
Version: 002.000
ItalicAngle: 0
UnderlinePosition: -125
UnderlineWidth: 50
Ascent: 880
Descent: 120
InvalidEm: 0
sfntRevision: 0x00020000
LayerCount: 2
Layer: 0 0 "+gMxmbwAA" 1
Layer: 1 0 "+Uk1mbwAA" 0
HasVMetrics: 1
XUID: [1021 701 -536045443 25526]
StyleMap: 0x0040
FSType: 8
OS2Version: 4
OS2_WeightWidthSlopeOnly: 0
OS2_UseTypoMetrics: 1
CreationTime: 1681008418
ModificationTime: 1737373810
PfmFamily: 81
TTFWeight: 350
TTFWidth: 5
LineGap: 1000
VLineGap: 500
Panose: 0 0 0 0 0 0 0 0 0 0
OS2TypoAscent: 880
OS2TypoAOffset: 0
OS2TypoDescent: -120
OS2TypoDOffset: 0
OS2TypoLinegap: 1000
OS2WinAscent: 1160
OS2WinAOffset: 0
OS2WinDescent: 320
OS2WinDOffset: 0
HheadAscent: 1080
HheadAOffset: 0
HheadDescent: -120
HheadDOffset: 0
OS2SubXSize: 650
OS2SubYSize: 600
OS2SubXOff: 0
OS2SubYOff: 75
OS2SupXSize: 650
OS2SupYSize: 600
OS2SupXOff: 0
OS2SupYOff: 350
OS2StrikeYSize: 50
OS2StrikeYPos: 270
OS2CapHeight: 733
OS2XHeight: 543
OS2Vendor: 'Buer'
OS2CodePages: 00040001.00000000
OS2UnicodeRanges: 80000003.0a050040.00000012.00000000
Lookup: 1 0 0 "'locl' +ZyxXMF9iXw8A +Z+VifgAA 0" { "'locl' +ZyxXMF9iXw8A +Z+VifgAA 0+Zv9O44ho"  } ['locl' ('hang' <'JAN ' 'KOR ' > 'hani' <'JAN ' 'KOR ' > 'kana' <'JAN ' 'KOR ' > 'latn' <'JAN ' 'KOR ' > ) ]
Lookup: 1 0 0 "'locl' +ZyxXMF9iXw8A +Z+VifgAA 1" { "'locl' +ZyxXMF9iXw8A +Z+VifgAA 1+Zv9O44ho"  } ['locl' ('hang' <'ZHH ' 'ZHT ' > 'hani' <'ZHH ' 'ZHT ' > 'kana' <'ZHH ' 'ZHT ' > 'latn' <'ZHH ' 'ZHT ' > ) ]

StartChar: .notdef
Encoding: 1114112 -1 0
Width: 1000
GlyphClass: 1
Flags: W
LayerCount: 2
Fore
SplineSet
63 346 m 1
 58 359 42 387 31 399 c 1
 99 416 170 436 239 459 c 1
 239 463 l 1
 249 463 l 1
 316 486 381 512 444 541 c 1
 62 541 l 1
 62 593 l 1
 408 593 l 1
 408 698 l 1
 148 698 l 1
 148 750 l 1
 408 750 l 1
 408 834 l 1
 467 834 l 1
 467 750 l 1
 698 750 l 1
 698 698 l 1
 467 698 l 1
 467 593 l 1
 548 593 l 1
 657 652 754 720 826 797 c 1
 875 766 l 1
 814 703 738 645 655 593 c 1
 940 593 l 1
 940 541 l 1
 565 541 l 1
 513 513 458 487 403 463 c 1
 813 463 l 1
 813 150 l 1
 679 150 l 1
 726 138 l 1
 704 91 677 41 656 5 c 1
 937 5 l 1
 937 -48 l 1
 67 -48 l 1
 67 5 l 1
 336 5 l 1
 329 43 305 95 283 135 c 1
 334 149 l 1
 362 109 385 55 394 18 c 1
 348 5 l 1
 642 5 l 1
 602 15 l 1
 623 52 651 109 666 150 c 1
 239 150 l 1
 239 399 l 1
 178 378 119 360 63 346 c 1
297 196 m 1
 754 196 l 1
 754 285 l 1
 297 285 l 1
 297 196 l 1
297 330 m 1
 754 330 l 1
 754 418 l 1
 297 418 l 1
 297 330 l 1
EndSplineSet
Validated: 1
EndChar

StartChar: uniFF21
Encoding: 65313 65313 2
Width: 1000
GlyphClass: 1
Flags: W
LayerCount: 2
Fore
SplineSet
158 -38 m 1
 466 751 l 1
 539 751 l 1
 842 -38 l 1
 759 -38 l 1
 659 220 l 1
 340 220 l 1
 240 -38 l 1
 158 -38 l 1
367 292 m 1
 634 292 l 1
 537 553 l 2
 530 573 510 635 501 665 c 1
 490 623 476 579 466 553 c 2
 367 292 l 1
EndSplineSet
Validated: 1
EndChar

StartChar: uniFF22
Encoding: 65314 65314 3
Width: 1000
GlyphClass: 1
Flags: W
LayerCount: 2
Fore
SplineSet
232 -38 m 1
 232 747 l 1
 453 747 l 2
 648 747 743 693 743 554 c 0
 743 462 690 396 592 378 c 1
 592 374 l 1
 699 356 768 301 768 185 c 0
 768 37 660 -38 493 -38 c 2
 232 -38 l 1
482 31 m 2
 624 31 683 90 683 191 c 0
 683 288 621 339 473 339 c 2
 313 339 l 1
 313 31 l 1
 482 31 l 2
470 406 m 2
 609 406 660 454 660 546 c 0
 660 640 598 678 455 678 c 2
 313 678 l 1
 313 406 l 1
 470 406 l 2
EndSplineSet
Validated: 1
EndChar

StartChar: uniFF23
Encoding: 65315 65315 4
Width: 1000
GlyphClass: 1
Flags: W
LayerCount: 2
Fore
SplineSet
582 688 m 0
 400 688 291 557 291 356 c 0
 291 152 386 22 575 22 c 0
 648 22 710 35 768 54 c 1
 768 -16 l 1
 712 -38 652 -49 565 -49 c 0
 326 -49 206 110 206 357 c 0
 206 591 341 758 583 758 c 0
 661 758 735 743 794 714 c 1
 762 645 l 1
 710 670 650 688 582 688 c 0
EndSplineSet
Validated: 1
EndChar

StartChar: uniFF24
Encoding: 65316 65316 5
Width: 1000
GlyphClass: 1
Flags: W
LayerCount: 2
Fore
SplineSet
808 362 m 0
 808 98 661 -38 398 -38 c 2
 192 -38 l 1
 192 747 l 1
 422 747 l 2
 664 747 808 613 808 362 c 0
723 360 m 0
 723 575 615 678 408 678 c 2
 272 678 l 1
 272 32 l 1
 389 32 l 2
 612 32 723 141 723 360 c 0
EndSplineSet
Validated: 1
EndChar

StartChar: uniFF25
Encoding: 65317 65317 6
Width: 1000
GlyphClass: 1
Flags: W
LayerCount: 2
Fore
SplineSet
273 -38 m 1
 273 747 l 1
 727 747 l 1
 727 675 l 1
 353 675 l 1
 353 409 l 1
 706 409 l 1
 706 337 l 1
 353 337 l 1
 353 34 l 1
 727 34 l 1
 727 -38 l 1
 273 -38 l 1
EndSplineSet
Validated: 1
EndChar

StartChar: uniFF26
Encoding: 65318 65318 7
Width: 1000
GlyphClass: 1
Flags: W
LayerCount: 2
Fore
SplineSet
273 -38 m 1
 273 747 l 1
 727 747 l 1
 727 675 l 1
 353 675 l 1
 353 374 l 1
 706 374 l 1
 706 302 l 1
 353 302 l 1
 353 -38 l 1
 273 -38 l 1
EndSplineSet
Validated: 1
EndChar

StartChar: uniFF27
Encoding: 65319 65319 8
Width: 1000
GlyphClass: 1
Flags: W
LayerCount: 2
Fore
SplineSet
556 -49 m 0
 309 -49 177 103 177 354 c 0
 177 596 326 759 581 759 c 0
 667 759 745 742 813 712 c 1
 782 642 l 1
 722 670 650 688 576 688 c 0
 378 688 260 556 260 355 c 0
 260 146 360 22 573 22 c 0
 647 22 699 32 743 46 c 1
 743 297 l 1
 544 297 l 1
 544 369 l 1
 823 369 l 1
 823 -6 l 1
 742 -35 660 -49 556 -49 c 0
EndSplineSet
Validated: 1
EndChar

StartChar: uniFF28
Encoding: 65320 65320 9
Width: 1000
GlyphClass: 1
Flags: W
LayerCount: 2
Fore
SplineSet
207 -38 m 1
 207 747 l 1
 287 747 l 1
 287 408 l 1
 713 408 l 1
 713 747 l 1
 793 747 l 1
 793 -38 l 1
 713 -38 l 1
 713 337 l 1
 287 337 l 1
 287 -38 l 1
 207 -38 l 1
EndSplineSet
Validated: 1
EndChar

StartChar: uniFF29
Encoding: 65321 65321 10
Width: 1000
GlyphClass: 1
Flags: W
LayerCount: 2
Fore
SplineSet
306 -38 m 1
 306 18 l 1
 459 30 l 1
 459 680 l 1
 306 691 l 1
 306 747 l 1
 694 747 l 1
 694 691 l 1
 539 680 l 1
 539 30 l 1
 694 18 l 1
 694 -38 l 1
 306 -38 l 1
EndSplineSet
Validated: 1
EndChar

StartChar: uniFF2A
Encoding: 65322 65322 11
Width: 1000
GlyphClass: 1
Flags: W
LayerCount: 2
Fore
SplineSet
471 -50 m 0
 413 -50 350 -36 309 -15 c 1
 309 62 l 1
 344 44 404 23 466 23 c 0
 559 23 611 77 611 207 c 2
 611 747 l 1
 691 747 l 1
 691 195 l 2
 691 39 620 -50 471 -50 c 0
EndSplineSet
Validated: 1
EndChar

StartChar: uniFF2B
Encoding: 65323 65323 12
Width: 1000
GlyphClass: 1
Flags: W
LayerCount: 2
Fore
SplineSet
223 -38 m 1
 223 747 l 1
 303 747 l 1
 303 349 l 1
 417 474 l 1
 671 747 l 1
 767 747 l 1
 451 409 l 1
 777 -38 l 1
 682 -38 l 1
 392 354 l 1
 303 272 l 1
 303 -38 l 1
 223 -38 l 1
EndSplineSet
Validated: 1
EndChar

StartChar: uniFF2C
Encoding: 65324 65324 13
Width: 1000
GlyphClass: 1
Flags: W
LayerCount: 2
Fore
SplineSet
282 -38 m 1
 282 747 l 1
 362 747 l 1
 362 34 l 1
 718 34 l 1
 718 -38 l 1
 282 -38 l 1
EndSplineSet
Validated: 1
EndChar

StartChar: uniFF2D
Encoding: 65325 65325 14
Width: 1000
GlyphClass: 1
Flags: W
LayerCount: 2
Fore
SplineSet
120 -38 m 1
 120 747 l 1
 239 747 l 1
 497 80 l 1
 501 80 l 1
 762 747 l 1
 880 747 l 1
 880 -38 l 1
 800 -38 l 1
 800 493 l 2
 800 554 804 620 806 665 c 1
 803 665 l 1
 529 -38 l 1
 463 -38 l 1
 193 666 l 1
 188 666 l 1
 192 624 194 556 194 486 c 2
 194 -38 l 1
 120 -38 l 1
EndSplineSet
Validated: 1
EndChar

StartChar: uniFF2E
Encoding: 65326 65326 15
Width: 1000
GlyphClass: 1
Flags: W
LayerCount: 2
Fore
SplineSet
200 -38 m 1
 200 747 l 1
 289 747 l 1
 727 79 l 1
 731 79 l 1
 729 120 725 209 725 275 c 2
 725 747 l 1
 800 747 l 1
 800 -38 l 1
 710 -38 l 1
 271 632 l 1
 267 632 l 1
 270 578 274 505 274 431 c 2
 274 -38 l 1
 200 -38 l 1
EndSplineSet
Validated: 1
EndChar

StartChar: uniFF2F
Encoding: 65327 65327 16
Width: 1000
GlyphClass: 1
Flags: W
LayerCount: 2
Fore
SplineSet
857 356 m 0
 857 115 736 -49 500 -49 c 0
 259 -49 143 115 143 357 c 0
 143 597 262 760 503 760 c 0
 733 760 857 603 857 356 c 0
227 356 m 0
 227 152 313 22 501 22 c 0
 689 22 773 151 773 356 c 0
 773 565 686 689 503 689 c 0
 314 689 227 559 227 356 c 0
EndSplineSet
Validated: 1
EndChar

StartChar: uniFF30
Encoding: 65328 65328 17
Width: 1000
GlyphClass: 1
Flags: W
LayerCount: 2
Fore
SplineSet
255 -38 m 1
 255 747 l 1
 457 747 l 2
 654 747 745 669 745 521 c 0
 745 380 658 276 439 276 c 2
 336 276 l 1
 336 -38 l 1
 255 -38 l 1
430 346 m 2
 580 346 662 390 662 517 c 0
 662 627 595 678 449 678 c 2
 336 678 l 1
 336 346 l 1
 430 346 l 2
EndSplineSet
Validated: 1
EndChar

StartChar: uniFF31
Encoding: 65329 65329 18
Width: 1000
GlyphClass: 1
Flags: W
LayerCount: 2
Fore
SplineSet
858 356 m 0
 858 159 777 12 618 -33 c 1
 798 -225 l 1
 683 -225 l 1
 532 -48 l 1
 522 -48 511 -49 501 -49 c 0
 260 -49 143 115 143 357 c 0
 143 597 263 760 503 760 c 0
 734 760 858 603 858 356 c 0
227 356 m 0
 227 152 314 22 501 22 c 0
 689 22 774 151 774 356 c 0
 774 565 686 689 503 689 c 0
 315 689 227 559 227 356 c 0
EndSplineSet
Validated: 1
EndChar

StartChar: uniFF32
Encoding: 65330 65330 19
Width: 1000
GlyphClass: 1
Flags: W
LayerCount: 2
Fore
SplineSet
229 -38 m 1
 229 747 l 1
 434 747 l 2
 625 747 718 682 718 528 c 0
 718 406 643 344 556 316 c 1
 772 -38 l 1
 677 -38 l 1
 482 294 l 1
 309 294 l 1
 309 -38 l 1
 229 -38 l 1
443 362 m 2
 571 362 635 419 635 525 c 0
 635 637 569 677 429 677 c 2
 309 677 l 1
 309 362 l 1
 443 362 l 2
EndSplineSet
Validated: 1
EndChar

StartChar: uniFF33
Encoding: 65331 65331 20
Width: 1000
GlyphClass: 1
Flags: W
LayerCount: 2
Fore
SplineSet
745 169 m 0
 745 28 634 -49 470 -49 c 0
 378 -49 304 -35 255 -13 c 1
 255 65 l 1
 309 42 388 22 473 22 c 0
 592 22 665 72 665 162 c 0
 665 248 611 282 471 332 c 0
 338 378 264 434 264 559 c 0
 264 685 369 758 515 758 c 0
 596 758 666 742 726 715 c 1
 701 646 l 1
 642 671 578 688 512 688 c 0
 410 688 345 640 345 559 c 0
 345 469 402 436 526 392 c 0
 665 343 745 294 745 169 c 0
EndSplineSet
Validated: 1
EndChar

StartChar: uniFF34
Encoding: 65332 65332 21
Width: 1000
GlyphClass: 1
Flags: W
LayerCount: 2
Fore
SplineSet
460 -38 m 1
 460 677 l 1
 211 677 l 1
 211 747 l 1
 789 747 l 1
 789 677 l 1
 540 677 l 1
 540 -38 l 1
 460 -38 l 1
EndSplineSet
Validated: 1
EndChar

StartChar: uniFF35
Encoding: 65333 65333 22
Width: 1000
GlyphClass: 1
Flags: W
LayerCount: 2
Fore
SplineSet
799 239 m 2
 799 67 695 -49 497 -49 c 0
 305 -49 202 63 202 241 c 2
 202 747 l 1
 282 747 l 1
 282 240 l 2
 282 99 357 22 501 22 c 0
 647 22 720 105 720 237 c 2
 720 747 l 1
 799 747 l 1
 799 239 l 2
EndSplineSet
Validated: 1
EndChar

StartChar: uniFF36
Encoding: 65334 65334 23
Width: 1000
GlyphClass: 1
Flags: W
LayerCount: 2
Fore
SplineSet
460 -38 m 1
 175 747 l 1
 259 747 l 1
 453 211 l 2
 474 152 489 100 500 54 c 1
 510 100 525 151 548 212 c 2
 740 747 l 1
 825 747 l 1
 540 -38 l 1
 460 -38 l 1
EndSplineSet
Validated: 1
EndChar

StartChar: uniFF37
Encoding: 65335 65335 24
Width: 1000
GlyphClass: 1
Flags: W
LayerCount: 2
Fore
SplineSet
226 -38 m 1
 17 747 l 1
 101 747 l 1
 234 236 l 2
 250 172 262 116 270 64 c 1
 279 117 292 178 310 240 c 2
 456 747 l 1
 538 747 l 1
 688 237 l 2
 708 172 720 112 729 63 c 1
 736 115 748 171 765 237 c 2
 899 747 l 1
 983 747 l 1
 772 -38 l 1
 692 -38 l 1
 532 510 l 2
 515 568 500 626 496 651 c 1
 492 627 480 570 464 515 c 2
 307 -38 l 1
 226 -38 l 1
EndSplineSet
Validated: 1
EndChar

StartChar: uniFF38
Encoding: 65336 65336 25
Width: 1000
GlyphClass: 1
Flags: W
LayerCount: 2
Fore
SplineSet
191 -38 m 1
 454 370 l 1
 211 747 l 1
 301 747 l 1
 502 426 l 1
 704 747 l 1
 790 747 l 1
 547 372 l 1
 809 -38 l 1
 718 -38 l 1
 499 315 l 1
 277 -38 l 1
 191 -38 l 1
EndSplineSet
Validated: 1
EndChar

StartChar: uniFF39
Encoding: 65337 65337 26
Width: 1000
GlyphClass: 1
Flags: W
LayerCount: 2
Fore
SplineSet
461 -38 m 1
 461 261 l 1
 198 747 l 1
 286 747 l 1
 500 343 l 1
 716 747 l 1
 802 747 l 1
 541 266 l 1
 541 -38 l 1
 461 -38 l 1
EndSplineSet
Validated: 1
EndChar

StartChar: uniFF3A
Encoding: 65338 65338 27
Width: 1000
GlyphClass: 1
Flags: W
LayerCount: 2
Fore
SplineSet
227 -38 m 1
 227 22 l 1
 663 675 l 1
 245 675 l 1
 245 747 l 1
 761 747 l 1
 761 688 l 1
 326 34 l 1
 773 34 l 1
 773 -38 l 1
 227 -38 l 1
EndSplineSet
Validated: 1
EndChar

StartChar: uniFF41
Encoding: 65345 65345 28
Width: 1000
GlyphClass: 1
Flags: W
LayerCount: 2
Fore
SplineSet
528 560 m 0
 665 560 731 498 731 359 c 2
 731 -38 l 1
 672 -38 l 1
 658 54 l 1
 654 54 l 1
 608 -12 557 -49 452 -49 c 0
 343 -49 269 7 269 120 c 0
 269 237 363 300 550 306 c 2
 653 311 l 1
 653 349 l 2
 653 456 607 494 524 494 c 0
 463 494 408 475 355 449 c 1
 331 511 l 1
 384 537 454 560 528 560 c 0
560 250 m 2
 412 244 350 202 350 119 c 0
 350 50 397 15 468 15 c 0
 580 15 652 80 653 199 c 2
 653 254 l 1
 560 250 l 2
EndSplineSet
Validated: 1
EndChar

StartChar: uniFF42
Encoding: 65346 65346 29
Width: 1000
GlyphClass: 1
Flags: W
LayerCount: 2
Fore
SplineSet
324 580 m 2
 324 534 320 484 319 457 c 1
 324 457 l 1
 354 515 417 560 515 560 c 0
 663 560 755 457 755 256 c 0
 755 63 663 -49 510 -49 c 0
 415 -49 356 -6 324 48 c 1
 318 48 l 1
 302 -38 l 1
 245 -38 l 1
 245 798 l 1
 324 798 l 1
 324 580 l 2
503 493 m 0
 372 493 324 414 324 258 c 2
 324 252 l 2
 324 100 369 17 500 17 c 0
 615 17 674 103 674 257 c 0
 674 414 618 493 503 493 c 0
EndSplineSet
Validated: 1
EndChar

StartChar: uniFF43
Encoding: 65347 65347 30
Width: 1000
GlyphClass: 1
Flags: W
LayerCount: 2
Fore
SplineSet
555 -49 m 0
 390 -49 285 54 285 253 c 0
 285 459 401 561 565 561 c 0
 622 561 677 547 715 530 c 1
 691 463 l 1
 654 479 604 491 563 491 c 0
 434 491 367 405 367 253 c 0
 367 109 428 20 554 20 c 0
 615 20 664 34 706 52 c 1
 706 -18 l 1
 667 -37 620 -49 555 -49 c 0
EndSplineSet
Validated: 1
EndChar

StartChar: uniFF44
Encoding: 65348 65348 31
Width: 1000
GlyphClass: 1
Flags: W
LayerCount: 2
Fore
SplineSet
488 -49 m 0
 336 -49 245 53 245 252 c 0
 245 454 340 561 491 561 c 0
 586 561 643 516 677 461 c 1
 682 461 l 1
 680 487 677 534 677 562 c 2
 677 798 l 1
 755 798 l 1
 755 -38 l 1
 691 -38 l 1
 681 53 l 1
 677 53 l 1
 644 -3 586 -49 488 -49 c 0
499 17 m 0
 629 17 678 95 678 241 c 2
 678 255 l 2
 678 409 631 494 501 494 c 0
 386 494 326 403 326 251 c 0
 326 100 383 17 499 17 c 0
EndSplineSet
Validated: 1
EndChar

StartChar: uniFF45
Encoding: 65349 65349 32
Width: 1000
GlyphClass: 1
Flags: W
LayerCount: 2
Fore
SplineSet
512 561 m 0
 662 561 746 451 746 292 c 2
 746 242 l 1
 335 242 l 1
 337 98 408 19 534 19 c 0
 608 19 658 31 721 59 c 1
 721 -11 l 1
 662 -37 609 -49 531 -49 c 0
 359 -49 254 61 254 251 c 0
 254 437 352 561 512 561 c 0
511 495 m 0
 410 495 348 426 337 306 c 1
 664 306 l 1
 664 418 616 495 511 495 c 0
EndSplineSet
Validated: 1
EndChar

StartChar: uniFF46
Encoding: 65350 65350 33
Width: 1000
GlyphClass: 1
Flags: W
LayerCount: 2
Fore
SplineSet
422 -38 m 1
 422 481 l 1
 228 481 l 1
 228 537 l 1
 422 550 l 1
 422 621 l 2
 422 753 500 804 630 804 c 0
 687 804 739 794 772 784 c 1
 754 721 l 1
 725 729 677 736 634 736 c 0
 548 736 502 707 502 608 c 2
 502 550 l 1
 733 550 l 1
 733 481 l 1
 502 481 l 1
 502 -38 l 1
 422 -38 l 1
EndSplineSet
Validated: 1
EndChar

StartChar: uniFF47
Encoding: 65351 65351 34
Width: 1000
GlyphClass: 1
Flags: W
LayerCount: 2
Fore
SplineSet
490 561 m 0
 575 561 636 527 677 466 c 1
 681 466 l 1
 692 550 l 1
 755 550 l 1
 755 -53 l 2
 755 -213 677 -302 497 -302 c 0
 410 -302 342 -288 287 -264 c 1
 287 -189 l 1
 342 -218 417 -236 501 -236 c 0
 617 -236 677 -168 677 -58 c 2
 677 -28 l 2
 677 -5 679 32 681 54 c 1
 676 54 l 1
 640 -15 575 -49 487 -49 c 0
 335 -49 245 60 245 253 c 0
 245 442 334 561 490 561 c 0
500 493 m 0
 386 493 326 405 326 252 c 0
 326 99 386 17 497 17 c 0
 630 17 678 96 678 233 c 2
 678 264 l 2
 678 418 627 493 500 493 c 0
EndSplineSet
Validated: 1
EndChar

StartChar: uniFF48
Encoding: 65352 65352 35
Width: 1000
GlyphClass: 1
Flags: W
LayerCount: 2
Fore
SplineSet
338 541 m 2
 338 511 336 482 333 457 c 1
 338 457 l 1
 372 520 441 560 530 560 c 0
 668 560 741 494 741 345 c 2
 741 -38 l 1
 663 -38 l 1
 663 340 l 2
 663 444 615 493 521 493 c 0
 390 493 338 417 338 274 c 2
 338 -38 l 1
 259 -38 l 1
 259 798 l 1
 338 798 l 1
 338 541 l 2
EndSplineSet
Validated: 1
EndChar

StartChar: uniFF49
Encoding: 65353 65353 36
Width: 1000
GlyphClass: 1
Flags: W
LayerCount: 2
Fore
SplineSet
251 -38 m 1
 251 17 l 1
 466 30 l 1
 466 481 l 1
 270 493 l 1
 270 550 l 1
 547 550 l 1
 547 30 l 1
 749 17 l 1
 749 -38 l 1
 251 -38 l 1
498 666 m 0
 462 666 438 688 438 728 c 0
 438 769 462 790 498 790 c 0
 533 790 558 769 558 728 c 0
 558 688 533 666 498 666 c 0
EndSplineSet
Validated: 1
EndChar

StartChar: uniFF4A
Encoding: 65354 65354 37
Width: 1000
GlyphClass: 1
Flags: W
LayerCount: 2
Fore
SplineSet
335 -308 m 0
 287 -308 226 -299 193 -289 c 1
 193 -217 l 1
 228 -229 283 -240 327 -240 c 0
 425 -240 466 -190 466 -92 c 2
 466 481 l 1
 269 493 l 1
 269 550 l 1
 546 550 l 1
 546 -106 l 2
 546 -238 469 -308 335 -308 c 0
497 666 m 0
 462 666 438 688 438 729 c 0
 438 768 461 790 497 790 c 0
 532 790 557 769 557 729 c 0
 557 688 532 666 497 666 c 0
EndSplineSet
Validated: 1
EndChar

StartChar: uniFF4B
Encoding: 65355 65355 38
Width: 1000
GlyphClass: 1
Flags: W
LayerCount: 2
Fore
SplineSet
253 -38 m 1
 253 798 l 1
 333 798 l 1
 333 393 l 2
 333 340 330 274 328 217 c 1
 330 217 l 1
 356 250 380 277 408 308 c 2
 633 550 l 1
 729 550 l 1
 497 301 l 1
 747 -38 l 1
 654 -38 l 1
 444 252 l 1
 333 147 l 1
 333 -38 l 1
 253 -38 l 1
EndSplineSet
Validated: 1
EndChar

StartChar: uniFF4C
Encoding: 65356 65356 39
Width: 1000
GlyphClass: 1
Flags: W
LayerCount: 2
Fore
SplineSet
251 -38 m 1
 251 17 l 1
 469 30 l 1
 469 731 l 1
 263 742 l 1
 263 798 l 1
 549 798 l 1
 549 30 l 1
 749 17 l 1
 749 -38 l 1
 251 -38 l 1
EndSplineSet
Validated: 1
EndChar

StartChar: uniFF4D
Encoding: 65357 65357 40
Width: 1000
GlyphClass: 1
Flags: W
LayerCount: 2
Fore
SplineSet
718 561 m 0
 842 561 910 496 910 350 c 2
 910 -38 l 1
 832 -38 l 1
 832 346 l 2
 832 445 787 493 706 493 c 0
 593 493 539 427 539 296 c 2
 539 -38 l 1
 461 -38 l 1
 461 346 l 2
 461 445 416 493 334 493 c 0
 220 493 169 422 169 282 c 2
 169 -38 l 1
 90 -38 l 1
 90 550 l 1
 153 550 l 1
 165 462 l 1
 170 462 l 1
 202 522 265 561 347 561 c 0
 435 561 496 526 522 456 c 1
 527 456 l 1
 563 524 634 561 718 561 c 0
EndSplineSet
Validated: 1
EndChar

StartChar: uniFF4E
Encoding: 65358 65358 41
Width: 1000
GlyphClass: 1
Flags: W
LayerCount: 2
Fore
SplineSet
531 561 m 0
 668 561 741 495 741 345 c 2
 741 -38 l 1
 663 -38 l 1
 663 340 l 2
 663 444 615 493 521 493 c 0
 391 493 338 418 338 275 c 2
 338 -38 l 1
 259 -38 l 1
 259 550 l 1
 323 550 l 1
 334 458 l 1
 339 458 l 1
 374 521 444 561 531 561 c 0
EndSplineSet
Validated: 1
EndChar

StartChar: uniFF4F
Encoding: 65359 65359 42
Width: 1000
GlyphClass: 1
Flags: W
LayerCount: 2
Fore
SplineSet
767 257 m 0
 767 67 668 -49 498 -49 c 0
 339 -49 233 67 233 257 c 0
 233 449 335 561 502 561 c 0
 666 561 767 444 767 257 c 0
314 257 m 0
 314 111 372 17 500 17 c 0
 628 17 686 111 686 257 c 0
 686 400 630 493 501 493 c 0
 374 493 314 405 314 257 c 0
EndSplineSet
Validated: 1
EndChar

StartChar: uniFF50
Encoding: 65360 65360 43
Width: 1000
GlyphClass: 1
Flags: W
LayerCount: 2
Fore
SplineSet
515 561 m 0
 663 561 755 459 755 258 c 0
 755 58 660 -49 511 -49 c 0
 414 -49 355 -3 323 51 c 1
 318 51 l 1
 320 20 323 -26 323 -59 c 2
 323 -300 l 1
 245 -300 l 1
 245 550 l 1
 309 550 l 1
 319 453 l 1
 323 453 l 1
 356 511 413 561 515 561 c 0
503 493 m 0
 377 493 325 417 323 271 c 2
 323 256 l 2
 323 100 373 17 501 17 c 0
 616 17 674 113 674 259 c 0
 674 405 619 493 503 493 c 0
EndSplineSet
Validated: 1
EndChar

StartChar: uniFF51
Encoding: 65361 65361 44
Width: 1000
GlyphClass: 1
Flags: W
LayerCount: 2
Fore
SplineSet
676 -46 m 2
 676 -17 678 28 681 56 c 1
 676 56 l 1
 644 -4 581 -49 483 -49 c 0
 337 -49 245 53 245 254 c 0
 245 447 337 561 490 561 c 0
 585 561 644 515 677 460 c 1
 681 460 l 1
 692 550 l 1
 755 550 l 1
 755 -300 l 1
 676 -300 l 1
 676 -46 l 2
496 17 m 0
 625 17 676 93 678 240 c 2
 678 257 l 2
 678 412 629 494 500 494 c 0
 383 494 326 402 326 253 c 0
 326 102 381 17 496 17 c 0
EndSplineSet
Validated: 1
EndChar

StartChar: uniFF52
Encoding: 65362 65362 45
Width: 1000
GlyphClass: 1
Flags: W
LayerCount: 2
Fore
SplineSet
226 -38 m 1
 226 17 l 1
 408 30 l 1
 408 481 l 1
 244 493 l 1
 244 550 l 1
 474 550 l 1
 484 435 l 1
 488 435 l 1
 523 513 572 560 659 560 c 0
 705 560 745 551 775 538 c 1
 753 467 l 1
 728 479 695 488 659 488 c 0
 555 488 489 389 489 259 c 2
 489 30 l 1
 674 17 l 1
 674 -38 l 1
 226 -38 l 1
EndSplineSet
Validated: 1
EndChar

StartChar: uniFF53
Encoding: 65363 65363 46
Width: 1000
GlyphClass: 1
Flags: W
LayerCount: 2
Fore
SplineSet
709 121 m 0
 709 11 622 -49 478 -49 c 0
 396 -49 336 -34 291 -12 c 1
 291 61 l 1
 341 37 411 15 480 15 c 0
 587 15 632 54 632 114 c 0
 632 170 589 196 479 235 c 0
 368 276 296 308 296 407 c 0
 296 505 381 561 511 561 c 0
 582 561 644 545 696 522 c 1
 669 458 l 1
 622 479 564 495 507 495 c 0
 421 495 372 464 372 411 c 0
 372 351 420 333 527 294 c 0
 635 255 709 220 709 121 c 0
EndSplineSet
Validated: 1
EndChar

StartChar: uniFF54
Encoding: 65364 65364 47
Width: 1000
GlyphClass: 1
Flags: W
LayerCount: 2
Fore
SplineSet
630 -49 m 0
 502 -49 422 3 422 146 c 2
 422 481 l 1
 254 481 l 1
 254 537 l 1
 422 552 l 1
 438 703 l 1
 503 703 l 1
 503 550 l 1
 735 550 l 1
 735 481 l 1
 503 481 l 1
 503 161 l 2
 503 64 537 17 634 17 c 0
 672 17 715 25 744 33 c 1
 744 -32 l 1
 712 -41 674 -49 630 -49 c 0
EndSplineSet
Validated: 1
EndChar

StartChar: uniFF55
Encoding: 65365 65365 48
Width: 1000
GlyphClass: 1
Flags: W
LayerCount: 2
Fore
SplineSet
468 -49 m 0
 330 -49 258 18 258 165 c 2
 258 550 l 1
 338 550 l 1
 338 171 l 2
 338 67 385 17 479 17 c 0
 609 17 663 92 663 236 c 2
 663 550 l 1
 742 550 l 1
 742 -38 l 1
 678 -38 l 1
 665 52 l 1
 662 52 l 1
 627 -11 557 -49 468 -49 c 0
EndSplineSet
Validated: 1
EndChar

StartChar: uniFF56
Encoding: 65366 65366 49
Width: 1000
GlyphClass: 1
Flags: W
LayerCount: 2
Fore
SplineSet
456 -38 m 1
 232 550 l 1
 316 550 l 1
 451 180 l 2
 470 132 489 72 498 36 c 1
 501 36 l 1
 510 72 531 133 549 180 c 2
 684 550 l 1
 768 550 l 1
 544 -38 l 1
 456 -38 l 1
EndSplineSet
Validated: 1
EndChar

StartChar: uniFF57
Encoding: 65367 65367 50
Width: 1000
GlyphClass: 1
Flags: W
LayerCount: 2
Fore
SplineSet
260 -38 m 1
 96 550 l 1
 178 550 l 1
 268 210 l 2
 286 146 299 87 305 47 c 1
 309 47 l 1
 317 83 331 144 348 198 c 2
 461 550 l 1
 545 550 l 1
 654 198 l 2
 670 146 687 88 693 48 c 1
 697 48 l 1
 702 84 717 144 734 210 c 2
 824 550 l 1
 904 550 l 1
 742 -38 l 1
 653 -38 l 1
 542 320 l 2
 525 375 511 428 503 462 c 1
 499 462 l 1
 492 428 480 374 462 319 c 2
 347 -38 l 1
 260 -38 l 1
EndSplineSet
Validated: 1
EndChar

StartChar: uniFF58
Encoding: 65368 65368 51
Width: 1000
GlyphClass: 1
Flags: W
LayerCount: 2
Fore
SplineSet
239 -38 m 1
 452 262 l 1
 249 550 l 1
 339 550 l 1
 500 316 l 1
 660 550 l 1
 749 550 l 1
 547 262 l 1
 761 -38 l 1
 671 -38 l 1
 500 209 l 1
 328 -38 l 1
 239 -38 l 1
EndSplineSet
Validated: 1
EndChar

StartChar: uniFF59
Encoding: 65369 65369 52
Width: 1000
GlyphClass: 1
Flags: W
LayerCount: 2
Fore
SplineSet
312 -303 m 0
 281 -303 257 -299 238 -293 c 1
 238 -229 l 1
 254 -233 277 -238 301 -238 c 0
 366 -238 403 -199 430 -127 c 2
 465 -38 l 1
 232 550 l 1
 315 550 l 1
 449 199 l 2
 472 137 491 85 501 42 c 1
 504 42 l 1
 514 77 533 137 556 198 c 2
 683 550 l 1
 768 550 l 1
 509 -131 l 2
 469 -238 416 -303 312 -303 c 0
EndSplineSet
Validated: 1
EndChar

StartChar: uniFF5A
Encoding: 65370 65370 53
Width: 1000
GlyphClass: 1
Flags: W
LayerCount: 2
Fore
SplineSet
287 -38 m 1
 287 14 l 1
 618 487 l 1
 309 487 l 1
 309 550 l 1
 708 550 l 1
 708 491 l 1
 380 24 l 1
 713 24 l 1
 713 -38 l 1
 287 -38 l 1
EndSplineSet
Validated: 1
EndChar

StartChar: uniFF10
Encoding: 65296 65296 54
Width: 1000
GlyphClass: 1
Flags: W
LayerCount: 2
Fore
SplineSet
757 357 m 0
 757 98 681 -49 500 -49 c 0
 328 -49 243 97 243 357 c 0
 243 604 314 760 500 760 c 0
 679 760 757 606 757 357 c 0
323 357 m 0
 323 129 374 19 500 19 c 0
 626 19 677 129 677 357 c 0
 677 573 631 692 500 692 c 0
 368 692 323 571 323 357 c 0
EndSplineSet
Validated: 1
Substitution2: "'zero' +XiZOLX6/doSW9gAA +Z+VifgAA 9+Zv9O44ho" uniFF10.uv001
EndChar

StartChar: uniFF11
Encoding: 65297 65297 55
Width: 1000
GlyphClass: 1
Flags: W
LayerCount: 2
Fore
SplineSet
485 487 m 2
 485 549 487 621 488 664 c 1
 466 651 453 644 418 625 c 2
 315 564 l 1
 278 624 l 1
 496 747 l 1
 562 747 l 1
 562 26 l 1
 722 16 l 1
 722 -38 l 1
 325 -38 l 1
 325 16 l 1
 485 26 l 1
 485 487 l 2
EndSplineSet
Validated: 1
EndChar

StartChar: uniFF12
Encoding: 65298 65298 56
Width: 1000
GlyphClass: 1
Flags: W
LayerCount: 2
Fore
SplineSet
246 -38 m 1
 246 27 l 1
 463 249 l 2
 578 367 640 436 640 547 c 0
 640 639 581 691 490 691 c 0
 417 691 361 664 301 617 c 1
 259 670 l 1
 322 723 401 758 490 758 c 0
 631 758 721 678 721 551 c 0
 721 425 645 337 527 220 c 2
 347 37 l 1
 347 34 l 1
 754 34 l 1
 754 -38 l 1
 246 -38 l 1
EndSplineSet
Validated: 1
EndChar

StartChar: uniFF13
Encoding: 65299 65299 57
Width: 1000
GlyphClass: 1
Flags: W
LayerCount: 2
Fore
SplineSet
462 -49 m 0
 379 -49 307 -36 246 -5 c 1
 246 69 l 1
 309 37 389 18 462 18 c 0
 608 18 672 82 672 185 c 0
 672 291 586 334 445 334 c 2
 365 334 l 1
 365 402 l 1
 445 402 l 2
 571 402 650 461 650 560 c 0
 650 645 590 691 495 691 c 0
 412 691 352 665 290 622 c 1
 251 677 l 1
 309 722 391 758 494 758 c 0
 649 758 730 680 730 565 c 0
 730 460 665 394 567 376 c 1
 567 371 l 1
 691 356 755 290 755 183 c 0
 755 47 661 -49 462 -49 c 0
EndSplineSet
Validated: 1
EndChar

StartChar: uniFF14
Encoding: 65300 65300 58
Width: 1000
GlyphClass: 1
Flags: W
LayerCount: 2
Fore
SplineSet
593 -38 m 1
 593 150 l 1
 207 150 l 1
 207 216 l 1
 588 752 l 1
 670 752 l 1
 670 220 l 1
 793 220 l 1
 793 150 l 1
 670 150 l 1
 670 -38 l 1
 593 -38 l 1
288 220 m 1
 593 220 l 1
 593 492 l 2
 593 573 595 616 598 666 c 1
 594 666 l 1
 578 636 560 604 540 576 c 2
 288 220 l 1
EndSplineSet
Validated: 1
EndChar

StartChar: uniFF15
Encoding: 65301 65301 59
Width: 1000
GlyphClass: 1
Flags: W
LayerCount: 2
Fore
SplineSet
484 440 m 0
 644 440 746 356 746 210 c 0
 746 49 636 -49 456 -49 c 0
 374 -49 302 -33 254 -5 c 1
 254 70 l 1
 306 39 385 19 457 19 c 0
 582 19 665 80 665 202 c 0
 665 311 600 373 461 373 c 0
 412 373 354 365 316 354 c 1
 275 382 l 1
 306 747 l 1
 693 747 l 1
 693 675 l 1
 373 675 l 1
 352 426 l 1
 380 431 426 440 484 440 c 0
EndSplineSet
Validated: 1
EndChar

StartChar: uniFF16
Encoding: 65302 65302 60
Width: 1000
GlyphClass: 1
Flags: W
LayerCount: 2
Fore
SplineSet
246 297 m 0
 246 552 329 759 597 759 c 0
 631 759 671 755 697 748 c 1
 697 680 l 1
 670 689 634 693 598 693 c 0
 403 693 331 555 323 349 c 1
 329 349 l 1
 361 404 424 452 527 452 c 0
 665 452 755 363 755 214 c 0
 755 53 661 -49 509 -49 c 0
 350 -49 246 79 246 297 c 0
509 18 m 0
 611 18 677 84 677 214 c 0
 677 321 622 389 512 389 c 0
 399 389 326 307 326 237 c 0
 326 144 380 18 509 18 c 0
EndSplineSet
Validated: 1
EndChar

StartChar: uniFF17
Encoding: 65303 65303 61
Width: 1000
GlyphClass: 1
Flags: W
LayerCount: 2
Fore
SplineSet
351 -38 m 1
 675 675 l 1
 241 675 l 1
 241 747 l 1
 759 747 l 1
 759 688 l 1
 438 -38 l 1
 351 -38 l 1
EndSplineSet
Validated: 1
EndChar

StartChar: uniFF18
Encoding: 65304 65304 62
Width: 1000
GlyphClass: 1
Flags: W
LayerCount: 2
Fore
SplineSet
501 -49 m 0
 339 -49 245 30 245 160 c 0
 245 270 322 335 419 374 c 1
 336 417 270 473 270 573 c 0
 270 690 367 758 499 758 c 0
 635 758 730 692 730 572 c 0
 730 478 661 422 571 379 c 1
 677 333 755 273 755 165 c 0
 755 32 652 -49 501 -49 c 0
499 15 m 0
 611 15 678 73 678 163 c 0
 678 245 614 294 508 334 c 2
 487 342 l 1
 384 301 322 249 322 159 c 0
 322 74 383 15 499 15 c 0
504 410 m 1
 591 446 651 489 651 570 c 0
 651 651 592 694 498 694 c 0
 410 694 348 649 348 570 c 0
 348 485 415 445 504 410 c 1
EndSplineSet
Validated: 1
EndChar

StartChar: uniFF19
Encoding: 65305 65305 63
Width: 1000
GlyphClass: 1
Flags: W
LayerCount: 2
Fore
SplineSet
755 413 m 0
 755 158 671 -50 403 -50 c 0
 369 -50 324 -46 299 -38 c 1
 299 31 l 1
 325 22 365 16 401 16 c 0
 597 16 669 155 676 360 c 1
 670 360 l 1
 638 306 575 258 471 258 c 0
 333 258 246 346 246 495 c 0
 246 656 341 758 492 758 c 0
 652 758 755 630 755 413 c 0
492 691 m 0
 390 691 323 625 323 496 c 0
 323 388 377 321 487 321 c 0
 602 321 674 401 674 473 c 0
 674 565 622 691 492 691 c 0
EndSplineSet
Validated: 1
EndChar

StartChar: uniFF10.uv001
Encoding: 1114113 -1 64
AltUni2: 00ff10.00fe00.0
Width: 1000
GlyphClass: 1
Flags: W
LayerCount: 2
Fore
SplineSet
757 357 m 0
 757 98 681 -49 500 -49 c 0
 328 -49 243 97 243 357 c 0
 243 604 314 760 500 760 c 0
 679 760 757 606 757 357 c 0
323 357 m 0
 323 314 325 275 329 240 c 1
 654 565 l 1
 628 648 580 692 500 692 c 0
 368 692 323 571 323 357 c 0
344 154 m 1
 370 63 420 19 500 19 c 0
 626 19 677 129 677 357 c 0
 677 403 675 444 670 480 c 1
 344 154 l 1
EndSplineSet
Validated: 1
EndChar

StartChar: uni3001
Encoding: 12289 12289 66
Width: 1000
GlyphClass: 1
Flags: W
LayerCount: 2
Fore
SplineSet
279 -52 m 1
 214 29 127 115 56 172 c 1
 108 218 l 1
 180 160 268 72 334 -5 c 1
 279 -52 l 1
EndSplineSet
Validated: 1
Substitution2: "'vert' Vertical Alternates +Z+VifgAA 8+Zv9O44ho" uniFE11
Substitution2: "'ss01' +aDdfD5bG-1 +Z+VifgAA 2+Zv9O44ho" uni3001.uv002
Substitution2: "'locl' +ZyxXMF9iXw8A +Z+VifgAA 1+Zv9O44ho" uni3001.uv002
Position2: "'halt' +Zv9O41NKW70A +Z+VifgAA 2 +a89OKltXX2JlcGNu 1" dx=0 dy=0 dh=-500 dv=0
EndChar

StartChar: uni3001.uv001
Encoding: 1114114 -1 67
AltUni2: 003001.00fe00.0
Width: 1000
GlyphClass: 1
Flags: W
LayerCount: 2
Fore
SplineSet
279 -52 m 1
 214 29 127 115 56 172 c 1
 108 218 l 1
 180 160 268 72 334 -5 c 1
 279 -52 l 1
EndSplineSet
Validated: 1
Substitution2: "'vert' Vertical Alternates +Z+VifgAA 8+Zv9O44ho" uniFE11
Position2: "'halt' +Zv9O41NKW70A +Z+VifgAA 2 +a89OKltXX2JlcGNu 1" dx=0 dy=0 dh=-500 dv=0
EndChar

StartChar: uni3001.uv002
Encoding: 1114115 -1 68
AltUni2: 003001.00fe01.0
Width: 1000
GlyphClass: 1
Flags: W
LayerCount: 2
Fore
SplineSet
584 245 m 1
 519 326 432 412 361 469 c 1
 413 515 l 1
 485 457 573 369 639 292 c 1
 584 245 l 1
EndSplineSet
Validated: 1
Position2: "'vhal' +Zv9O41eCdvRTSlw6W/gA +Z+VifgAA 3 +a89OKltXX2JlcGNu 2" dx=0 dy=250 dh=0 dv=-500
Position2: "'halt' +Zv9O41NKW70A +Z+VifgAA 2 +a89OKltXX2JlcGNu 2" dx=-250 dy=0 dh=-500 dv=0
EndChar

StartChar: uniFE11
Encoding: 65041 65041 69
Width: 1000
GlyphClass: 1
Flags: W
LayerCount: 2
Fore
SplineSet
888 549 m 1
 823 630 736 716 665 773 c 1
 717 819 l 1
 789 761 877 673 943 596 c 1
 888 549 l 1
EndSplineSet
Validated: 1
Position2: "'vhal' +Zv9O41eCdvRTSlw6W/gA +Z+VifgAA 3 +a89OKltXX2JlcGNu 0" dx=0 dy=0 dh=-500 dv=0
EndChar

StartChar: uni3002
Encoding: 12290 12290 70
Width: 1000
GlyphClass: 1
Flags: W
LayerCount: 2
Fore
SplineSet
193 -56 m 0
 110 -56 43 10 43 94 c 0
 43 177 110 243 193 243 c 0
 276 243 343 177 343 94 c 0
 343 10 276 -56 193 -56 c 0
193 -7 m 0
 250 -7 294 37 294 94 c 0
 294 150 250 195 193 195 c 0
 136 195 92 150 92 94 c 0
 92 37 136 -7 193 -7 c 0
EndSplineSet
Validated: 1
Substitution2: "'vert' Vertical Alternates +Z+VifgAA 8+Zv9O44ho" uniFE12
Substitution2: "'ss01' +aDdfD5bG-1 +Z+VifgAA 2+Zv9O44ho" uni3002.uv002
Substitution2: "'locl' +ZyxXMF9iXw8A +Z+VifgAA 1+Zv9O44ho" uni3002.uv002
Position2: "'halt' +Zv9O41NKW70A +Z+VifgAA 2 +a89OKltXX2JlcGNu 1" dx=0 dy=0 dh=-500 dv=0
EndChar

StartChar: uni3002.uv001
Encoding: 1114116 -1 71
AltUni2: 003002.00fe00.0
Width: 1000
GlyphClass: 1
Flags: W
LayerCount: 2
Fore
SplineSet
193 -56 m 0
 110 -56 43 10 43 94 c 0
 43 177 110 243 193 243 c 0
 276 243 343 177 343 94 c 0
 343 10 276 -56 193 -56 c 0
193 -7 m 0
 250 -7 294 37 294 94 c 0
 294 150 250 195 193 195 c 0
 136 195 92 150 92 94 c 0
 92 37 136 -7 193 -7 c 0
EndSplineSet
Validated: 1
Substitution2: "'vert' Vertical Alternates +Z+VifgAA 8+Zv9O44ho" uniFE12
Position2: "'halt' +Zv9O41NKW70A +Z+VifgAA 2 +a89OKltXX2JlcGNu 1" dx=0 dy=0 dh=-500 dv=0
EndChar

StartChar: uni3002.uv002
Encoding: 1114117 -1 72
AltUni2: 003002.00fe01.0
Width: 1000
GlyphClass: 1
Flags: W
LayerCount: 2
Fore
SplineSet
500 230 m 0
 417 230 350 296 350 380 c 0
 350 463 417 529 500 529 c 0
 583 529 650 463 650 380 c 0
 650 296 583 230 500 230 c 0
500 279 m 0
 557 279 601 323 601 380 c 0
 601 436 557 481 500 481 c 0
 443 481 399 436 399 380 c 0
 399 323 443 279 500 279 c 0
EndSplineSet
Validated: 1
Position2: "'vhal' +Zv9O41eCdvRTSlw6W/gA +Z+VifgAA 3 +a89OKltXX2JlcGNu 2" dx=0 dy=250 dh=0 dv=-500
Position2: "'halt' +Zv9O41NKW70A +Z+VifgAA 2 +a89OKltXX2JlcGNu 2" dx=-250 dy=0 dh=-500 dv=0
EndChar

StartChar: uniFE12
Encoding: 65042 65042 73
Width: 1000
GlyphClass: 1
Flags: W
LayerCount: 2
Fore
SplineSet
802 515 m 0
 719 515 652 581 652 665 c 0
 652 748 719 814 802 814 c 0
 885 814 952 748 952 665 c 0
 952 581 885 515 802 515 c 0
802 564 m 0
 859 564 903 608 903 665 c 0
 903 721 859 766 802 766 c 0
 745 766 701 721 701 665 c 0
 701 608 745 564 802 564 c 0
EndSplineSet
Validated: 1
Position2: "'vhal' +Zv9O41eCdvRTSlw6W/gA +Z+VifgAA 3 +a89OKltXX2JlcGNu 0" dx=0 dy=0 dh=-500 dv=0
EndChar

StartChar: uni30FB
Encoding: 12539 12539 74
Width: 1000
GlyphClass: 1
Flags: W
LayerCount: 2
Fore
SplineSet
415 380 m 0
 415 445 450 474 500 474 c 0
 550 474 585 445 585 380 c 0
 585 315 550 286 500 286 c 0
 450 286 415 315 415 380 c 0
EndSplineSet
Validated: 1
Substitution2: "'vert' Vertical Alternates +Z+VifgAA 8+Zv9O44ho" uni30FB
Position2: "'vhal' +Zv9O41eCdvRTSlw6W/gA +Z+VifgAA 3 +a89OKltXX2JlcGNu 2" dx=0 dy=250 dh=0 dv=-500
Position2: "'halt' +Zv9O41NKW70A +Z+VifgAA 2 +a89OKltXX2JlcGNu 2" dx=-250 dy=0 dh=-500 dv=0
EndChar

StartChar: uni30A0
Encoding: 12448 12448 75
Width: 1000
GlyphClass: 1
Flags: W
LayerCount: 2
Fore
SplineSet
260 507 m 1
 740 507 l 1
 740 440 l 1
 260 440 l 1
 260 507 l 1
260 320 m 1
 740 320 l 1
 740 253 l 1
 260 253 l 1
 260 320 l 1
EndSplineSet
Validated: 1
Substitution2: "'vert' Vertical Alternates +Z+VifgAA 8+Zv9O44ho" uni30A0.vert
EndChar

StartChar: uni30A0.vert
Encoding: 1114118 -1 76
Width: 1000
GlyphClass: 1
Flags: W
LayerCount: 2
Fore
SplineSet
627 620 m 1
 627 140 l 1
 560 140 l 1
 560 620 l 1
 627 620 l 1
440 620 m 1
 440 140 l 1
 373 140 l 1
 373 620 l 1
 440 620 l 1
EndSplineSet
Validated: 1
EndChar

StartChar: ellipsis
Encoding: 8230 8230 77
Width: 1000
GlyphClass: 1
Flags: W
LayerCount: 2
Fore
SplineSet
109 380 m 0
 109 424 133 443 167 443 c 0
 201 443 225 424 225 380 c 0
 225 336 201 317 167 317 c 0
 133 317 109 336 109 380 c 0
442 380 m 0
 442 424 466 443 500 443 c 0
 534 443 558 424 558 380 c 0
 558 336 534 317 500 317 c 0
 466 317 442 336 442 380 c 0
775 380 m 0
 775 424 799 443 833 443 c 0
 867 443 891 424 891 380 c 0
 891 336 867 317 833 317 c 0
 799 317 775 336 775 380 c 0
EndSplineSet
Validated: 1
Substitution2: "'vert' Vertical Alternates +Z+VifgAA 8+Zv9O44ho" uniFE19
EndChar

StartChar: periodcentered
Encoding: 183 183 78
AltUni2: 002027.ffffffff.0 002027.ffffffff.0
Width: 500
GlyphClass: 1
Flags: W
LayerCount: 2
Fore
SplineSet
192 380 m 0
 192 424 216 443 250 443 c 0
 284 443 308 424 308 380 c 0
 308 336 284 317 250 317 c 0
 216 317 192 336 192 380 c 0
EndSplineSet
Validated: 1
Substitution2: "'fwid' +UWhbvQAA +Z+VifgAA 10+Zv9O44ho" periodcentered.full
Substitution2: "'vert' Vertical Alternates +Z+VifgAA 8+Zv9O44ho" periodcentered.vert
Substitution2: "'locl' +ZyxXMF9iXw8A +Z+VifgAA 1+Zv9O44ho" periodcentered.full
EndChar

StartChar: uni2049
Encoding: 8265 8265 79
Width: 1000
GlyphClass: 3
Flags: W
LayerCount: 2
Fore
SplineSet
223 208 m 1
 202 780 l 1
 298 780 l 1
 277 208 l 1
 223 208 l 1
192 44 m 0
 192 88 216 107 250 107 c 0
 284 107 308 88 308 44 c 0
 308 0 284 -19 250 -19 c 0
 216 -19 192 0 192 44 c 0
675 233 m 2
 675 323 695 366 768 424 c 0
 851 492 883 523 883 599 c 0
 883 680 829 721 739 721 c 0
 672 721 620 702 569 678 c 1
 541 742 l 1
 601 772 664 791 744 791 c 0
 879 791 959 721 959 600 c 0
 959 498 906 451 825 386 c 0
 756 330 739 298 739 225 c 2
 739 208 l 1
 675 208 l 1
 675 233 l 2
653 44 m 0
 653 88 677 107 711 107 c 0
 745 107 769 88 769 44 c 0
 769 0 745 -19 711 -19 c 0
 677 -19 653 0 653 44 c 0
EndSplineSet
Validated: 1
Ligature2: "'dlig' +TvthD4/eW1cA +Z+VifgAA 14+Zv9O44ho" uniFF01.uv002 uniFF1F.uv002
Ligature2: "'dlig' +TvthD4/eW1cA +Z+VifgAA 14+Zv9O44ho" uniFF01.uv001 uniFF1F.uv001
Ligature2: "'dlig' +TvthD4/eW1cA +Z+VifgAA 14+Zv9O44ho" uniFE15 uniFE16
Ligature2: "'dlig' +TvthD4/eW1cA +Z+VifgAA 14+Zv9O44ho" uniFF01 uniFF1F
EndChar

StartChar: exclamdbl
Encoding: 8252 8252 80
Width: 1000
GlyphClass: 3
Flags: W
LayerCount: 2
Fore
SplineSet
223 208 m 1
 202 780 l 1
 298 780 l 1
 277 208 l 1
 223 208 l 1
192 44 m 0
 192 88 216 107 250 107 c 0
 284 107 308 88 308 44 c 0
 308 0 284 -19 250 -19 c 0
 216 -19 192 0 192 44 c 0
723 208 m 1
 702 780 l 1
 798 780 l 1
 777 208 l 1
 723 208 l 1
692 44 m 0
 692 88 716 107 750 107 c 0
 784 107 808 88 808 44 c 0
 808 0 784 -19 750 -19 c 0
 716 -19 692 0 692 44 c 0
EndSplineSet
Validated: 1
Ligature2: "'dlig' +TvthD4/eW1cA +Z+VifgAA 14+Zv9O44ho" uniFF01.uv002 uniFF01.uv002
Ligature2: "'dlig' +TvthD4/eW1cA +Z+VifgAA 14+Zv9O44ho" uniFF01.uv001 uniFF01.uv001
Ligature2: "'dlig' +TvthD4/eW1cA +Z+VifgAA 14+Zv9O44ho" uniFE15 uniFE15
Ligature2: "'dlig' +TvthD4/eW1cA +Z+VifgAA 14+Zv9O44ho" uniFF01 uniFF01
EndChar

StartChar: uni2047
Encoding: 8263 8263 81
Width: 1000
GlyphClass: 3
Flags: W
LayerCount: 2
Fore
SplineSet
175 233 m 2
 175 323 195 366 268 424 c 0
 351 492 383 523 383 599 c 0
 383 680 329 721 239 721 c 0
 172 721 120 702 69 678 c 1
 41 742 l 1
 101 772 164 791 244 791 c 0
 379 791 459 721 459 600 c 0
 459 498 406 451 325 386 c 0
 256 330 239 298 239 225 c 2
 239 208 l 1
 175 208 l 1
 175 233 l 2
153 44 m 0
 153 88 177 107 211 107 c 0
 245 107 269 88 269 44 c 0
 269 0 245 -19 211 -19 c 0
 177 -19 153 0 153 44 c 0
675 233 m 2
 675 323 695 366 768 424 c 0
 851 492 883 523 883 599 c 0
 883 680 829 721 739 721 c 0
 672 721 620 702 569 678 c 1
 541 742 l 1
 601 772 664 791 744 791 c 0
 879 791 959 721 959 600 c 0
 959 498 906 451 825 386 c 0
 756 330 739 298 739 225 c 2
 739 208 l 1
 675 208 l 1
 675 233 l 2
653 44 m 0
 653 88 677 107 711 107 c 0
 745 107 769 88 769 44 c 0
 769 0 745 -19 711 -19 c 0
 677 -19 653 0 653 44 c 0
EndSplineSet
Validated: 1
Ligature2: "'dlig' +TvthD4/eW1cA +Z+VifgAA 14+Zv9O44ho" uniFF1F.uv002 uniFF1F.uv002
Ligature2: "'dlig' +TvthD4/eW1cA +Z+VifgAA 14+Zv9O44ho" uniFF1F.uv001 uniFF1F.uv001
Ligature2: "'dlig' +TvthD4/eW1cA +Z+VifgAA 14+Zv9O44ho" uniFE16 uniFE16
Ligature2: "'dlig' +TvthD4/eW1cA +Z+VifgAA 14+Zv9O44ho" uniFF1F uniFF1F
EndChar

StartChar: uni2048
Encoding: 8264 8264 82
Width: 1000
GlyphClass: 3
Flags: W
LayerCount: 2
Fore
SplineSet
175 233 m 2
 175 323 195 366 268 424 c 0
 351 492 383 523 383 599 c 0
 383 680 329 721 239 721 c 0
 172 721 120 702 69 678 c 1
 41 742 l 1
 101 772 164 791 244 791 c 0
 379 791 459 721 459 600 c 0
 459 498 406 451 325 386 c 0
 256 330 239 298 239 225 c 2
 239 208 l 1
 175 208 l 1
 175 233 l 2
153 44 m 0
 153 88 177 107 211 107 c 0
 245 107 269 88 269 44 c 0
 269 0 245 -19 211 -19 c 0
 177 -19 153 0 153 44 c 0
723 208 m 1
 702 780 l 1
 798 780 l 1
 777 208 l 1
 723 208 l 1
692 44 m 0
 692 88 716 107 750 107 c 0
 784 107 808 88 808 44 c 0
 808 0 784 -19 750 -19 c 0
 716 -19 692 0 692 44 c 0
EndSplineSet
Validated: 1
Ligature2: "'dlig' +TvthD4/eW1cA +Z+VifgAA 14+Zv9O44ho" uniFF1F.uv002 uniFF01.uv002
Ligature2: "'dlig' +TvthD4/eW1cA +Z+VifgAA 14+Zv9O44ho" uniFF1F.uv001 uniFF01.uv001
Ligature2: "'dlig' +TvthD4/eW1cA +Z+VifgAA 14+Zv9O44ho" uniFE16 uniFE15
Ligature2: "'dlig' +TvthD4/eW1cA +Z+VifgAA 14+Zv9O44ho" uniFF1F uniFF01
EndChar

StartChar: uniFF06
Encoding: 65286 65286 83
Width: 1000
GlyphClass: 1
Flags: W
LayerCount: 2
Fore
SplineSet
383 -49 m 0
 234 -49 139 27 139 165 c 0
 139 280 206 337 316 398 c 1
 261 456 214 511 214 590 c 0
 214 696 291 760 412 760 c 0
 524 760 597 698 597 593 c 0
 597 499 528 439 431 385 c 1
 658 163 l 1
 698 210 725 273 741 346 c 1
 821 346 l 1
 798 253 763 174 709 112 c 1
 861 -38 l 1
 755 -38 l 1
 656 60 l 1
 587 -4 508 -49 383 -49 c 0
386 22 m 0
 487 22 554 59 606 110 c 1
 364 348 l 1
 273 298 221 255 221 167 c 0
 221 78 286 22 386 22 c 0
382 433 m 1
 475 482 518 526 518 593 c 0
 518 654 476 694 409 694 c 0
 339 694 292 655 292 591 c 0
 292 534 324 492 382 433 c 1
EndSplineSet
Validated: 1
EndChar

StartChar: uniFF0A
Encoding: 65290 65290 84
Width: 1000
GlyphClass: 1
Flags: W
LayerCount: 2
Fore
SplineSet
467 14 m 1
 467 322 l 1
 199 168 l 1
 166 225 l 1
 433 380 l 1
 166 535 l 1
 199 592 l 1
 467 438 l 1
 467 747 l 1
 533 747 l 1
 533 438 l 1
 801 592 l 1
 834 535 l 1
 567 380 l 1
 834 225 l 1
 801 168 l 1
 533 322 l 1
 533 14 l 1
 467 14 l 1
EndSplineSet
Validated: 1
EndChar

StartChar: uniFF20
Encoding: 65312 65312 85
Width: 1000
GlyphClass: 1
Flags: W
LayerCount: 2
Fore
SplineSet
930 353 m 0
 930 215 869 81 744 81 c 0
 677 81 636 125 629 183 c 1
 624 183 l 1
 596 121 542 81 465 81 c 0
 354 81 292 159 292 284 c 0
 292 427 384 530 526 530 c 0
 587 530 650 518 687 505 c 1
 676 298 l 2
 675 272 675 255 675 242 c 0
 675 164 705 139 749 139 c 0
 825 139 865 234 865 354 c 0
 865 561 732 684 535 684 c 0
 284 684 137 520 137 273 c 0
 137 50 260 -78 480 -78 c 0
 565 -78 648 -57 712 -32 c 1
 712 -95 l 1
 649 -121 571 -139 480 -139 c 0
 223 -139 70 15 70 271 c 0
 70 552 249 745 535 745 c 0
 768 745 930 595 930 353 c 0
363 282 m 0
 363 184 404 139 476 139 c 0
 563 139 603 205 609 314 c 2
 616 459 l 1
 593 466 561 472 527 472 c 0
 415 472 363 384 363 282 c 0
EndSplineSet
Validated: 1
EndChar

StartChar: uniFF3C
Encoding: 65340 65340 86
Width: 1000
GlyphClass: 1
Flags: W
LayerCount: 2
Fore
SplineSet
829 -86 m 1
 85 846 l 1
 171 846 l 1
 915 -86 l 1
 829 -86 l 1
EndSplineSet
Validated: 1
EndChar

StartChar: uniFF1A
Encoding: 65306 65306 87
Width: 1000
GlyphClass: 1
Flags: W
LayerCount: 2
Fore
SplineSet
192 44 m 0
 192 88 216 107 250 107 c 0
 284 107 308 88 308 44 c 0
 308 0 284 -19 250 -19 c 0
 216 -19 192 0 192 44 c 0
192 500 m 0
 192 544 216 563 250 563 c 0
 284 563 308 544 308 500 c 0
 308 456 284 437 250 437 c 0
 216 437 192 456 192 500 c 0
EndSplineSet
Validated: 1
Substitution2: "'vert' Vertical Alternates +Z+VifgAA 8+Zv9O44ho" uniFE13
Substitution2: "'ss01' +aDdfD5bG-1 +Z+VifgAA 2+Zv9O44ho" uniFF1A.uv002
Substitution2: "'locl' +ZyxXMF9iXw8A +Z+VifgAA 1+Zv9O44ho" uniFF1A.uv002
Substitution2: "'locl' +ZyxXMF9iXw8A +Z+VifgAA 0+Zv9O44ho" uniFF1A.uv002
Position2: "'halt' +Zv9O41NKW70A +Z+VifgAA 2 +a89OKltXX2JlcGNu 1" dx=0 dy=0 dh=-500 dv=0
EndChar

StartChar: uniFE13
Encoding: 65043 65043 88
Width: 1000
GlyphClass: 1
Flags: W
LayerCount: 2
Fore
SplineSet
742 737 m 0
 742 781 766 800 800 800 c 0
 834 800 858 781 858 737 c 0
 858 693 834 674 800 674 c 0
 766 674 742 693 742 737 c 0
742 433 m 0
 742 477 766 496 800 496 c 0
 834 496 858 477 858 433 c 0
 858 389 834 370 800 370 c 0
 766 370 742 389 742 433 c 0
EndSplineSet
Validated: 1
EndChar

StartChar: uniFF0C
Encoding: 65292 65292 89
Width: 1000
GlyphClass: 1
Flags: HW
LayerCount: 2
Fore
SplineSet
184 -70 m 1
 222 -59 255 -13 255 29 c 1
 213 29 192 51 192 89 c 0
 192 133 216 152 250 152 c 0
 284 152 313 133 313 78 c 0
 313 -25 266 -93 184 -111 c 1
 184 -70 l 1
EndSplineSet
Validated: 1
Substitution2: "'ss02' +aDdfD5bG-2 +Z+VifgAA 13+Zv9O44ho" uniFF0C.ss02
Substitution2: "'vert' Vertical Alternates +Z+VifgAA 8+Zv9O44ho" uniFE10
Substitution2: "'ss01' +aDdfD5bG-1 +Z+VifgAA 2+Zv9O44ho" uniFF0C.uv002
Substitution2: "'locl' +ZyxXMF9iXw8A +Z+VifgAA 1+Zv9O44ho" uniFF0C.uv002
Position2: "'halt' +Zv9O41NKW70A +Z+VifgAA 2 +a89OKltXX2JlcGNu 1" dx=0 dy=0 dh=-500 dv=0
EndChar

StartChar: uniFE19
Encoding: 65049 65049 90
Width: 1000
GlyphClass: 1
Flags: W
LayerCount: 2
Fore
SplineSet
442 713 m 0
 442 757 466 776 500 776 c 0
 534 776 558 757 558 713 c 0
 558 669 534 650 500 650 c 0
 466 650 442 669 442 713 c 0
442 380 m 0
 442 424 466 443 500 443 c 0
 534 443 558 424 558 380 c 0
 558 336 534 317 500 317 c 0
 466 317 442 336 442 380 c 0
442 47 m 0
 442 91 466 110 500 110 c 0
 534 110 558 91 558 47 c 0
 558 3 534 -16 500 -16 c 0
 466 -16 442 3 442 47 c 0
EndSplineSet
Validated: 1
EndChar

StartChar: uniFF01
Encoding: 65281 65281 91
Width: 1000
GlyphClass: 5
Flags: W
LayerCount: 2
Fore
SplineSet
223 208 m 1
 202 780 l 1
 298 780 l 1
 277 208 l 1
 223 208 l 1
192 44 m 0
 192 88 216 107 250 107 c 0
 284 107 308 88 308 44 c 0
 308 0 284 -19 250 -19 c 0
 216 -19 192 0 192 44 c 0
EndSplineSet
Validated: 1
Substitution2: "'vert' Vertical Alternates +Z+VifgAA 8+Zv9O44ho" uniFE15
Substitution2: "'ss01' +aDdfD5bG-1 +Z+VifgAA 2+Zv9O44ho" uniFF01.uv002
Substitution2: "'locl' +ZyxXMF9iXw8A +Z+VifgAA 1+Zv9O44ho" uniFF01.uv002
Substitution2: "'locl' +ZyxXMF9iXw8A +Z+VifgAA 0+Zv9O44ho" uniFF01.uv002
Position2: "'halt' +Zv9O41NKW70A +Z+VifgAA 2 +a89OKltXX2JlcGNu 1" dx=0 dy=0 dh=-500 dv=0
EndChar

StartChar: uniFE15
Encoding: 65045 65045 92
Width: 1000
GlyphClass: 5
Flags: W
LayerCount: 2
Fore
SplineSet
723 208 m 1
 702 780 l 1
 798 780 l 1
 777 208 l 1
 723 208 l 1
692 44 m 0
 692 88 716 107 750 107 c 0
 784 107 808 88 808 44 c 0
 808 0 784 -19 750 -19 c 0
 716 -19 692 0 692 44 c 0
EndSplineSet
Validated: 1
EndChar

StartChar: periodcentered.full
Encoding: 1114119 -1 93
Width: 1000
GlyphClass: 1
Flags: W
LayerCount: 2
Fore
SplineSet
442 380 m 0
 442 424 466 443 500 443 c 0
 534 443 558 424 558 380 c 0
 558 336 534 317 500 317 c 0
 466 317 442 336 442 380 c 0
EndSplineSet
Validated: 1
Substitution2: "'hwid' +U0pbvQAA +Z+VifgAA 11+Zv9O44ho" periodcentered
Substitution2: "'vert' Vertical Alternates +Z+VifgAA 8+Zv9O44ho" periodcentered.full
Position2: "'vhal' +Zv9O41eCdvRTSlw6W/gA +Z+VifgAA 3 +a89OKltXX2JlcGNu 2" dx=0 dy=250 dh=0 dv=-500
Position2: "'halt' +Zv9O41NKW70A +Z+VifgAA 2 +a89OKltXX2JlcGNu 2" dx=-250 dy=0 dh=-500 dv=0
EndChar

StartChar: uniFF03
Encoding: 65283 65283 94
Width: 1000
GlyphClass: 1
Flags: W
LayerCount: 2
Fore
SplineSet
275 -38 m 1
 318 197 l 1
 174 197 l 1
 174 259 l 1
 330 259 l 1
 368 450 l 1
 215 450 l 1
 215 509 l 1
 378 509 l 1
 423 747 l 1
 489 747 l 1
 444 509 l 1
 618 509 l 1
 664 747 l 1
 727 747 l 1
 681 509 l 1
 826 509 l 1
 826 450 l 1
 669 450 l 1
 632 259 l 1
 788 259 l 1
 788 197 l 1
 621 197 l 1
 575 -38 l 1
 510 -38 l 1
 556 197 l 1
 382 197 l 1
 338 -38 l 1
 275 -38 l 1
394 259 m 1
 568 259 l 1
 605 450 l 1
 431 450 l 1
 394 259 l 1
EndSplineSet
Validated: 1
EndChar

StartChar: uniFF05
Encoding: 65285 65285 95
Width: 1000
GlyphClass: 1
Flags: W
LayerCount: 2
Fore
SplineSet
247 -38 m 1
 682 747 l 1
 753 747 l 1
 318 -38 l 1
 247 -38 l 1
263 266 m 0
 161 266 105 356 105 513 c 0
 105 670 157 758 263 758 c 0
 369 758 424 669 424 513 c 0
 424 355 371 266 263 266 c 0
263 324 m 0
 327 324 357 388 357 513 c 0
 357 637 328 701 263 701 c 0
 201 701 172 639 172 513 c 0
 172 388 201 324 263 324 c 0
733 -49 m 0
 631 -49 576 41 576 199 c 0
 576 356 627 444 734 444 c 0
 839 444 895 355 895 199 c 0
 895 40 841 -49 733 -49 c 0
733 9 m 0
 797 9 828 73 828 199 c 0
 828 322 798 386 734 386 c 0
 672 386 643 324 643 199 c 0
 643 73 671 9 733 9 c 0
EndSplineSet
Validated: 1
EndChar

StartChar: uniFF0E
Encoding: 65294 65294 96
Width: 1000
GlyphClass: 1
Flags: W
LayerCount: 2
Fore
SplineSet
192 44 m 0
 192 88 216 107 250 107 c 0
 284 107 308 88 308 44 c 0
 308 0 284 -19 250 -19 c 0
 216 -19 192 0 192 44 c 0
EndSplineSet
Validated: 1
Substitution2: "'vert' Vertical Alternates +Z+VifgAA 8+Zv9O44ho" uniFF0E.vert
Substitution2: "'ss01' +aDdfD5bG-1 +Z+VifgAA 2+Zv9O44ho" uniFF0E.uv002
Substitution2: "'locl' +ZyxXMF9iXw8A +Z+VifgAA 1+Zv9O44ho" uniFF0E.uv002
Position2: "'halt' +Zv9O41NKW70A +Z+VifgAA 2 +a89OKltXX2JlcGNu 1" dx=0 dy=0 dh=-500 dv=0
EndChar

StartChar: uniFF1F
Encoding: 65311 65311 97
Width: 1000
GlyphClass: 5
Flags: W
LayerCount: 2
Fore
SplineSet
175 233 m 2
 175 323 195 366 268 424 c 0
 351 492 383 523 383 599 c 0
 383 680 329 721 239 721 c 0
 172 721 120 702 69 678 c 1
 41 742 l 1
 101 772 164 791 244 791 c 0
 379 791 459 721 459 600 c 0
 459 498 406 451 325 386 c 0
 256 330 239 298 239 225 c 2
 239 208 l 1
 175 208 l 1
 175 233 l 2
153 44 m 0
 153 88 177 107 211 107 c 0
 245 107 269 88 269 44 c 0
 269 0 245 -19 211 -19 c 0
 177 -19 153 0 153 44 c 0
EndSplineSet
Validated: 1
Substitution2: "'vert' Vertical Alternates +Z+VifgAA 8+Zv9O44ho" uniFE16
Substitution2: "'ss01' +aDdfD5bG-1 +Z+VifgAA 2+Zv9O44ho" uniFF1F.uv002
Substitution2: "'locl' +ZyxXMF9iXw8A +Z+VifgAA 1+Zv9O44ho" uniFF1F.uv002
Substitution2: "'locl' +ZyxXMF9iXw8A +Z+VifgAA 0+Zv9O44ho" uniFF1F.uv002
Position2: "'halt' +Zv9O41NKW70A +Z+VifgAA 2 +a89OKltXX2JlcGNu 1" dx=0 dy=0 dh=-500 dv=0
EndChar

StartChar: uniFE16
Encoding: 65046 65046 98
Width: 1000
GlyphClass: 5
Flags: W
LayerCount: 2
Fore
SplineSet
663 233 m 2
 663 323 683 366 756 424 c 0
 839 492 871 523 871 599 c 0
 871 680 817 721 727 721 c 0
 660 721 608 702 557 678 c 1
 529 742 l 1
 589 772 652 791 732 791 c 0
 867 791 947 721 947 600 c 0
 947 498 894 451 813 386 c 0
 744 330 727 298 727 225 c 2
 727 208 l 1
 663 208 l 1
 663 233 l 2
641 44 m 0
 641 88 665 107 699 107 c 0
 733 107 757 88 757 44 c 0
 757 0 733 -19 699 -19 c 0
 665 -19 641 0 641 44 c 0
EndSplineSet
Validated: 1
EndChar

StartChar: uniFF02
Encoding: 65282 65282 99
Width: 1000
GlyphClass: 1
Flags: W
LayerCount: 2
Fore
SplineSet
570 464 m 1
 553 747 l 1
 638 747 l 1
 620 464 l 1
 570 464 l 1
380 464 m 1
 362 747 l 1
 447 747 l 1
 430 464 l 1
 380 464 l 1
EndSplineSet
Validated: 1
EndChar

StartChar: uniFF07
Encoding: 65287 65287 100
Width: 1000
GlyphClass: 1
Flags: W
LayerCount: 2
Fore
SplineSet
475 464 m 1
 458 747 l 1
 542 747 l 1
 525 464 l 1
 475 464 l 1
EndSplineSet
Validated: 1
EndChar

StartChar: uniFF1B
Encoding: 65307 65307 101
Width: 1000
GlyphClass: 1
Flags: HW
LayerCount: 2
Fore
SplineSet
192 500 m 0
 192 544 216 563 250 563 c 0
 284 563 308 544 308 500 c 0
 308 456 284 437 250 437 c 0
 216 437 192 456 192 500 c 0
184 -70 m 1
 222 -59 255 -13 255 29 c 1
 213 29 192 51 192 89 c 0
 192 133 216 152 250 152 c 0
 284 152 313 133 313 78 c 0
 313 -25 266 -93 184 -111 c 1
 184 -70 l 1
EndSplineSet
Validated: 1
Substitution2: "'ss02' +aDdfD5bG-2 +Z+VifgAA 13+Zv9O44ho" uniFF1B.ss02
Substitution2: "'vert' Vertical Alternates +Z+VifgAA 8+Zv9O44ho" uniFE14
Substitution2: "'ss01' +aDdfD5bG-1 +Z+VifgAA 2+Zv9O44ho" uniFF1B.uv002
Substitution2: "'locl' +ZyxXMF9iXw8A +Z+VifgAA 1+Zv9O44ho" uniFF1B.uv002
Substitution2: "'locl' +ZyxXMF9iXw8A +Z+VifgAA 0+Zv9O44ho" uniFF1B.uv002
Position2: "'halt' +Zv9O41NKW70A +Z+VifgAA 2 +a89OKltXX2JlcGNu 1" dx=0 dy=0 dh=-500 dv=0
EndChar

StartChar: uniFE14
Encoding: 65044 65044 102
Width: 1000
GlyphClass: 1
Flags: HW
LayerCount: 2
Fore
SplineSet
742 737 m 0
 742 781 766 800 800 800 c 0
 834 800 858 781 858 737 c 0
 858 693 834 674 800 674 c 0
 766 674 742 693 742 737 c 0
734 274 m 1
 772 285 805 331 805 373 c 1
 763 373 742 395 742 433 c 0
 742 477 766 496 800 496 c 0
 834 496 863 477 863 422 c 0
 863 319 816 251 734 233 c 1
 734 274 l 1
EndSplineSet
Validated: 1
Substitution2: "'ss02' +aDdfD5bG-2 +Z+VifgAA 13+Zv9O44ho" uniFE14.ss02
EndChar

StartChar: uniFF0F
Encoding: 65295 65295 103
Width: 1000
GlyphClass: 1
Flags: W
LayerCount: 2
Fore
SplineSet
85 -86 m 1
 829 846 l 1
 915 846 l 1
 171 -86 l 1
 85 -86 l 1
EndSplineSet
Validated: 1
EndChar

StartChar: uniFF3F
Encoding: 65343 65343 104
Width: 1000
GlyphClass: 1
Flags: W
LayerCount: 2
Fore
SplineSet
1001 -108 m 1
 -1 -108 l 1
 -1 -42 l 1
 1001 -42 l 1
 1001 -108 l 1
EndSplineSet
Validated: 1
Substitution2: "'vert' Vertical Alternates +Z+VifgAA 8+Zv9O44ho" uniFE33
EndChar

StartChar: periodcentered.vert
Encoding: 1114120 -1 105
Width: 1000
VWidth: 500
GlyphClass: 1
Flags: W
LayerCount: 2
Fore
SplineSet
442 630 m 0
 442 674 466 693 500 693 c 0
 534 693 558 674 558 630 c 0
 558 586 534 567 500 567 c 0
 466 567 442 586 442 630 c 0
EndSplineSet
Validated: 1
Substitution2: "'fwid' +UWhbvQAA +Z+VifgAA 10+Zv9O44ho" periodcentered.full
EndChar

StartChar: uniFE10
Encoding: 65040 65040 106
Width: 1000
GlyphClass: 1
Flags: HW
LayerCount: 2
Fore
SplineSet
734 578 m 1
 772 589 805 635 805 677 c 1
 763 677 742 699 742 737 c 0
 742 781 766 800 800 800 c 0
 834 800 863 781 863 726 c 0
 863 623 816 555 734 537 c 1
 734 578 l 1
EndSplineSet
Validated: 1
Substitution2: "'ss02' +aDdfD5bG-2 +Z+VifgAA 13+Zv9O44ho" uniFE10.ss02
Position2: "'vhal' +Zv9O41eCdvRTSlw6W/gA +Z+VifgAA 3 +a89OKltXX2JlcGNu 0" dx=0 dy=0 dh=-500 dv=0
EndChar

StartChar: uniFF0C.ss02
Encoding: 1114121 -1 107
Width: 1000
GlyphClass: 1
Flags: HW
LayerCount: 2
Fore
SplineSet
295 158 m 1
 275 79 240 -22 206 -100 c 1
 147 -100 l 1
 171 -10 193 91 204 170 c 1
 288 170 l 1
 295 158 l 1
EndSplineSet
Validated: 1
Substitution2: "'vert' Vertical Alternates +Z+VifgAA 8+Zv9O44ho" uniFE10.ss02
Substitution2: "'ss01' +aDdfD5bG-1 +Z+VifgAA 2+Zv9O44ho" uniFF0C.uv002.ss02
Substitution2: "'locl' +ZyxXMF9iXw8A +Z+VifgAA 1+Zv9O44ho" uniFF0C.uv002.ss02
Position2: "'halt' +Zv9O41NKW70A +Z+VifgAA 2 +a89OKltXX2JlcGNu 1" dx=0 dy=0 dh=-500 dv=0
EndChar

StartChar: uniFF1B.ss02
Encoding: 1114122 -1 108
Width: 1000
GlyphClass: 1
Flags: HW
LayerCount: 2
Fore
SplineSet
295 158 m 1
 275 79 240 -22 206 -100 c 1
 147 -100 l 1
 171 -10 193 91 204 170 c 1
 288 170 l 1
 295 158 l 1
192 500 m 0
 192 544 216 563 250 563 c 0
 284 563 308 544 308 500 c 0
 308 456 284 437 250 437 c 0
 216 437 192 456 192 500 c 0
EndSplineSet
Validated: 1
Substitution2: "'vert' Vertical Alternates +Z+VifgAA 8+Zv9O44ho" uniFE14.ss02
Substitution2: "'ss01' +aDdfD5bG-1 +Z+VifgAA 2+Zv9O44ho" uniFF1B.uv002.ss02
Substitution2: "'locl' +ZyxXMF9iXw8A +Z+VifgAA 1+Zv9O44ho" uniFF1B.uv002.ss02
Substitution2: "'locl' +ZyxXMF9iXw8A +Z+VifgAA 0+Zv9O44ho" uniFF1B.uv002.ss02
Position2: "'halt' +Zv9O41NKW70A +Z+VifgAA 2 +a89OKltXX2JlcGNu 1" dx=0 dy=0 dh=-500 dv=0
EndChar

StartChar: uniFE14.ss02
Encoding: 1114123 -1 109
Width: 1000
GlyphClass: 1
Flags: HW
LayerCount: 2
Fore
SplineSet
742 737 m 0
 742 781 766 800 800 800 c 0
 834 800 858 781 858 737 c 0
 858 693 834 674 800 674 c 0
 766 674 742 693 742 737 c 0
845 481 m 1
 825 402 790 301 756 223 c 1
 697 223 l 1
 721 313 743 414 754 493 c 1
 838 493 l 1
 845 481 l 1
EndSplineSet
Validated: 1
EndChar

StartChar: uniFE33
Encoding: 1114124 -1 110
Width: 1000
GlyphClass: 1
Flags: W
LayerCount: 2
Fore
SplineSet
12 -121 m 1
 12 881 l 1
 78 881 l 1
 78 -121 l 1
 12 -121 l 1
EndSplineSet
Validated: 1
EndChar

StartChar: uniFF1A.uv001
Encoding: 1114125 -1 111
AltUni2: 00ff1a.00fe00.0
Width: 1000
GlyphClass: 1
Flags: W
LayerCount: 2
Fore
SplineSet
192 44 m 0
 192 88 216 107 250 107 c 0
 284 107 308 88 308 44 c 0
 308 0 284 -19 250 -19 c 0
 216 -19 192 0 192 44 c 0
192 500 m 0
 192 544 216 563 250 563 c 0
 284 563 308 544 308 500 c 0
 308 456 284 437 250 437 c 0
 216 437 192 456 192 500 c 0
EndSplineSet
Validated: 1
Substitution2: "'vert' Vertical Alternates +Z+VifgAA 8+Zv9O44ho" uniFE13
Position2: "'halt' +Zv9O41NKW70A +Z+VifgAA 2 +a89OKltXX2JlcGNu 1" dx=0 dy=0 dh=-500 dv=0
EndChar

StartChar: uniFF0C.uv001
Encoding: 1114126 -1 112
AltUni2: 00ff0c.00fe00.0
Width: 1000
GlyphClass: 1
Flags: W
LayerCount: 2
Fore
SplineSet
295 158 m 1
 275 79 240 -22 206 -100 c 1
 147 -100 l 1
 171 -10 193 91 204 170 c 1
 288 170 l 1
 295 158 l 1
EndSplineSet
Validated: 1
Substitution2: "'vert' Vertical Alternates +Z+VifgAA 8+Zv9O44ho" uniFE10
Position2: "'halt' +Zv9O41NKW70A +Z+VifgAA 2 +a89OKltXX2JlcGNu 1" dx=0 dy=0 dh=-500 dv=0
EndChar

StartChar: uniFF01.uv001
Encoding: 1114127 -1 113
AltUni2: 00ff01.00fe00.0
Width: 1000
GlyphClass: 5
Flags: W
LayerCount: 2
Fore
SplineSet
223 208 m 1
 202 780 l 1
 298 780 l 1
 277 208 l 1
 223 208 l 1
192 44 m 0
 192 88 216 107 250 107 c 0
 284 107 308 88 308 44 c 0
 308 0 284 -19 250 -19 c 0
 216 -19 192 0 192 44 c 0
EndSplineSet
Validated: 1
Substitution2: "'vert' Vertical Alternates +Z+VifgAA 8+Zv9O44ho" uniFE15
Position2: "'halt' +Zv9O41NKW70A +Z+VifgAA 2 +a89OKltXX2JlcGNu 1" dx=0 dy=0 dh=-500 dv=0
EndChar

StartChar: uniFF0E.uv001
Encoding: 1114128 -1 114
AltUni2: 00ff0e.00fe00.0
Width: 1000
GlyphClass: 1
Flags: W
LayerCount: 2
Fore
SplineSet
192 44 m 0
 192 88 216 107 250 107 c 0
 284 107 308 88 308 44 c 0
 308 0 284 -19 250 -19 c 0
 216 -19 192 0 192 44 c 0
EndSplineSet
Validated: 1
Substitution2: "'vert' Vertical Alternates +Z+VifgAA 8+Zv9O44ho" uniFF0E.vert
Position2: "'halt' +Zv9O41NKW70A +Z+VifgAA 2 +a89OKltXX2JlcGNu 1" dx=0 dy=0 dh=-500 dv=0
EndChar

StartChar: uniFF1F.uv001
Encoding: 1114129 -1 115
AltUni2: 00ff1f.00fe00.0
Width: 1000
GlyphClass: 5
Flags: W
LayerCount: 2
Fore
SplineSet
175 233 m 2
 175 323 195 366 268 424 c 0
 351 492 383 523 383 599 c 0
 383 680 329 721 239 721 c 0
 172 721 120 702 69 678 c 1
 41 742 l 1
 101 772 164 791 244 791 c 0
 379 791 459 721 459 600 c 0
 459 498 406 451 325 386 c 0
 256 330 239 298 239 225 c 2
 239 208 l 1
 175 208 l 1
 175 233 l 2
153 44 m 0
 153 88 177 107 211 107 c 0
 245 107 269 88 269 44 c 0
 269 0 245 -19 211 -19 c 0
 177 -19 153 0 153 44 c 0
EndSplineSet
Validated: 1
Substitution2: "'vert' Vertical Alternates +Z+VifgAA 8+Zv9O44ho" uniFE16
Position2: "'halt' +Zv9O41NKW70A +Z+VifgAA 2 +a89OKltXX2JlcGNu 1" dx=0 dy=0 dh=-500 dv=0
EndChar

StartChar: uniFF1B.uv001
Encoding: 1114130 -1 116
AltUni2: 00ff1b.00fe00.0
Width: 1000
GlyphClass: 1
Flags: W
LayerCount: 2
Fore
SplineSet
295 158 m 1
 275 79 240 -22 206 -100 c 1
 147 -100 l 1
 171 -10 193 91 204 170 c 1
 288 170 l 1
 295 158 l 1
192 500 m 0
 192 544 216 563 250 563 c 0
 284 563 308 544 308 500 c 0
 308 456 284 437 250 437 c 0
 216 437 192 456 192 500 c 0
EndSplineSet
Validated: 1
Substitution2: "'vert' Vertical Alternates +Z+VifgAA 8+Zv9O44ho" uniFE14
Position2: "'halt' +Zv9O41NKW70A +Z+VifgAA 2 +a89OKltXX2JlcGNu 1" dx=0 dy=0 dh=-500 dv=0
EndChar

StartChar: uniFF1A.uv002
Encoding: 1114131 -1 117
AltUni2: 00ff1a.00fe01.0
Width: 1000
GlyphClass: 1
Flags: W
LayerCount: 2
Fore
SplineSet
442 152 m 0
 442 196 466 215 500 215 c 0
 534 215 558 196 558 152 c 0
 558 108 534 89 500 89 c 0
 466 89 442 108 442 152 c 0
442 608 m 0
 442 652 466 671 500 671 c 0
 534 671 558 652 558 608 c 0
 558 564 534 545 500 545 c 0
 466 545 442 564 442 608 c 0
EndSplineSet
Validated: 1
Substitution2: "'vert' Vertical Alternates +Z+VifgAA 5+Zv9O44ho" uniFE13
Substitution2: "'vert' Vertical Alternates +Z+VifgAA 4+Zv9O44ho" uniFF1A.vert.loclJAN
Position2: "'halt' +Zv9O41NKW70A +Z+VifgAA 2 +a89OKltXX2JlcGNu 2" dx=-250 dy=0 dh=-500 dv=0
EndChar

StartChar: uniFF0C.uv002
Encoding: 1114132 -1 118
AltUni2: 00ff0c.00fe01.0
Width: 1000
GlyphClass: 1
Flags: HW
LayerCount: 2
Fore
SplineSet
434 290 m 1
 472 301 505 347 505 389 c 1
 463 389 442 411 442 449 c 0
 442 493 466 512 500 512 c 0
 534 512 563 493 563 438 c 0
 563 335 516 267 434 249 c 1
 434 290 l 1
EndSplineSet
Validated: 1
Substitution2: "'ss02' +aDdfD5bG-2 +Z+VifgAA 13+Zv9O44ho" uniFF0C.uv002.ss02
Position2: "'vhal' +Zv9O41eCdvRTSlw6W/gA +Z+VifgAA 3 +a89OKltXX2JlcGNu 2" dx=0 dy=250 dh=0 dv=-500
Position2: "'halt' +Zv9O41NKW70A +Z+VifgAA 2 +a89OKltXX2JlcGNu 2" dx=-250 dy=0 dh=-500 dv=0
EndChar

StartChar: uniFF01.uv002
Encoding: 1114133 -1 119
AltUni2: 00ff01.00fe01.0
Width: 1000
GlyphClass: 5
Flags: W
LayerCount: 2
Fore
SplineSet
473 208 m 1
 452 780 l 1
 548 780 l 1
 527 208 l 1
 473 208 l 1
442 44 m 0
 442 88 466 107 500 107 c 0
 534 107 558 88 558 44 c 0
 558 0 534 -19 500 -19 c 0
 466 -19 442 0 442 44 c 0
EndSplineSet
Validated: 1
Substitution2: "'vert' Vertical Alternates +Z+VifgAA 5+Zv9O44ho" uniFE15
Position2: "'halt' +Zv9O41NKW70A +Z+VifgAA 2 +a89OKltXX2JlcGNu 2" dx=-250 dy=0 dh=-500 dv=0
EndChar

StartChar: uniFF0E.uv002
Encoding: 1114134 -1 120
AltUni2: 00ff0e.00fe01.0
Width: 1000
GlyphClass: 1
Flags: W
LayerCount: 2
Fore
SplineSet
442 380 m 0
 442 424 466 443 500 443 c 0
 534 443 558 424 558 380 c 0
 558 336 534 317 500 317 c 0
 466 317 442 336 442 380 c 0
EndSplineSet
Validated: 1
Position2: "'vhal' +Zv9O41eCdvRTSlw6W/gA +Z+VifgAA 3 +a89OKltXX2JlcGNu 2" dx=0 dy=250 dh=0 dv=-500
Position2: "'halt' +Zv9O41NKW70A +Z+VifgAA 2 +a89OKltXX2JlcGNu 2" dx=-250 dy=0 dh=-500 dv=0
EndChar

StartChar: uniFF1F.uv002
Encoding: 1114135 -1 121
AltUni2: 00ff1f.00fe01.0
Width: 1000
GlyphClass: 5
Flags: W
LayerCount: 2
Fore
SplineSet
425 233 m 2
 425 323 445 366 518 424 c 0
 601 492 633 523 633 599 c 0
 633 680 579 721 489 721 c 0
 422 721 370 702 319 678 c 1
 291 742 l 1
 351 772 414 791 494 791 c 0
 629 791 709 721 709 600 c 0
 709 498 656 451 575 386 c 0
 506 330 489 298 489 225 c 2
 489 208 l 1
 425 208 l 1
 425 233 l 2
403 44 m 0
 403 88 427 107 461 107 c 0
 495 107 519 88 519 44 c 0
 519 0 495 -19 461 -19 c 0
 427 -19 403 0 403 44 c 0
EndSplineSet
Validated: 1
Substitution2: "'vert' Vertical Alternates +Z+VifgAA 5+Zv9O44ho" uniFE16
Position2: "'halt' +Zv9O41NKW70A +Z+VifgAA 2 +a89OKltXX2JlcGNu 2" dx=-250 dy=0 dh=-500 dv=0
EndChar

StartChar: uniFF1B.uv002
Encoding: 1114136 -1 122
AltUni2: 00ff1b.00fe01.0
Width: 1000
GlyphClass: 1
Flags: HW
LayerCount: 2
Fore
SplineSet
442 608 m 0
 442 652 466 671 500 671 c 0
 534 671 558 652 558 608 c 0
 558 564 534 545 500 545 c 0
 466 545 442 564 442 608 c 0
434 38 m 1
 472 49 505 95 505 137 c 1
 463 137 442 159 442 197 c 0
 442 241 466 260 500 260 c 0
 534 260 563 241 563 186 c 0
 563 83 516 15 434 -3 c 1
 434 38 l 1
EndSplineSet
Validated: 1
Substitution2: "'ss02' +aDdfD5bG-2 +Z+VifgAA 13+Zv9O44ho" uniFF1B.uv002.ss02
Substitution2: "'vert' Vertical Alternates +Z+VifgAA 5+Zv9O44ho" uniFE14
Position2: "'halt' +Zv9O41NKW70A +Z+VifgAA 2 +a89OKltXX2JlcGNu 2" dx=-250 dy=0 dh=-500 dv=0
EndChar

StartChar: uniFF0E.vert
Encoding: 1114137 -1 123
Width: 1000
GlyphClass: 1
Flags: W
LayerCount: 2
Fore
SplineSet
742 737 m 0
 742 781 766 800 800 800 c 0
 834 800 858 781 858 737 c 0
 858 693 834 674 800 674 c 0
 766 674 742 693 742 737 c 0
EndSplineSet
Validated: 1
Position2: "'vhal' +Zv9O41eCdvRTSlw6W/gA +Z+VifgAA 3 +a89OKltXX2JlcGNu 0" dx=0 dy=0 dh=-500 dv=0
EndChar

StartChar: uniFF1A.vert.loclJAN
Encoding: 1114138 -1 124
Width: 1000
GlyphClass: 1
Flags: W
LayerCount: 2
Fore
SplineSet
665 380 m 0
 665 424 689 443 723 443 c 0
 757 443 781 424 781 380 c 0
 781 336 757 317 723 317 c 0
 689 317 665 336 665 380 c 0
219 380 m 0
 219 424 243 443 277 443 c 0
 311 443 335 424 335 380 c 0
 335 336 311 317 277 317 c 0
 243 317 219 336 219 380 c 0
EndSplineSet
Validated: 1
Position2: "'vhal' +Zv9O41eCdvRTSlw6W/gA +Z+VifgAA 3 +a89OKltXX2JlcGNu 2" dx=0 dy=250 dh=0 dv=-500
EndChar

StartChar: uniFE10.ss02
Encoding: 1114139 -1 125
Width: 1000
GlyphClass: 1
Flags: HW
LayerCount: 2
Fore
SplineSet
845 788 m 1
 825 709 790 608 756 530 c 1
 697 530 l 1
 721 620 743 721 754 800 c 1
 838 800 l 1
 845 788 l 1
EndSplineSet
Validated: 1
Position2: "'vhal' +Zv9O41eCdvRTSlw6W/gA +Z+VifgAA 3 +a89OKltXX2JlcGNu 0" dx=0 dy=0 dh=-500 dv=0
EndChar

StartChar: uniFF0C.uv002.ss02
Encoding: 1114140 -1 126
Width: 1000
GlyphClass: 1
Flags: HW
LayerCount: 2
Fore
SplineSet
545 503 m 1
 525 424 490 323 456 245 c 1
 397 245 l 1
 421 335 443 436 454 515 c 1
 538 515 l 1
 545 503 l 1
EndSplineSet
Validated: 1
Position2: "'vhal' +Zv9O41eCdvRTSlw6W/gA +Z+VifgAA 3 +a89OKltXX2JlcGNu 2" dx=0 dy=250 dh=0 dv=-500
Position2: "'halt' +Zv9O41NKW70A +Z+VifgAA 2 +a89OKltXX2JlcGNu 2" dx=-250 dy=0 dh=-500 dv=0
EndChar

StartChar: uniFF1B.uv002.ss02
Encoding: 1114141 -1 127
Width: 1000
GlyphClass: 1
Flags: HW
LayerCount: 2
Fore
SplineSet
545 266 m 1
 525 187 490 86 456 8 c 1
 397 8 l 1
 421 98 443 199 454 278 c 1
 538 278 l 1
 545 266 l 1
442 608 m 0
 442 652 466 671 500 671 c 0
 534 671 558 652 558 608 c 0
 558 564 534 545 500 545 c 0
 466 545 442 564 442 608 c 0
EndSplineSet
Validated: 1
Substitution2: "'vert' Vertical Alternates +Z+VifgAA 5+Zv9O44ho" uniFE14.ss02
Position2: "'halt' +Zv9O41NKW70A +Z+VifgAA 2 +a89OKltXX2JlcGNu 2" dx=-250 dy=0 dh=-500 dv=0
EndChar

StartChar: hyphen
Encoding: 45 45 128
Width: 500
GlyphClass: 1
Flags: W
LayerCount: 2
Fore
SplineSet
375 347 m 1
 125 347 l 1
 125 413 l 1
 375 413 l 1
 375 347 l 1
EndSplineSet
Validated: 1
Substitution2: "'fwid' +UWhbvQAA +Z+VifgAA 10+Zv9O44ho" uniFF0D
EndChar

StartChar: endash
Encoding: 8211 8211 129
Width: 500
GlyphClass: 1
Flags: W
LayerCount: 2
Fore
SplineSet
445 347 m 1
 55 347 l 1
 55 413 l 1
 445 413 l 1
 445 347 l 1
EndSplineSet
Validated: 1
Substitution2: "'fwid' +UWhbvQAA +Z+VifgAA 10+Zv9O44ho" emdash
Substitution2: "'vert' Vertical Alternates +Z+VifgAA 8+Zv9O44ho" uniFE32
EndChar

StartChar: emdash
Encoding: 8212 8212 130
Width: 1000
GlyphClass: 5
Flags: W
LayerCount: 2
Fore
SplineSet
935 347 m 1
 65 347 l 1
 65 413 l 1
 935 413 l 1
 935 347 l 1
EndSplineSet
Validated: 1
Substitution2: "'hwid' +U0pbvQAA +Z+VifgAA 11+Zv9O44ho" endash
Substitution2: "'vert' Vertical Alternates +Z+VifgAA 8+Zv9O44ho" uniFE31
EndChar

StartChar: uni2E3B
Encoding: 11835 11835 131
Width: 3000
GlyphClass: 3
Flags: W
LayerCount: 2
Fore
SplineSet
2900 347 m 1
 100 347 l 1
 100 413 l 1
 2900 413 l 1
 2900 347 l 1
EndSplineSet
Validated: 1
Substitution2: "'vert' Vertical Alternates +Z+VifgAA 8+Zv9O44ho" uni2E3B.vert
Ligature2: "'ccmp' +W1dfYn7EVAhiFlIGfsQA +Z+VifgAA 7+Zv9O44ho" emdash emdash emdash
EndChar

StartChar: uni2E3A
Encoding: 11834 11834 132
Width: 2000
GlyphClass: 3
Flags: W
LayerCount: 2
Fore
SplineSet
1900 347 m 1
 100 347 l 1
 100 413 l 1
 1900 413 l 1
 1900 347 l 1
EndSplineSet
Validated: 1
Substitution2: "'vert' Vertical Alternates +Z+VifgAA 8+Zv9O44ho" uni2E3A.vert
Ligature2: "'ccmp' +W1dfYn7EVAhiFlIGfsQA +Z+VifgAA 7+Zv9O44ho" emdash emdash
EndChar

StartChar: uniFE31
Encoding: 65073 65073 133
Width: 1000
GlyphClass: 1
Flags: W
LayerCount: 2
Fore
SplineSet
467 -55 m 1
 467 815 l 1
 533 815 l 1
 533 -55 l 1
 467 -55 l 1
EndSplineSet
Validated: 1
Substitution2: "'hwid' +U0pbvQAA +Z+VifgAA 11+Zv9O44ho" uniFE32
EndChar

StartChar: uniFE32
Encoding: 65074 65074 134
Width: 1000
VWidth: 500
GlyphClass: 1
Flags: W
LayerCount: 2
Fore
SplineSet
467 435 m 1
 467 825 l 1
 533 825 l 1
 533 435 l 1
 467 435 l 1
EndSplineSet
Validated: 1
Substitution2: "'fwid' +UWhbvQAA +Z+VifgAA 10+Zv9O44ho" uniFE31
EndChar

StartChar: uniFF0D
Encoding: 65293 65293 135
Width: 1000
GlyphClass: 1
Flags: W
LayerCount: 2
Fore
SplineSet
835 347 m 1
 165 347 l 1
 165 413 l 1
 835 413 l 1
 835 347 l 1
EndSplineSet
Validated: 1
Substitution2: "'hwid' +U0pbvQAA +Z+VifgAA 11+Zv9O44ho" hyphen
Substitution2: "'vert' Vertical Alternates +Z+VifgAA 8+Zv9O44ho" uniFF0D.vert
EndChar

StartChar: uni2E3B.vert
Encoding: 1114142 -1 136
Width: 1000
VWidth: 3000
GlyphClass: 1
Flags: W
LayerCount: 2
Fore
SplineSet
467 -2020 m 1
 467 780 l 1
 533 780 l 1
 533 -2020 l 1
 467 -2020 l 1
EndSplineSet
Validated: 1
EndChar

StartChar: uni2E3A.vert
Encoding: 1114143 -1 137
Width: 1000
VWidth: 2000
GlyphClass: 1
Flags: W
LayerCount: 2
Fore
SplineSet
467 -1020 m 1
 467 780 l 1
 533 780 l 1
 533 -1020 l 1
 467 -1020 l 1
EndSplineSet
Validated: 1
EndChar

StartChar: uniFF0D.vert
Encoding: 1114144 -1 138
Width: 1000
GlyphClass: 1
Flags: W
LayerCount: 2
Fore
SplineSet
467 45 m 1
 467 715 l 1
 533 715 l 1
 533 45 l 1
 467 45 l 1
EndSplineSet
Validated: 1
EndChar

StartChar: uniFF5F
Encoding: 65375 65375 139
Width: 1000
GlyphClass: 1
Flags: W
LayerCount: 2
Fore
SplineSet
743 380 m 0
 743 557 792 718 889 846 c 1
 963 846 l 1
 868 713 820 550 820 380 c 0
 820 210 868 47 963 -86 c 1
 889 -86 l 1
 792 42 743 203 743 380 c 0
583 380 m 0
 583 557 632 718 730 846 c 1
 804 846 l 1
 708 713 661 550 661 380 c 0
 661 210 708 47 804 -86 c 1
 730 -86 l 1
 632 42 583 203 583 380 c 0
EndSplineSet
Validated: 1
Substitution2: "'vert' Vertical Alternates +Z+VifgAA 8+Zv9O44ho" uniFF5F.vert
Position2: "'halt' +Zv9O41NKW70A +Z+VifgAA 2 +a89OKltXX2JlcGNu 0" dx=-500 dy=0 dh=-500 dv=0
EndChar

StartChar: uniFF60
Encoding: 65376 65376 140
Width: 1000
GlyphClass: 1
Flags: W
LayerCount: 2
Fore
SplineSet
257 380 m 0
 257 203 208 42 111 -86 c 1
 37 -86 l 1
 132 47 180 210 180 380 c 0
 180 550 132 713 37 846 c 1
 111 846 l 1
 208 718 257 557 257 380 c 0
417 380 m 0
 417 203 368 42 270 -86 c 1
 196 -86 l 1
 292 47 339 210 339 380 c 0
 339 550 292 713 196 846 c 1
 270 846 l 1
 368 718 417 557 417 380 c 0
EndSplineSet
Validated: 1
Substitution2: "'vert' Vertical Alternates +Z+VifgAA 8+Zv9O44ho" uniFF60.vert
Position2: "'halt' +Zv9O41NKW70A +Z+VifgAA 2 +a89OKltXX2JlcGNu 1" dx=0 dy=0 dh=-500 dv=0
EndChar

StartChar: uni3008
Encoding: 12296 12296 141
Width: 1000
GlyphClass: 1
Flags: W
LayerCount: 2
Fore
SplineSet
940 846 m 1
 706 380 l 1
 940 -86 l 1
 863 -86 l 1
 629 380 l 1
 863 846 l 1
 940 846 l 1
EndSplineSet
Validated: 1
Substitution2: "'vert' Vertical Alternates +Z+VifgAA 8+Zv9O44ho" uniFE3F
Position2: "'halt' +Zv9O41NKW70A +Z+VifgAA 2 +a89OKltXX2JlcGNu 0" dx=-500 dy=0 dh=-500 dv=0
EndChar

StartChar: uni3009
Encoding: 12297 12297 142
Width: 1000
GlyphClass: 1
Flags: W
LayerCount: 2
Fore
SplineSet
60 -86 m 1
 294 380 l 1
 60 846 l 1
 137 846 l 1
 371 380 l 1
 137 -86 l 1
 60 -86 l 1
EndSplineSet
Validated: 1
Substitution2: "'vert' Vertical Alternates +Z+VifgAA 8+Zv9O44ho" uniFE40
Position2: "'halt' +Zv9O41NKW70A +Z+VifgAA 2 +a89OKltXX2JlcGNu 1" dx=0 dy=0 dh=-500 dv=0
EndChar

StartChar: uni3010
Encoding: 12304 12304 143
Width: 1000
GlyphClass: 1
Flags: W
LayerCount: 2
Fore
SplineSet
619 -86 m 1
 619 846 l 1
 965 846 l 1
 965 826 l 1
 830 748 749 582 749 380 c 0
 749 178 830 12 965 -66 c 1
 965 -86 l 1
 619 -86 l 1
EndSplineSet
Validated: 1
Substitution2: "'vert' Vertical Alternates +Z+VifgAA 8+Zv9O44ho" uniFE3B
Position2: "'halt' +Zv9O41NKW70A +Z+VifgAA 2 +a89OKltXX2JlcGNu 0" dx=-500 dy=0 dh=-500 dv=0
EndChar

StartChar: uni3011
Encoding: 12305 12305 144
Width: 1000
GlyphClass: 1
Flags: W
LayerCount: 2
Fore
SplineSet
381 846 m 1
 381 -86 l 1
 35 -86 l 1
 35 -66 l 1
 170 12 251 178 251 380 c 0
 251 582 170 748 35 826 c 1
 35 846 l 1
 381 846 l 1
EndSplineSet
Validated: 1
Substitution2: "'vert' Vertical Alternates +Z+VifgAA 8+Zv9O44ho" uniFE3C
Position2: "'halt' +Zv9O41NKW70A +Z+VifgAA 2 +a89OKltXX2JlcGNu 1" dx=0 dy=0 dh=-500 dv=0
EndChar

StartChar: uniFF5B
Encoding: 65371 65371 145
Width: 1000
GlyphClass: 1
Flags: W
LayerCount: 2
Fore
SplineSet
965 -86 m 1
 838 -86 763 -31 763 77 c 2
 763 241 l 2
 763 319 720 348 636 348 c 1
 636 412 l 1
 720 412 763 441 763 519 c 2
 763 683 l 2
 763 791 838 846 965 846 c 1
 965 782 l 1
 882 781 839 751 839 677 c 2
 839 514 l 2
 839 441 806 396 731 382 c 1
 731 378 l 1
 806 364 839 319 839 246 c 2
 839 83 l 2
 839 9 882 -21 965 -22 c 1
 965 -86 l 1
EndSplineSet
Validated: 1
Substitution2: "'vert' Vertical Alternates +Z+VifgAA 8+Zv9O44ho" uniFE37
Position2: "'halt' +Zv9O41NKW70A +Z+VifgAA 2 +a89OKltXX2JlcGNu 0" dx=-500 dy=0 dh=-500 dv=0
EndChar

StartChar: uniFF5D
Encoding: 65373 65373 146
Width: 1000
GlyphClass: 1
Flags: W
LayerCount: 2
Fore
SplineSet
35 846 m 1
 162 846 237 791 237 683 c 2
 237 519 l 2
 237 441 280 412 364 412 c 1
 364 348 l 1
 280 348 237 319 237 241 c 2
 237 77 l 2
 237 -31 162 -86 35 -86 c 1
 35 -22 l 1
 118 -21 161 9 161 83 c 2
 161 246 l 2
 161 319 194 364 269 378 c 1
 269 382 l 1
 194 396 161 441 161 514 c 2
 161 677 l 2
 161 751 118 781 35 782 c 1
 35 846 l 1
EndSplineSet
Validated: 1
Substitution2: "'vert' Vertical Alternates +Z+VifgAA 8+Zv9O44ho" uniFE38
Position2: "'halt' +Zv9O41NKW70A +Z+VifgAA 2 +a89OKltXX2JlcGNu 1" dx=0 dy=0 dh=-500 dv=0
EndChar

StartChar: uni300C
Encoding: 12300 12300 147
Width: 1000
GlyphClass: 1
Flags: W
LayerCount: 2
Fore
SplineSet
653 844 m 1
 965 844 l 1
 965 780 l 1
 729 780 l 1
 729 193 l 1
 653 193 l 1
 653 844 l 1
EndSplineSet
Validated: 1
Substitution2: "'vert' Vertical Alternates +Z+VifgAA 8+Zv9O44ho" uniFE41
Position2: "'halt' +Zv9O41NKW70A +Z+VifgAA 2 +a89OKltXX2JlcGNu 0" dx=-500 dy=0 dh=-500 dv=0
EndChar

StartChar: uni300D
Encoding: 12301 12301 148
Width: 1000
GlyphClass: 1
Flags: W
LayerCount: 2
Fore
SplineSet
347 -84 m 1
 35 -84 l 1
 35 -20 l 1
 271 -20 l 1
 271 567 l 1
 347 567 l 1
 347 -84 l 1
EndSplineSet
Validated: 1
Substitution2: "'vert' Vertical Alternates +Z+VifgAA 8+Zv9O44ho" uniFE42
Position2: "'halt' +Zv9O41NKW70A +Z+VifgAA 2 +a89OKltXX2JlcGNu 1" dx=0 dy=0 dh=-500 dv=0
EndChar

StartChar: uni300A
Encoding: 12298 12298 149
Width: 1000
GlyphClass: 1
Flags: W
LayerCount: 2
Fore
SplineSet
963 846 m 1
 729 380 l 1
 963 -86 l 1
 896 -86 l 1
 662 380 l 1
 896 846 l 1
 963 846 l 1
814 846 m 1
 580 380 l 1
 814 -86 l 1
 746 -86 l 1
 512 380 l 1
 746 846 l 1
 814 846 l 1
EndSplineSet
Validated: 1
Substitution2: "'vert' Vertical Alternates +Z+VifgAA 8+Zv9O44ho" uniFE3D
Position2: "'halt' +Zv9O41NKW70A +Z+VifgAA 2 +a89OKltXX2JlcGNu 0" dx=-500 dy=0 dh=-500 dv=0
EndChar

StartChar: uni300B
Encoding: 12299 12299 150
Width: 1000
GlyphClass: 1
Flags: W
LayerCount: 2
Fore
SplineSet
37 -86 m 1
 271 380 l 1
 37 846 l 1
 104 846 l 1
 338 380 l 1
 104 -86 l 1
 37 -86 l 1
186 -86 m 1
 420 380 l 1
 186 846 l 1
 254 846 l 1
 488 380 l 1
 254 -86 l 1
 186 -86 l 1
EndSplineSet
Validated: 1
Substitution2: "'vert' Vertical Alternates +Z+VifgAA 8+Zv9O44ho" uniFE3E
Position2: "'halt' +Zv9O41NKW70A +Z+VifgAA 2 +a89OKltXX2JlcGNu 1" dx=0 dy=0 dh=-500 dv=0
EndChar

StartChar: uni3014
Encoding: 12308 12308 151
Width: 1000
GlyphClass: 1
Flags: W
LayerCount: 2
Fore
SplineSet
694 52 m 1
 694 708 l 1
 922 856 l 1
 962 798 l 1
 770 677 l 1
 770 83 l 1
 962 -38 l 1
 922 -96 l 1
 694 52 l 1
EndSplineSet
Validated: 1
Substitution2: "'vert' Vertical Alternates +Z+VifgAA 8+Zv9O44ho" uniFE39
Position2: "'halt' +Zv9O41NKW70A +Z+VifgAA 2 +a89OKltXX2JlcGNu 0" dx=-500 dy=0 dh=-500 dv=0
EndChar

StartChar: uni3015
Encoding: 12309 12309 152
Width: 1000
GlyphClass: 1
Flags: W
LayerCount: 2
Fore
SplineSet
306 708 m 1
 306 52 l 1
 78 -96 l 1
 38 -38 l 1
 230 83 l 1
 230 677 l 1
 38 798 l 1
 78 856 l 1
 306 708 l 1
EndSplineSet
Validated: 1
Substitution2: "'vert' Vertical Alternates +Z+VifgAA 8+Zv9O44ho" uniFE3A
Position2: "'halt' +Zv9O41NKW70A +Z+VifgAA 2 +a89OKltXX2JlcGNu 1" dx=0 dy=0 dh=-500 dv=0
EndChar

StartChar: uni300E
Encoding: 12302 12302 153
Width: 1000
GlyphClass: 1
Flags: W
LayerCount: 2
Fore
SplineSet
639 804 m 1
 639 233 l 1
 723 233 l 1
 723 735 l 1
 924 735 l 1
 924 804 l 1
 639 804 l 1
599 844 m 1
 964 844 l 1
 964 695 l 1
 763 695 l 1
 763 193 l 1
 599 193 l 1
 599 844 l 1
EndSplineSet
Validated: 1
Substitution2: "'vert' Vertical Alternates +Z+VifgAA 8+Zv9O44ho" uniFE43
Position2: "'halt' +Zv9O41NKW70A +Z+VifgAA 2 +a89OKltXX2JlcGNu 0" dx=-500 dy=0 dh=-500 dv=0
EndChar

StartChar: uni300F
Encoding: 12303 12303 154
Width: 1000
GlyphClass: 1
Flags: W
LayerCount: 2
Fore
SplineSet
361 -44 m 1
 361 527 l 1
 277 527 l 1
 277 25 l 1
 76 25 l 1
 76 -44 l 1
 361 -44 l 1
401 -84 m 1
 36 -84 l 1
 36 65 l 1
 237 65 l 1
 237 567 l 1
 401 567 l 1
 401 -84 l 1
EndSplineSet
Validated: 1
Substitution2: "'vert' Vertical Alternates +Z+VifgAA 8+Zv9O44ho" uniFE44
Position2: "'halt' +Zv9O41NKW70A +Z+VifgAA 2 +a89OKltXX2JlcGNu 1" dx=0 dy=0 dh=-500 dv=0
EndChar

StartChar: uni3016
Encoding: 12310 12310 155
Width: 1000
GlyphClass: 1
Flags: W
LayerCount: 2
Fore
SplineSet
659 -46 m 1
 879 -46 l 1
 771 49 709 203 709 380 c 0
 709 562 775 719 875 806 c 1
 659 806 l 1
 659 -46 l 1
619 -86 m 1
 619 846 l 1
 965 846 l 1
 965 819 l 1
 830 741 749 578 749 380 c 0
 749 182 830 19 965 -59 c 1
 965 -86 l 1
 619 -86 l 1
EndSplineSet
Validated: 1
Substitution2: "'vert' Vertical Alternates +Z+VifgAA 8+Zv9O44ho" uniFE17
Position2: "'halt' +Zv9O41NKW70A +Z+VifgAA 2 +a89OKltXX2JlcGNu 0" dx=-500 dy=0 dh=-500 dv=0
EndChar

StartChar: uni3017
Encoding: 12311 12311 156
Width: 1000
GlyphClass: 1
Flags: W
LayerCount: 2
Fore
SplineSet
341 806 m 1
 121 806 l 1
 229 711 291 557 291 380 c 0
 291 198 225 41 125 -46 c 1
 341 -46 l 1
 341 806 l 1
381 846 m 1
 381 -86 l 1
 35 -86 l 1
 35 -59 l 1
 170 19 251 182 251 380 c 0
 251 578 170 741 35 819 c 1
 35 846 l 1
 381 846 l 1
EndSplineSet
Validated: 1
Substitution2: "'vert' Vertical Alternates +Z+VifgAA 8+Zv9O44ho" uniFE18
Position2: "'halt' +Zv9O41NKW70A +Z+VifgAA 2 +a89OKltXX2JlcGNu 1" dx=0 dy=0 dh=-500 dv=0
EndChar

StartChar: uni301A
Encoding: 12314 12314 157
Width: 1000
GlyphClass: 1
Flags: W
LayerCount: 2
Fore
SplineSet
621 -86 m 1
 621 846 l 1
 965 846 l 1
 965 806 l 1
 784 806 l 1
 784 -46 l 1
 965 -46 l 1
 965 -86 l 1
 621 -86 l 1
661 -46 m 1
 744 -46 l 1
 744 806 l 1
 661 806 l 1
 661 -46 l 1
EndSplineSet
Validated: 1
Substitution2: "'vert' Vertical Alternates +Z+VifgAA 8+Zv9O44ho" uni301A.vert
Position2: "'halt' +Zv9O41NKW70A +Z+VifgAA 2 +a89OKltXX2JlcGNu 0" dx=-500 dy=0 dh=-500 dv=0
EndChar

StartChar: uni301B
Encoding: 12315 12315 158
Width: 1000
GlyphClass: 1
Flags: W
LayerCount: 2
Fore
SplineSet
379 846 m 1
 379 -86 l 1
 35 -86 l 1
 35 -46 l 1
 216 -46 l 1
 216 806 l 1
 35 806 l 1
 35 846 l 1
 379 846 l 1
256 -46 m 1
 339 -46 l 1
 339 806 l 1
 256 806 l 1
 256 -46 l 1
EndSplineSet
Validated: 1
Substitution2: "'vert' Vertical Alternates +Z+VifgAA 8+Zv9O44ho" uni301B.vert
Position2: "'halt' +Zv9O41NKW70A +Z+VifgAA 2 +a89OKltXX2JlcGNu 1" dx=0 dy=0 dh=-500 dv=0
EndChar

StartChar: uni3018
Encoding: 12312 12312 159
Width: 1000
GlyphClass: 1
Flags: W
LayerCount: 2
Fore
SplineSet
672 82 m 1
 887 -52 l 1
 929 11 l 1
 755 123 l 1
 755 637 l 1
 929 749 l 1
 887 812 l 1
 672 678 l 1
 672 82 l 1
632 60 m 1
 632 700 l 1
 899 867 l 1
 985 737 l 1
 795 615 l 1
 795 145 l 1
 985 23 l 1
 899 -107 l 1
 632 60 l 1
EndSplineSet
Validated: 1
Substitution2: "'vert' Vertical Alternates +Z+VifgAA 8+Zv9O44ho" uni3018.vert
Position2: "'halt' +Zv9O41NKW70A +Z+VifgAA 2 +a89OKltXX2JlcGNu 0" dx=-500 dy=0 dh=-500 dv=0
EndChar

StartChar: uni3019
Encoding: 12313 12313 160
Width: 1000
GlyphClass: 1
Flags: W
LayerCount: 2
Fore
SplineSet
328 678 m 1
 113 813 l 1
 71 749 l 1
 245 637 l 1
 245 123 l 1
 71 12 l 1
 113 -52 l 1
 328 82 l 1
 328 678 l 1
368 700 m 1
 368 60 l 1
 101 -107 l 1
 15 23 l 1
 205 145 l 1
 205 615 l 1
 15 737 l 1
 101 867 l 1
 368 700 l 1
EndSplineSet
Validated: 1
Substitution2: "'vert' Vertical Alternates +Z+VifgAA 8+Zv9O44ho" uni3019.vert
Position2: "'halt' +Zv9O41NKW70A +Z+VifgAA 2 +a89OKltXX2JlcGNu 1" dx=0 dy=0 dh=-500 dv=0
EndChar

StartChar: uniFE3F
Encoding: 65087 65087 161
Width: 1000
GlyphClass: 1
Flags: W
LayerCount: 2
Fore
SplineSet
966 -60 m 1
 500 174 l 1
 34 -60 l 1
 34 17 l 1
 500 251 l 1
 966 17 l 1
 966 -60 l 1
EndSplineSet
Validated: 1
Position2: "'vhal' +Zv9O41eCdvRTSlw6W/gA +Z+VifgAA 3 +a89OKltXX2JlcGNu 1" dx=0 dy=500 dh=0 dv=-500
EndChar

StartChar: uniFE40
Encoding: 65088 65088 162
Width: 1000
GlyphClass: 1
Flags: W
LayerCount: 2
Fore
SplineSet
34 820 m 1
 500 586 l 1
 966 820 l 1
 966 743 l 1
 500 509 l 1
 34 743 l 1
 34 820 l 1
EndSplineSet
Validated: 1
Position2: "'vhal' +Zv9O41eCdvRTSlw6W/gA +Z+VifgAA 3 +a89OKltXX2JlcGNu 0" dx=0 dy=0 dh=-500 dv=0
EndChar

StartChar: uniFE3B
Encoding: 65083 65083 163
Width: 1000
GlyphClass: 1
Flags: W
LayerCount: 2
Fore
SplineSet
34 261 m 1
 966 261 l 1
 966 -85 l 1
 946 -85 l 1
 868 50 702 131 500 131 c 0
 298 131 132 50 54 -85 c 1
 34 -85 l 1
 34 261 l 1
EndSplineSet
Validated: 1
Position2: "'vhal' +Zv9O41eCdvRTSlw6W/gA +Z+VifgAA 3 +a89OKltXX2JlcGNu 1" dx=0 dy=500 dh=0 dv=-500
EndChar

StartChar: uniFE3C
Encoding: 65084 65084 164
Width: 1000
GlyphClass: 1
Flags: W
LayerCount: 2
Fore
SplineSet
966 499 m 1
 34 499 l 1
 34 845 l 1
 54 845 l 1
 132 710 298 629 500 629 c 0
 702 629 868 710 946 845 c 1
 966 845 l 1
 966 499 l 1
EndSplineSet
Validated: 1
Position2: "'vhal' +Zv9O41eCdvRTSlw6W/gA +Z+VifgAA 3 +a89OKltXX2JlcGNu 0" dx=0 dy=0 dh=-500 dv=0
EndChar

StartChar: uniFF3B
Encoding: 65339 65339 165
Width: 1000
GlyphClass: 1
Flags: W
LayerCount: 2
Fore
SplineSet
709 -86 m 1
 709 846 l 1
 965 846 l 1
 965 782 l 1
 784 782 l 1
 784 -22 l 1
 965 -22 l 1
 965 -86 l 1
 709 -86 l 1
EndSplineSet
Validated: 1
Substitution2: "'vert' Vertical Alternates +Z+VifgAA 8+Zv9O44ho" uniFE47
Position2: "'halt' +Zv9O41NKW70A +Z+VifgAA 2 +a89OKltXX2JlcGNu 0" dx=-500 dy=0 dh=-500 dv=0
EndChar

StartChar: uniFF3D
Encoding: 65341 65341 166
Width: 1000
GlyphClass: 1
Flags: W
LayerCount: 2
Fore
SplineSet
291 846 m 1
 291 -86 l 1
 35 -86 l 1
 35 -22 l 1
 216 -22 l 1
 216 782 l 1
 35 782 l 1
 35 846 l 1
 291 846 l 1
EndSplineSet
Validated: 1
Substitution2: "'vert' Vertical Alternates +Z+VifgAA 8+Zv9O44ho" uniFE48
Position2: "'halt' +Zv9O41NKW70A +Z+VifgAA 2 +a89OKltXX2JlcGNu 1" dx=0 dy=0 dh=-500 dv=0
EndChar

StartChar: uniFE41
Encoding: 65089 65089 167
Width: 1000
GlyphClass: 1
Flags: W
LayerCount: 2
Fore
SplineSet
964 227 m 1
 964 -85 l 1
 900 -85 l 1
 900 151 l 1
 313 151 l 1
 313 227 l 1
 964 227 l 1
EndSplineSet
Validated: 1
Position2: "'vhal' +Zv9O41eCdvRTSlw6W/gA +Z+VifgAA 3 +a89OKltXX2JlcGNu 1" dx=0 dy=500 dh=0 dv=-500
EndChar

StartChar: uniFE42
Encoding: 65090 65090 168
Width: 1000
GlyphClass: 1
Flags: W
LayerCount: 2
Fore
SplineSet
36 533 m 1
 36 845 l 1
 100 845 l 1
 100 609 l 1
 687 609 l 1
 687 533 l 1
 36 533 l 1
EndSplineSet
Validated: 1
Position2: "'vhal' +Zv9O41eCdvRTSlw6W/gA +Z+VifgAA 3 +a89OKltXX2JlcGNu 0" dx=0 dy=0 dh=-500 dv=0
EndChar

StartChar: uniFE3D
Encoding: 65085 65085 169
Width: 1000
GlyphClass: 1
Flags: W
LayerCount: 2
Fore
SplineSet
966 -83 m 1
 500 151 l 1
 34 -83 l 1
 34 -16 l 1
 500 218 l 1
 966 -16 l 1
 966 -83 l 1
966 66 m 1
 500 300 l 1
 34 66 l 1
 34 134 l 1
 500 368 l 1
 966 134 l 1
 966 66 l 1
EndSplineSet
Validated: 1
Position2: "'vhal' +Zv9O41eCdvRTSlw6W/gA +Z+VifgAA 3 +a89OKltXX2JlcGNu 1" dx=0 dy=500 dh=0 dv=-500
EndChar

StartChar: uniFE3E
Encoding: 65086 65086 170
Width: 1000
GlyphClass: 1
Flags: W
LayerCount: 2
Fore
SplineSet
34 843 m 1
 500 609 l 1
 966 843 l 1
 966 776 l 1
 500 542 l 1
 34 776 l 1
 34 843 l 1
34 694 m 1
 500 460 l 1
 966 694 l 1
 966 626 l 1
 500 392 l 1
 34 626 l 1
 34 694 l 1
EndSplineSet
Validated: 1
Position2: "'vhal' +Zv9O41eCdvRTSlw6W/gA +Z+VifgAA 3 +a89OKltXX2JlcGNu 0" dx=0 dy=0 dh=-500 dv=0
EndChar

StartChar: uniFF08
Encoding: 65288 65288 171
Width: 1000
GlyphClass: 1
Flags: W
LayerCount: 2
Fore
SplineSet
709 380 m 0
 709 560 760 720 865 846 c 1
 940 846 l 1
 838 714 786 552 786 380 c 0
 786 208 839 46 940 -86 c 1
 865 -86 l 1
 760 40 709 200 709 380 c 0
EndSplineSet
Validated: 1
Substitution2: "'vert' Vertical Alternates +Z+VifgAA 8+Zv9O44ho" uniFE35
Position2: "'halt' +Zv9O41NKW70A +Z+VifgAA 2 +a89OKltXX2JlcGNu 0" dx=-500 dy=0 dh=-500 dv=0
EndChar

StartChar: uniFF09
Encoding: 65289 65289 172
Width: 1000
GlyphClass: 1
Flags: W
LayerCount: 2
Fore
SplineSet
291 380 m 0
 291 200 240 40 135 -86 c 1
 60 -86 l 1
 162 46 214 208 214 380 c 0
 214 552 161 714 60 846 c 1
 135 846 l 1
 240 720 291 560 291 380 c 0
EndSplineSet
Validated: 1
Substitution2: "'vert' Vertical Alternates +Z+VifgAA 8+Zv9O44ho" uniFE36
Position2: "'halt' +Zv9O41NKW70A +Z+VifgAA 2 +a89OKltXX2JlcGNu 1" dx=0 dy=0 dh=-500 dv=0
EndChar

StartChar: uniFE39
Encoding: 65081 65081 173
Width: 1000
GlyphClass: 1
Flags: W
LayerCount: 2
Fore
SplineSet
172 186 m 1
 828 186 l 1
 976 -42 l 1
 918 -82 l 1
 797 110 l 1
 203 110 l 1
 82 -82 l 1
 24 -42 l 1
 172 186 l 1
EndSplineSet
Validated: 1
Position2: "'vhal' +Zv9O41eCdvRTSlw6W/gA +Z+VifgAA 3 +a89OKltXX2JlcGNu 1" dx=0 dy=500 dh=0 dv=-500
EndChar

StartChar: uniFE3A
Encoding: 65082 65082 174
Width: 1000
GlyphClass: 1
Flags: W
LayerCount: 2
Fore
SplineSet
828 574 m 1
 172 574 l 1
 24 802 l 1
 82 842 l 1
 203 650 l 1
 797 650 l 1
 918 842 l 1
 976 802 l 1
 828 574 l 1
EndSplineSet
Validated: 1
Position2: "'vhal' +Zv9O41eCdvRTSlw6W/gA +Z+VifgAA 3 +a89OKltXX2JlcGNu 0" dx=0 dy=0 dh=-500 dv=0
EndChar

StartChar: uniFF5F.vert
Encoding: 1114145 -1 175
Width: 1000
GlyphClass: 1
Flags: W
LayerCount: 2
Fore
SplineSet
500 137 m 0
 677 137 838 88 966 -9 c 1
 966 -83 l 1
 833 12 670 60 500 60 c 0
 330 60 167 12 34 -83 c 1
 34 -9 l 1
 162 88 323 137 500 137 c 0
500 297 m 0
 677 297 838 248 966 150 c 1
 966 76 l 1
 833 172 670 219 500 219 c 0
 330 219 167 172 34 76 c 1
 34 150 l 1
 162 248 323 297 500 297 c 0
EndSplineSet
Validated: 1
Position2: "'vhal' +Zv9O41eCdvRTSlw6W/gA +Z+VifgAA 3 +a89OKltXX2JlcGNu 1" dx=0 dy=500 dh=0 dv=-500
EndChar

StartChar: uniFF60.vert
Encoding: 1114146 -1 176
Width: 1000
GlyphClass: 1
Flags: W
LayerCount: 2
Fore
SplineSet
500 623 m 0
 323 623 162 672 34 769 c 1
 34 843 l 1
 167 748 330 700 500 700 c 0
 670 700 833 748 966 843 c 1
 966 769 l 1
 838 672 677 623 500 623 c 0
500 463 m 0
 323 463 162 512 34 610 c 1
 34 684 l 1
 167 588 330 541 500 541 c 0
 670 541 833 588 966 684 c 1
 966 610 l 1
 838 512 677 463 500 463 c 0
EndSplineSet
Validated: 1
Position2: "'vhal' +Zv9O41eCdvRTSlw6W/gA +Z+VifgAA 3 +a89OKltXX2JlcGNu 0" dx=0 dy=0 dh=-500 dv=0
EndChar

StartChar: uni301A.vert
Encoding: 1114147 -1 177
Width: 1000
GlyphClass: 1
Flags: W
LayerCount: 2
Fore
SplineSet
34 259 m 1
 966 259 l 1
 966 -85 l 1
 926 -85 l 1
 926 96 l 1
 74 96 l 1
 74 -85 l 1
 34 -85 l 1
 34 259 l 1
74 136 m 1
 926 136 l 1
 926 219 l 1
 74 219 l 1
 74 136 l 1
EndSplineSet
Validated: 1
Position2: "'vhal' +Zv9O41eCdvRTSlw6W/gA +Z+VifgAA 3 +a89OKltXX2JlcGNu 1" dx=0 dy=500 dh=0 dv=-500
EndChar

StartChar: uni301B.vert
Encoding: 1114148 -1 178
Width: 1000
GlyphClass: 1
Flags: W
LayerCount: 2
Fore
SplineSet
966 501 m 1
 34 501 l 1
 34 845 l 1
 74 845 l 1
 74 664 l 1
 926 664 l 1
 926 845 l 1
 966 845 l 1
 966 501 l 1
74 541 m 1
 926 541 l 1
 926 624 l 1
 74 624 l 1
 74 541 l 1
EndSplineSet
Validated: 1
Position2: "'vhal' +Zv9O41eCdvRTSlw6W/gA +Z+VifgAA 3 +a89OKltXX2JlcGNu 0" dx=0 dy=0 dh=-500 dv=0
EndChar

StartChar: uni3018.vert
Encoding: 1114149 -1 179
Width: 1000
GlyphClass: 1
Flags: W
LayerCount: 2
Fore
SplineSet
202 208 m 1
 68 -7 l 1
 131 -49 l 1
 243 125 l 1
 757 125 l 1
 869 -49 l 1
 932 -7 l 1
 798 208 l 1
 202 208 l 1
180 248 m 1
 820 248 l 1
 987 -19 l 1
 857 -105 l 1
 735 85 l 1
 265 85 l 1
 143 -105 l 1
 13 -19 l 1
 180 248 l 1
EndSplineSet
Validated: 1
Position2: "'vhal' +Zv9O41eCdvRTSlw6W/gA +Z+VifgAA 3 +a89OKltXX2JlcGNu 1" dx=0 dy=500 dh=0 dv=-500
EndChar

StartChar: uni3019.vert
Encoding: 1114150 -1 180
Width: 1000
GlyphClass: 1
Flags: W
LayerCount: 2
Fore
SplineSet
798 552 m 1
 933 767 l 1
 869 809 l 1
 757 635 l 1
 243 635 l 1
 132 809 l 1
 68 767 l 1
 202 552 l 1
 798 552 l 1
820 512 m 1
 180 512 l 1
 13 779 l 1
 143 865 l 1
 265 675 l 1
 735 675 l 1
 857 865 l 1
 987 779 l 1
 820 512 l 1
EndSplineSet
Validated: 1
Position2: "'vhal' +Zv9O41eCdvRTSlw6W/gA +Z+VifgAA 3 +a89OKltXX2JlcGNu 0" dx=0 dy=0 dh=-500 dv=0
EndChar

StartChar: uniFE43
Encoding: 65091 65091 181
Width: 1000
GlyphClass: 1
Flags: W
LayerCount: 2
Fore
SplineSet
924 241 m 1
 353 241 l 1
 353 157 l 1
 855 157 l 1
 855 -44 l 1
 924 -44 l 1
 924 241 l 1
964 281 m 1
 964 -84 l 1
 815 -84 l 1
 815 117 l 1
 313 117 l 1
 313 281 l 1
 964 281 l 1
EndSplineSet
Validated: 1
Position2: "'vhal' +Zv9O41eCdvRTSlw6W/gA +Z+VifgAA 3 +a89OKltXX2JlcGNu 1" dx=0 dy=500 dh=0 dv=-500
EndChar

StartChar: uniFE44
Encoding: 65092 65092 182
Width: 1000
GlyphClass: 1
Flags: W
LayerCount: 2
Fore
SplineSet
76 519 m 1
 647 519 l 1
 647 603 l 1
 145 603 l 1
 145 804 l 1
 76 804 l 1
 76 519 l 1
36 479 m 1
 36 844 l 1
 185 844 l 1
 185 643 l 1
 687 643 l 1
 687 479 l 1
 36 479 l 1
EndSplineSet
Validated: 1
Position2: "'vhal' +Zv9O41eCdvRTSlw6W/gA +Z+VifgAA 3 +a89OKltXX2JlcGNu 0" dx=0 dy=0 dh=-500 dv=0
EndChar

StartChar: uniFE17
Encoding: 65047 65047 183
Width: 1000
GlyphClass: 1
Flags: W
LayerCount: 2
Fore
SplineSet
74 221 m 1
 74 1 l 1
 169 109 323 171 500 171 c 0
 682 171 839 105 926 5 c 1
 926 221 l 1
 74 221 l 1
34 261 m 1
 966 261 l 1
 966 -85 l 1
 939 -85 l 1
 861 50 698 131 500 131 c 0
 302 131 139 50 61 -85 c 1
 34 -85 l 1
 34 261 l 1
EndSplineSet
Validated: 1
Position2: "'vhal' +Zv9O41eCdvRTSlw6W/gA +Z+VifgAA 3 +a89OKltXX2JlcGNu 1" dx=0 dy=500 dh=0 dv=-500
EndChar

StartChar: uniFE18
Encoding: 65048 65048 184
Width: 1000
GlyphClass: 1
Flags: W
LayerCount: 2
Fore
SplineSet
926 539 m 1
 926 759 l 1
 831 651 677 589 500 589 c 0
 318 589 161 655 74 755 c 1
 74 539 l 1
 926 539 l 1
966 499 m 1
 34 499 l 1
 34 845 l 1
 61 845 l 1
 139 710 302 629 500 629 c 0
 698 629 861 710 939 845 c 1
 966 845 l 1
 966 499 l 1
EndSplineSet
Validated: 1
Position2: "'vhal' +Zv9O41eCdvRTSlw6W/gA +Z+VifgAA 3 +a89OKltXX2JlcGNu 0" dx=0 dy=0 dh=-500 dv=0
EndChar

StartChar: uniFE37
Encoding: 65079 65079 185
Width: 1000
GlyphClass: 1
Flags: W
LayerCount: 2
Fore
SplineSet
34 -85 m 1
 34 42 89 117 197 117 c 2
 361 117 l 2
 439 117 468 160 468 244 c 1
 532 244 l 1
 532 160 561 117 639 117 c 2
 803 117 l 2
 911 117 966 42 966 -85 c 1
 902 -85 l 1
 901 -2 871 41 797 41 c 2
 634 41 l 2
 561 41 516 74 502 149 c 1
 498 149 l 1
 484 74 439 41 366 41 c 2
 203 41 l 2
 129 41 99 -2 98 -85 c 1
 34 -85 l 1
EndSplineSet
Validated: 1
Position2: "'vhal' +Zv9O41eCdvRTSlw6W/gA +Z+VifgAA 3 +a89OKltXX2JlcGNu 1" dx=0 dy=500 dh=0 dv=-500
EndChar

StartChar: uniFE38
Encoding: 65080 65080 186
Width: 1000
GlyphClass: 1
Flags: W
LayerCount: 2
Fore
SplineSet
966 845 m 1
 966 718 911 643 803 643 c 2
 639 643 l 2
 561 643 532 600 532 516 c 1
 468 516 l 1
 468 600 439 643 361 643 c 2
 197 643 l 2
 89 643 34 718 34 845 c 1
 98 845 l 1
 99 762 129 719 203 719 c 2
 366 719 l 2
 439 719 484 686 498 611 c 1
 502 611 l 1
 516 686 561 719 634 719 c 2
 797 719 l 2
 871 719 901 762 902 845 c 1
 966 845 l 1
EndSplineSet
Validated: 1
Position2: "'vhal' +Zv9O41eCdvRTSlw6W/gA +Z+VifgAA 3 +a89OKltXX2JlcGNu 0" dx=0 dy=0 dh=-500 dv=0
EndChar

StartChar: uniFE47
Encoding: 65095 65095 187
Width: 1000
GlyphClass: 1
Flags: W
LayerCount: 2
Fore
SplineSet
34 171 m 1
 966 171 l 1
 966 -85 l 1
 902 -85 l 1
 902 96 l 1
 98 96 l 1
 98 -85 l 1
 34 -85 l 1
 34 171 l 1
EndSplineSet
Validated: 1
Position2: "'vhal' +Zv9O41eCdvRTSlw6W/gA +Z+VifgAA 3 +a89OKltXX2JlcGNu 1" dx=0 dy=500 dh=0 dv=-500
EndChar

StartChar: uniFE48
Encoding: 65096 65096 188
Width: 1000
GlyphClass: 1
Flags: W
LayerCount: 2
Fore
SplineSet
966 589 m 1
 34 589 l 1
 34 845 l 1
 98 845 l 1
 98 664 l 1
 902 664 l 1
 902 845 l 1
 966 845 l 1
 966 589 l 1
EndSplineSet
Validated: 1
Position2: "'vhal' +Zv9O41eCdvRTSlw6W/gA +Z+VifgAA 3 +a89OKltXX2JlcGNu 0" dx=0 dy=0 dh=-500 dv=0
EndChar

StartChar: uniFE35
Encoding: 65077 65077 189
Width: 1000
GlyphClass: 1
Flags: W
LayerCount: 2
Fore
SplineSet
500 171 m 0
 680 171 840 120 966 15 c 1
 966 -60 l 1
 834 42 672 94 500 94 c 0
 328 94 166 41 34 -60 c 1
 34 15 l 1
 160 120 320 171 500 171 c 0
EndSplineSet
Validated: 1
Position2: "'vhal' +Zv9O41eCdvRTSlw6W/gA +Z+VifgAA 3 +a89OKltXX2JlcGNu 1" dx=0 dy=500 dh=0 dv=-500
EndChar

StartChar: uniFE36
Encoding: 65078 65078 190
Width: 1000
GlyphClass: 1
Flags: W
LayerCount: 2
Fore
SplineSet
500 589 m 0
 320 589 160 640 34 745 c 1
 34 820 l 1
 166 718 328 666 500 666 c 0
 672 666 834 719 966 820 c 1
 966 745 l 1
 840 640 680 589 500 589 c 0
EndSplineSet
Validated: 1
Position2: "'vhal' +Zv9O41eCdvRTSlw6W/gA +Z+VifgAA 3 +a89OKltXX2JlcGNu 0" dx=0 dy=0 dh=-500 dv=0
EndChar

StartChar: quotedblleft
Encoding: 8220 8220 191
Width: 1000
GlyphClass: 1
Flags: HW
LayerCount: 2
Fore
SplineSet
791 788 m 1
 753 785 720 753 720 719 c 1
 762 719 783 697 783 659 c 0
 783 615 759 596 725 596 c 0
 691 596 662 615 662 670 c 0
 662 760 709 817 791 830 c 1
 791 788 l 1
964 788 m 1
 926 785 893 753 893 719 c 1
 935 719 956 697 956 659 c 0
 956 615 932 596 898 596 c 0
 864 596 835 615 835 670 c 0
 835 760 882 817 964 830 c 1
 964 788 l 1
EndSplineSet
Validated: 1
Substitution2: "'ss02' +aDdfD5bG-2 +Z+VifgAA 13+Zv9O44ho" quotedblleft.ss02
Substitution2: "'pwid' +a9RPi1u9XqYA +Z+VifgAA 12+Zv9O44ho" quotedblleft.pwid
Substitution2: "'hwid' +U0pbvQAA +Z+VifgAA 11+Zv9O44ho" quotedblleft.half
Substitution2: "'vert' Vertical Alternates +Z+VifgAA 6+Zv9O44ho" uni301D.vert
Substitution2: "'vert' Vertical Alternates +Z+VifgAA 3+Zv9O44ho" uniFE43
Substitution2: "'locl' +ZyxXMF9iXw8A +Z+VifgAA 0+Zv9O44ho" quotedblleft.pwid
Position2: "'halt' +Zv9O41NKW70A +Z+VifgAA 2 +a89OKltXX2JlcGNu 0" dx=-500 dy=0 dh=-500 dv=0
EndChar

StartChar: quotedblright
Encoding: 8221 8221 192
Width: 1000
GlyphClass: 1
Flags: HW
LayerCount: 2
Fore
SplineSet
209 638 m 1
 247 641 280 673 280 707 c 1
 238 707 217 729 217 767 c 0
 217 811 241 830 275 830 c 0
 309 830 338 811 338 756 c 0
 338 666 291 609 209 596 c 1
 209 638 l 1
36 638 m 1
 74 641 107 673 107 707 c 1
 65 707 44 729 44 767 c 0
 44 811 68 830 102 830 c 0
 136 830 165 811 165 756 c 0
 165 666 118 609 36 596 c 1
 36 638 l 1
EndSplineSet
Validated: 1
Substitution2: "'ss02' +aDdfD5bG-2 +Z+VifgAA 13+Zv9O44ho" quotedblright.ss02
Substitution2: "'pwid' +a9RPi1u9XqYA +Z+VifgAA 12+Zv9O44ho" quotedblright.pwid
Substitution2: "'hwid' +U0pbvQAA +Z+VifgAA 11+Zv9O44ho" quotedblright.half
Substitution2: "'vert' Vertical Alternates +Z+VifgAA 6+Zv9O44ho" uni301E.vert
Substitution2: "'vert' Vertical Alternates +Z+VifgAA 3+Zv9O44ho" uniFE44
Substitution2: "'locl' +ZyxXMF9iXw8A +Z+VifgAA 0+Zv9O44ho" quotedblright.pwid
Position2: "'halt' +Zv9O41NKW70A +Z+VifgAA 2 +a89OKltXX2JlcGNu 1" dx=0 dy=0 dh=-500 dv=0
EndChar

StartChar: quoteleft
Encoding: 8216 8216 193
Width: 1000
GlyphClass: 1
Flags: HW
LayerCount: 2
Fore
SplineSet
964 788 m 1
 926 785 893 753 893 719 c 1
 935 719 956 697 956 659 c 0
 956 615 932 596 898 596 c 0
 864 596 835 615 835 670 c 0
 835 760 882 817 964 830 c 1
 964 788 l 1
EndSplineSet
Validated: 1
Substitution2: "'ss02' +aDdfD5bG-2 +Z+VifgAA 13+Zv9O44ho" quoteleft.ss02
Substitution2: "'pwid' +a9RPi1u9XqYA +Z+VifgAA 12+Zv9O44ho" quoteleft.pwid
Substitution2: "'hwid' +U0pbvQAA +Z+VifgAA 11+Zv9O44ho" quoteleft.half
Substitution2: "'vert' Vertical Alternates +Z+VifgAA 6+Zv9O44ho" quoteleft.vert
Substitution2: "'vert' Vertical Alternates +Z+VifgAA 3+Zv9O44ho" uniFE41
Substitution2: "'locl' +ZyxXMF9iXw8A +Z+VifgAA 0+Zv9O44ho" quoteleft.pwid
Position2: "'halt' +Zv9O41NKW70A +Z+VifgAA 2 +a89OKltXX2JlcGNu 0" dx=-500 dy=0 dh=-500 dv=0
EndChar

StartChar: quoteright
Encoding: 8217 8217 194
Width: 1000
GlyphClass: 1
Flags: HW
LayerCount: 2
Fore
SplineSet
36 638 m 1
 74 641 107 673 107 707 c 1
 65 707 44 729 44 767 c 0
 44 811 68 830 102 830 c 0
 136 830 165 811 165 756 c 0
 165 666 118 609 36 596 c 1
 36 638 l 1
EndSplineSet
Validated: 1
Substitution2: "'ss02' +aDdfD5bG-2 +Z+VifgAA 13+Zv9O44ho" quoteright.ss02
Substitution2: "'pwid' +a9RPi1u9XqYA +Z+VifgAA 12+Zv9O44ho" quoteright.pwid
Substitution2: "'hwid' +U0pbvQAA +Z+VifgAA 11+Zv9O44ho" quoteright.half
Substitution2: "'vert' Vertical Alternates +Z+VifgAA 6+Zv9O44ho" quoteright.vert
Substitution2: "'vert' Vertical Alternates +Z+VifgAA 3+Zv9O44ho" uniFE42
Substitution2: "'locl' +ZyxXMF9iXw8A +Z+VifgAA 0+Zv9O44ho" quoteright.pwid
Position2: "'halt' +Zv9O41NKW70A +Z+VifgAA 2 +a89OKltXX2JlcGNu 1" dx=0 dy=0 dh=-500 dv=0
EndChar

StartChar: uni301F
Encoding: 12319 12319 195
Width: 1000
GlyphClass: 1
Flags: W
LayerCount: 2
Fore
SplineSet
53 76 m 1
 73 117 l 1
 322 -21 l 1
 287 -86 l 1
 53 76 l 1
53 259 m 1
 73 300 l 1
 322 162 l 1
 287 97 l 1
 53 259 l 1
EndSplineSet
Validated: 1
Substitution2: "'vert' Vertical Alternates +Z+VifgAA 8+Zv9O44ho" uni301E.vert
Position2: "'halt' +Zv9O41NKW70A +Z+VifgAA 2 +a89OKltXX2JlcGNu 1" dx=0 dy=0 dh=-500 dv=0
EndChar

StartChar: uni301E
Encoding: 12318 12318 196
Width: 1000
GlyphClass: 1
Flags: W
LayerCount: 2
Fore
SplineSet
73 460 m 1
 53 501 l 1
 287 663 l 1
 322 598 l 1
 73 460 l 1
73 643 m 1
 53 684 l 1
 287 846 l 1
 322 781 l 1
 73 643 l 1
EndSplineSet
Validated: 1
Substitution2: "'vert' Vertical Alternates +Z+VifgAA 8+Zv9O44ho" uni301E.vert
Position2: "'halt' +Zv9O41NKW70A +Z+VifgAA 2 +a89OKltXX2JlcGNu 1" dx=0 dy=0 dh=-500 dv=0
EndChar

StartChar: uni301D
Encoding: 12317 12317 197
Width: 1000
GlyphClass: 1
Flags: W
LayerCount: 2
Fore
SplineSet
947 684 m 1
 927 643 l 1
 678 781 l 1
 713 846 l 1
 947 684 l 1
947 501 m 1
 927 460 l 1
 678 598 l 1
 713 663 l 1
 947 501 l 1
EndSplineSet
Validated: 1
Substitution2: "'vert' Vertical Alternates +Z+VifgAA 8+Zv9O44ho" uni301D.vert
Position2: "'halt' +Zv9O41NKW70A +Z+VifgAA 2 +a89OKltXX2JlcGNu 0" dx=-500 dy=0 dh=-500 dv=0
EndChar

StartChar: quotedblleft.half
Encoding: 1114151 -1 198
Width: 500
GlyphClass: 1
Flags: HW
LayerCount: 2
Fore
SplineSet
291 788 m 1
 253 785 220 753 220 719 c 1
 262 719 283 697 283 659 c 0
 283 615 259 596 225 596 c 0
 191 596 162 615 162 670 c 0
 162 760 209 817 291 830 c 1
 291 788 l 1
464 788 m 1
 426 785 393 753 393 719 c 1
 435 719 456 697 456 659 c 0
 456 615 432 596 398 596 c 0
 364 596 335 615 335 670 c 0
 335 760 382 817 464 830 c 1
 464 788 l 1
EndSplineSet
Validated: 1
Substitution2: "'ss02' +aDdfD5bG-2 +Z+VifgAA 13+Zv9O44ho" quotedblleft.ss02.half
Substitution2: "'pwid' +a9RPi1u9XqYA +Z+VifgAA 12+Zv9O44ho" quotedblleft.pwid
Substitution2: "'fwid' +UWhbvQAA +Z+VifgAA 10+Zv9O44ho" quotedblleft
EndChar

StartChar: quotedblright.half
Encoding: 1114152 -1 199
Width: 500
GlyphClass: 1
Flags: HW
LayerCount: 2
Fore
SplineSet
209 638 m 1
 247 641 280 673 280 707 c 1
 238 707 217 729 217 767 c 0
 217 811 241 830 275 830 c 0
 309 830 338 811 338 756 c 0
 338 666 291 609 209 596 c 1
 209 638 l 1
36 638 m 1
 74 641 107 673 107 707 c 1
 65 707 44 729 44 767 c 0
 44 811 68 830 102 830 c 0
 136 830 165 811 165 756 c 0
 165 666 118 609 36 596 c 1
 36 638 l 1
EndSplineSet
Validated: 1
Substitution2: "'ss02' +aDdfD5bG-2 +Z+VifgAA 13+Zv9O44ho" quotedblright.ss02.half
Substitution2: "'pwid' +a9RPi1u9XqYA +Z+VifgAA 12+Zv9O44ho" quotedblright.pwid
Substitution2: "'fwid' +UWhbvQAA +Z+VifgAA 10+Zv9O44ho" quotedblright
EndChar

StartChar: quoteleft.half
Encoding: 1114153 -1 200
Width: 500
GlyphClass: 1
Flags: HW
LayerCount: 2
Fore
SplineSet
464 788 m 1
 426 785 393 753 393 719 c 1
 435 719 456 697 456 659 c 0
 456 615 432 596 398 596 c 0
 364 596 335 615 335 670 c 0
 335 760 382 817 464 830 c 1
 464 788 l 1
EndSplineSet
Validated: 1
Substitution2: "'ss02' +aDdfD5bG-2 +Z+VifgAA 13+Zv9O44ho" quoteleft.ss02.half
Substitution2: "'pwid' +a9RPi1u9XqYA +Z+VifgAA 12+Zv9O44ho" quoteleft.pwid
Substitution2: "'fwid' +UWhbvQAA +Z+VifgAA 10+Zv9O44ho" quoteleft
EndChar

StartChar: quoteright.half
Encoding: 1114154 -1 201
Width: 500
GlyphClass: 1
Flags: HW
LayerCount: 2
Fore
SplineSet
36 638 m 1
 74 641 107 673 107 707 c 1
 65 707 44 729 44 767 c 0
 44 811 68 830 102 830 c 0
 136 830 165 811 165 756 c 0
 165 666 118 609 36 596 c 1
 36 638 l 1
EndSplineSet
Validated: 1
Substitution2: "'ss02' +aDdfD5bG-2 +Z+VifgAA 13+Zv9O44ho" quoteright.ss02.half
Substitution2: "'pwid' +a9RPi1u9XqYA +Z+VifgAA 12+Zv9O44ho" quoteright.pwid
Substitution2: "'fwid' +UWhbvQAA +Z+VifgAA 10+Zv9O44ho" quoteright
EndChar

StartChar: quotedblleft.pwid
Encoding: 1114155 -1 202
Width: 330
GlyphClass: 1
Flags: HW
LayerCount: 2
Fore
SplineSet
144 788 m 1
 106 785 73 753 73 719 c 1
 115 719 136 697 136 659 c 0
 136 615 112 596 78 596 c 0
 44 596 15 615 15 670 c 0
 15 760 62 817 144 830 c 1
 144 788 l 1
317 788 m 1
 279 785 246 753 246 719 c 1
 288 719 309 697 309 659 c 0
 309 615 285 596 251 596 c 0
 217 596 188 615 188 670 c 0
 188 760 235 817 317 830 c 1
 317 788 l 1
EndSplineSet
Validated: 1
Substitution2: "'ss02' +aDdfD5bG-2 +Z+VifgAA 13+Zv9O44ho" quotedblleft.ss02.pwid
Substitution2: "'hwid' +U0pbvQAA +Z+VifgAA 11+Zv9O44ho" quotedblleft.half
Substitution2: "'fwid' +UWhbvQAA +Z+VifgAA 10+Zv9O44ho" quotedblleft
EndChar

StartChar: quotedblright.pwid
Encoding: 1114156 -1 203
Width: 330
GlyphClass: 1
Flags: HW
LayerCount: 2
Fore
SplineSet
186 638 m 1
 224 641 257 673 257 707 c 1
 215 707 194 729 194 767 c 0
 194 811 218 830 252 830 c 0
 286 830 315 811 315 756 c 0
 315 666 268 609 186 596 c 1
 186 638 l 1
13 638 m 1
 51 641 84 673 84 707 c 1
 42 707 21 729 21 767 c 0
 21 811 45 830 79 830 c 0
 113 830 142 811 142 756 c 0
 142 666 95 609 13 596 c 1
 13 638 l 1
EndSplineSet
Validated: 1
Substitution2: "'ss02' +aDdfD5bG-2 +Z+VifgAA 13+Zv9O44ho" quotedblright.ss02.pwid
Substitution2: "'hwid' +U0pbvQAA +Z+VifgAA 11+Zv9O44ho" quotedblright.half
Substitution2: "'fwid' +UWhbvQAA +Z+VifgAA 10+Zv9O44ho" quotedblright
EndChar

StartChar: quoteleft.pwid
Encoding: 1114157 -1 204
Width: 157
GlyphClass: 1
Flags: HW
LayerCount: 2
Fore
SplineSet
144 788 m 1
 106 785 73 753 73 719 c 1
 115 719 136 697 136 659 c 0
 136 615 112 596 78 596 c 0
 44 596 15 615 15 670 c 0
 15 760 62 817 144 830 c 1
 144 788 l 1
EndSplineSet
Validated: 1
Substitution2: "'ss02' +aDdfD5bG-2 +Z+VifgAA 13+Zv9O44ho" quoteleft.ss02.pwid
Substitution2: "'hwid' +U0pbvQAA +Z+VifgAA 11+Zv9O44ho" quoteleft.half
Substitution2: "'fwid' +UWhbvQAA +Z+VifgAA 10+Zv9O44ho" quoteleft
EndChar

StartChar: quoteright.pwid
Encoding: 1114158 -1 205
Width: 157
GlyphClass: 1
Flags: HW
LayerCount: 2
Fore
SplineSet
13 638 m 1
 51 641 84 673 84 707 c 1
 42 707 21 729 21 767 c 0
 21 811 45 830 79 830 c 0
 113 830 142 811 142 756 c 0
 142 666 95 609 13 596 c 1
 13 638 l 1
EndSplineSet
Validated: 1
Substitution2: "'ss02' +aDdfD5bG-2 +Z+VifgAA 13+Zv9O44ho" quoteright.ss02.pwid
Substitution2: "'hwid' +U0pbvQAA +Z+VifgAA 11+Zv9O44ho" quoteright.half
Substitution2: "'fwid' +UWhbvQAA +Z+VifgAA 10+Zv9O44ho" quoteright
EndChar

StartChar: quotedblleft.ss02
Encoding: 1114159 -1 206
Width: 1000
GlyphClass: 1
Flags: HW
LayerCount: 2
Fore
SplineSet
815 572 m 1
 833 653 871 753 906 830 c 1
 964 830 l 1
 939 749 915 638 905 561 c 1
 822 561 l 1
 815 572 l 1
642 572 m 1
 660 653 698 753 733 830 c 1
 791 830 l 1
 766 749 742 638 732 561 c 1
 649 561 l 1
 642 572 l 1
EndSplineSet
Validated: 1
Substitution2: "'pwid' +a9RPi1u9XqYA +Z+VifgAA 12+Zv9O44ho" quotedblleft.ss02.pwid
Substitution2: "'hwid' +U0pbvQAA +Z+VifgAA 11+Zv9O44ho" quotedblleft.ss02.half
Substitution2: "'vert' Vertical Alternates +Z+VifgAA 6+Zv9O44ho" uni301D.vert
Substitution2: "'vert' Vertical Alternates +Z+VifgAA 3+Zv9O44ho" uniFE43
Substitution2: "'locl' +ZyxXMF9iXw8A +Z+VifgAA 0+Zv9O44ho" quotedblleft.ss02.pwid
Position2: "'halt' +Zv9O41NKW70A +Z+VifgAA 2 +a89OKltXX2JlcGNu 0" dx=-500 dy=0 dh=-500 dv=0
EndChar

StartChar: quotedblright.ss02
Encoding: 1114160 -1 207
Width: 1000
GlyphClass: 1
Flags: HW
LayerCount: 2
Fore
SplineSet
185 819 m 1
 167 738 129 638 94 561 c 1
 36 561 l 1
 61 642 85 753 95 830 c 1
 178 830 l 1
 185 819 l 1
358 819 m 1
 340 738 302 638 267 561 c 1
 209 561 l 1
 234 642 258 753 268 830 c 1
 351 830 l 1
 358 819 l 1
EndSplineSet
Validated: 1
Substitution2: "'pwid' +a9RPi1u9XqYA +Z+VifgAA 12+Zv9O44ho" quotedblright.ss02.pwid
Substitution2: "'hwid' +U0pbvQAA +Z+VifgAA 11+Zv9O44ho" quotedblright.ss02.half
Substitution2: "'vert' Vertical Alternates +Z+VifgAA 6+Zv9O44ho" uni301E.vert
Substitution2: "'vert' Vertical Alternates +Z+VifgAA 3+Zv9O44ho" uniFE44
Substitution2: "'locl' +ZyxXMF9iXw8A +Z+VifgAA 0+Zv9O44ho" quotedblright.ss02.pwid
Position2: "'halt' +Zv9O41NKW70A +Z+VifgAA 2 +a89OKltXX2JlcGNu 1" dx=0 dy=0 dh=-500 dv=0
EndChar

StartChar: quoteleft.ss02
Encoding: 1114161 -1 208
Width: 1000
GlyphClass: 1
Flags: HW
LayerCount: 2
Fore
SplineSet
815 572 m 1
 833 653 871 753 906 830 c 1
 964 830 l 1
 939 749 915 638 905 561 c 1
 822 561 l 1
 815 572 l 1
EndSplineSet
Validated: 1
Substitution2: "'pwid' +a9RPi1u9XqYA +Z+VifgAA 12+Zv9O44ho" quoteleft.ss02.pwid
Substitution2: "'hwid' +U0pbvQAA +Z+VifgAA 11+Zv9O44ho" quoteleft.ss02.half
Substitution2: "'vert' Vertical Alternates +Z+VifgAA 6+Zv9O44ho" quoteleft.vert
Substitution2: "'vert' Vertical Alternates +Z+VifgAA 3+Zv9O44ho" uniFE41
Substitution2: "'locl' +ZyxXMF9iXw8A +Z+VifgAA 0+Zv9O44ho" quoteleft.ss02.pwid
Position2: "'halt' +Zv9O41NKW70A +Z+VifgAA 2 +a89OKltXX2JlcGNu 0" dx=-500 dy=0 dh=-500 dv=0
EndChar

StartChar: quoteright.ss02
Encoding: 1114162 -1 209
Width: 1000
GlyphClass: 1
Flags: HW
LayerCount: 2
Fore
SplineSet
185 819 m 1
 167 738 129 638 94 561 c 1
 36 561 l 1
 61 642 85 753 95 830 c 1
 178 830 l 1
 185 819 l 1
EndSplineSet
Validated: 1
Substitution2: "'pwid' +a9RPi1u9XqYA +Z+VifgAA 12+Zv9O44ho" quoteright.ss02.pwid
Substitution2: "'hwid' +U0pbvQAA +Z+VifgAA 11+Zv9O44ho" quoteright.ss02.half
Substitution2: "'vert' Vertical Alternates +Z+VifgAA 6+Zv9O44ho" quoteright.vert
Substitution2: "'vert' Vertical Alternates +Z+VifgAA 3+Zv9O44ho" uniFE42
Substitution2: "'locl' +ZyxXMF9iXw8A +Z+VifgAA 0+Zv9O44ho" quoteright.ss02.pwid
Position2: "'halt' +Zv9O41NKW70A +Z+VifgAA 2 +a89OKltXX2JlcGNu 1" dx=0 dy=0 dh=-500 dv=0
EndChar

StartChar: quoteleft.vert
Encoding: 1114163 -1 210
Width: 1000
GlyphClass: 1
Flags: W
LayerCount: 2
Fore
SplineSet
804 -67 m 1
 763 -47 l 1
 901 202 l 1
 966 167 l 1
 804 -67 l 1
EndSplineSet
Validated: 1
Position2: "'vhal' +Zv9O41eCdvRTSlw6W/gA +Z+VifgAA 3 +a89OKltXX2JlcGNu 1" dx=0 dy=500 dh=0 dv=-500
EndChar

StartChar: quoteright.vert
Encoding: 1114164 -1 211
Width: 1000
GlyphClass: 1
Flags: W
LayerCount: 2
Fore
SplineSet
196 827 m 1
 237 807 l 1
 99 558 l 1
 34 593 l 1
 196 827 l 1
EndSplineSet
Validated: 1
Position2: "'vhal' +Zv9O41eCdvRTSlw6W/gA +Z+VifgAA 3 +a89OKltXX2JlcGNu 0" dx=0 dy=0 dh=-500 dv=0
EndChar

StartChar: uni301E.vert
Encoding: 1114165 -1 212
Width: 1000
GlyphClass: 1
Flags: W
LayerCount: 2
Fore
SplineSet
196 827 m 1
 237 807 l 1
 99 558 l 1
 34 593 l 1
 196 827 l 1
379 827 m 1
 420 807 l 1
 282 558 l 1
 217 593 l 1
 379 827 l 1
EndSplineSet
Validated: 1
Position2: "'vhal' +Zv9O41eCdvRTSlw6W/gA +Z+VifgAA 3 +a89OKltXX2JlcGNu 0" dx=0 dy=0 dh=-500 dv=0
EndChar

StartChar: uni301D.vert
Encoding: 1114166 -1 213
Width: 1000
GlyphClass: 1
Flags: W
LayerCount: 2
Fore
SplineSet
804 -67 m 1
 763 -47 l 1
 901 202 l 1
 966 167 l 1
 804 -67 l 1
621 -67 m 1
 580 -47 l 1
 718 202 l 1
 783 167 l 1
 621 -67 l 1
EndSplineSet
Validated: 1
Position2: "'vhal' +Zv9O41eCdvRTSlw6W/gA +Z+VifgAA 3 +a89OKltXX2JlcGNu 1" dx=0 dy=500 dh=0 dv=-500
EndChar

StartChar: quotedblleft.ss02.half
Encoding: 1114167 -1 214
Width: 500
GlyphClass: 1
Flags: HW
LayerCount: 2
Fore
SplineSet
315 572 m 1
 333 653 371 753 406 830 c 1
 464 830 l 1
 439 749 415 638 405 561 c 1
 322 561 l 1
 315 572 l 1
142 572 m 1
 160 653 198 753 233 830 c 1
 291 830 l 1
 266 749 242 638 232 561 c 1
 149 561 l 1
 142 572 l 1
EndSplineSet
Validated: 1
Substitution2: "'pwid' +a9RPi1u9XqYA +Z+VifgAA 12+Zv9O44ho" quotedblleft.ss02.pwid
Substitution2: "'fwid' +UWhbvQAA +Z+VifgAA 10+Zv9O44ho" quotedblleft.ss02
EndChar

StartChar: quotedblright.ss02.half
Encoding: 1114168 -1 215
Width: 500
GlyphClass: 1
Flags: HW
LayerCount: 2
Fore
SplineSet
185 819 m 1
 167 738 129 638 94 561 c 1
 36 561 l 1
 61 642 85 753 95 830 c 1
 178 830 l 1
 185 819 l 1
358 819 m 1
 340 738 302 638 267 561 c 1
 209 561 l 1
 234 642 258 753 268 830 c 1
 351 830 l 1
 358 819 l 1
EndSplineSet
Validated: 1
Substitution2: "'pwid' +a9RPi1u9XqYA +Z+VifgAA 12+Zv9O44ho" quotedblright.ss02.pwid
Substitution2: "'fwid' +UWhbvQAA +Z+VifgAA 10+Zv9O44ho" quotedblright.ss02
EndChar

StartChar: quoteleft.ss02.half
Encoding: 1114169 -1 216
Width: 500
GlyphClass: 1
Flags: HW
LayerCount: 2
Fore
SplineSet
315 572 m 1
 333 653 371 753 406 830 c 1
 464 830 l 1
 439 749 415 638 405 561 c 1
 322 561 l 1
 315 572 l 1
EndSplineSet
Validated: 1
Substitution2: "'pwid' +a9RPi1u9XqYA +Z+VifgAA 12+Zv9O44ho" quoteleft.ss02.pwid
Substitution2: "'fwid' +UWhbvQAA +Z+VifgAA 10+Zv9O44ho" quoteleft.ss02
EndChar

StartChar: quoteright.ss02.half
Encoding: 1114170 -1 217
Width: 500
GlyphClass: 1
Flags: HW
LayerCount: 2
Fore
SplineSet
185 819 m 1
 167 738 129 638 94 561 c 1
 36 561 l 1
 61 642 85 753 95 830 c 1
 178 830 l 1
 185 819 l 1
EndSplineSet
Validated: 1
Substitution2: "'pwid' +a9RPi1u9XqYA +Z+VifgAA 12+Zv9O44ho" quoteright.ss02.pwid
Substitution2: "'fwid' +UWhbvQAA +Z+VifgAA 10+Zv9O44ho" quoteright.ss02
EndChar

StartChar: quotedblleft.ss02.pwid
Encoding: 1114171 -1 218
Width: 350
GlyphClass: 1
Flags: HW
LayerCount: 2
Fore
SplineSet
188 572 m 1
 206 653 244 753 279 830 c 1
 337 830 l 1
 312 749 288 638 278 561 c 1
 195 561 l 1
 188 572 l 1
15 572 m 1
 33 653 71 753 106 830 c 1
 164 830 l 1
 139 749 115 638 105 561 c 1
 22 561 l 1
 15 572 l 1
EndSplineSet
Validated: 1
Substitution2: "'hwid' +U0pbvQAA +Z+VifgAA 11+Zv9O44ho" quotedblleft.ss02.half
Substitution2: "'fwid' +UWhbvQAA +Z+VifgAA 10+Zv9O44ho" quotedblleft.ss02
EndChar

StartChar: quotedblright.ss02.pwid
Encoding: 1114172 -1 219
Width: 350
GlyphClass: 1
Flags: HW
LayerCount: 2
Fore
SplineSet
162 819 m 1
 144 738 106 638 71 561 c 1
 13 561 l 1
 38 642 62 753 72 830 c 1
 155 830 l 1
 162 819 l 1
335 819 m 1
 317 738 279 638 244 561 c 1
 186 561 l 1
 211 642 235 753 245 830 c 1
 328 830 l 1
 335 819 l 1
EndSplineSet
Validated: 1
Substitution2: "'hwid' +U0pbvQAA +Z+VifgAA 11+Zv9O44ho" quotedblright.ss02.half
Substitution2: "'fwid' +UWhbvQAA +Z+VifgAA 10+Zv9O44ho" quotedblright.ss02
EndChar

StartChar: quoteleft.ss02.pwid
Encoding: 1114173 -1 220
Width: 177
GlyphClass: 1
Flags: HW
LayerCount: 2
Fore
SplineSet
15 572 m 1
 33 653 71 753 106 830 c 1
 164 830 l 1
 139 749 115 638 105 561 c 1
 22 561 l 1
 15 572 l 1
EndSplineSet
Validated: 1
Substitution2: "'hwid' +U0pbvQAA +Z+VifgAA 11+Zv9O44ho" quoteleft.ss02.half
Substitution2: "'fwid' +UWhbvQAA +Z+VifgAA 10+Zv9O44ho" quoteleft.ss02
EndChar

StartChar: quoteright.ss02.pwid
Encoding: 1114174 -1 221
Width: 177
GlyphClass: 1
Flags: HW
LayerCount: 2
Fore
SplineSet
162 819 m 1
 144 738 106 638 71 561 c 1
 13 561 l 1
 38 642 62 753 72 830 c 1
 155 830 l 1
 162 819 l 1
EndSplineSet
Validated: 1
Substitution2: "'hwid' +U0pbvQAA +Z+VifgAA 11+Zv9O44ho" quoteright.ss02.half
Substitution2: "'fwid' +UWhbvQAA +Z+VifgAA 10+Zv9O44ho" quoteright.ss02
EndChar

StartChar: uniFF3E
Encoding: 65342 65342 222
Width: 1000
GlyphClass: 1
Flags: W
LayerCount: 2
Fore
SplineSet
230 259 m 1
 477 753 l 1
 524 753 l 1
 770 259 l 1
 699 259 l 1
 500 668 l 1
 301 259 l 1
 230 259 l 1
EndSplineSet
Validated: 1
EndChar

StartChar: uniFF40
Encoding: 65344 65344 223
Width: 1000
GlyphClass: 1
Flags: W
LayerCount: 2
Fore
SplineSet
488 805 m 1
 514 756 567 682 606 640 c 1
 606 629 l 1
 552 629 l 1
 499 670 423 752 394 795 c 1
 394 805 l 1
 488 805 l 1
EndSplineSet
Validated: 1
EndChar

StartChar: uniFFE3
Encoding: 65507 65507 224
Width: 1000
GlyphClass: 1
Flags: W
LayerCount: 2
Fore
SplineSet
-1 868 m 1
 1001 868 l 1
 1001 802 l 1
 -1 802 l 1
 -1 868 l 1
EndSplineSet
Validated: 1
EndChar

StartChar: u1F16D
Encoding: 127341 127341 225
Width: 1000
GlyphClass: 1
Flags: W
LayerCount: 2
Fore
SplineSet
500 -55 m 0
 272 -55 88 129 88 357 c 0
 88 585 272 769 500 769 c 0
 728 769 912 585 912 357 c 0
 912 129 728 -55 500 -55 c 0
500 -7 m 0
 701 -7 864 156 864 357 c 0
 864 558 701 721 500 721 c 0
 299 721 136 558 136 357 c 0
 136 156 299 -7 500 -7 c 0
380 181 m 0
 260 181 203 249 203 360 c 0
 203 474 272 542 378 542 c 0
 415 542 450 534 480 519 c 1
 459 477 l 1
 433 488 405 495 377 495 c 0
 303 495 260 447 260 359 c 0
 260 271 300 228 382 228 c 0
 412 228 440 232 466 241 c 1
 466 193 l 1
 443 186 414 181 380 181 c 0
677 181 m 0
 557 181 500 249 500 360 c 0
 500 474 569 542 675 542 c 0
 713 542 748 534 777 519 c 1
 756 477 l 1
 730 488 702 495 674 495 c 0
 601 495 557 447 557 359 c 0
 557 271 598 228 679 228 c 0
 709 228 738 232 763 241 c 1
 763 193 l 1
 740 186 711 181 677 181 c 0
EndSplineSet
Validated: 1
EndChar

StartChar: u1F16E
Encoding: 127342 127342 226
Width: 1000
GlyphClass: 1
Flags: W
LayerCount: 2
Fore
SplineSet
500 -55 m 0
 272 -55 88 129 88 357 c 0
 88 585 272 769 500 769 c 0
 728 769 912 585 912 357 c 0
 912 129 728 -55 500 -55 c 0
500 -7 m 0
 637 -7 757 69 819 181 c 1
 360 395 l 1
 359 384 358 371 358 358 c 0
 358 243 411 184 517 184 c 0
 554 184 590 189 619 199 c 1
 619 150 l 1
 592 141 556 136 516 136 c 0
 367 136 297 220 297 359 c 0
 297 382 299 403 303 422 c 1
 161 489 l 1
 145 448 136 403 136 357 c 0
 136 156 299 -7 500 -7 c 0
181 533 m 1
 318 469 l 1
 351 543 420 584 512 584 c 0
 559 584 602 575 636 558 c 1
 614 514 l 1
 584 529 548 536 511 536 c 0
 443 536 394 504 372 444 c 1
 839 225 l 1
 855 266 864 311 864 357 c 0
 864 558 701 721 500 721 c 0
 363 721 243 645 181 533 c 1
EndSplineSet
Validated: 1
EndChar

StartChar: u1F16F
Encoding: 127343 127343 227
Width: 1000
GlyphClass: 1
Flags: W
LayerCount: 2
Fore
SplineSet
500 -55 m 0
 272 -55 88 129 88 357 c 0
 88 585 272 769 500 769 c 0
 728 769 912 585 912 357 c 0
 912 129 728 -55 500 -55 c 0
500 -7 m 0
 701 -7 864 156 864 357 c 0
 864 558 701 721 500 721 c 0
 299 721 136 558 136 357 c 0
 136 156 299 -7 500 -7 c 0
609 457 m 2
 609 472 598 483 583 483 c 2
 417 483 l 2
 402 483 391 472 391 457 c 2
 391 292 l 1
 437 292 l 1
 437 97 l 1
 563 97 l 1
 563 292 l 1
 609 292 l 1
 609 457 l 2
444 560 m 0
 444 523 463 504 500 504 c 0
 537 504 556 523 556 560 c 0
 556 597 537 617 500 617 c 0
 463 617 444 597 444 560 c 0
EndSplineSet
Validated: 9
EndChar

StartChar: uniFFE4
Encoding: 65508 65508 228
Width: 1000
GlyphClass: 1
Flags: W
LayerCount: 2
Fore
SplineSet
467 -86 m 1
 467 330 l 1
 533 330 l 1
 533 -86 l 1
 467 -86 l 1
467 430 m 1
 467 846 l 1
 533 846 l 1
 533 430 l 1
 467 430 l 1
EndSplineSet
Validated: 1
Substitution2: "'vert' Vertical Alternates +Z+VifgAA 8+Zv9O44ho" uniFFE4.vert
EndChar

StartChar: u1F265
Encoding: 127589 127589 229
Width: 1000
GlyphClass: 1
Flags: W
LayerCount: 2
Fore
SplineSet
500 855 m 0
 524 855 547 853 570 850 c 1
 570 722 l 1
 623 722 l 1
 623 839 l 1
 803 789 936 648 969 455 c 1
 720 455 l 1
 720 688 l 1
 769 653 810 606 837 552 c 1
 787 552 l 1
 780 564 772 576 763 588 c 1
 763 498 l 1
 915 498 l 1
 877 630 785 728 667 778 c 1
 667 402 l 1
 974 402 l 1
 975 395 975 387 975 380 c 0
 975 373 975 365 974 358 c 1
 667 358 l 1
 667 -18 l 1
 785 32 877 130 915 262 c 1
 763 262 l 1
 763 172 l 1
 772 184 780 196 787 208 c 1
 837 208 l 1
 810 154 769 107 720 72 c 1
 720 305 l 1
 969 305 l 1
 936 112 803 -29 623 -79 c 1
 623 38 l 1
 570 38 l 1
 570 -90 l 1
 547 -93 524 -95 500 -95 c 0
 476 -95 452 -93 430 -90 c 1
 430 38 l 1
 377 38 l 1
 377 -79 l 1
 197 -29 64 112 31 305 c 1
 280 305 l 1
 280 72 l 1
 231 107 190 154 163 208 c 1
 212 208 l 1
 219 196 228 184 237 172 c 1
 237 262 l 1
 85 262 l 1
 123 130 215 32 333 -18 c 1
 333 358 l 1
 26 358 l 1
 25 365 25 373 25 380 c 0
 25 387 25 395 26 402 c 1
 333 402 l 1
 333 778 l 1
 215 728 123 630 85 498 c 1
 237 498 l 1
 237 588 l 1
 228 576 219 564 212 552 c 1
 163 552 l 1
 190 606 231 653 280 688 c 1
 280 455 l 1
 31 455 l 1
 64 648 197 789 377 839 c 1
 377 722 l 1
 430 722 l 1
 430 850 l 1
 452 853 476 855 500 855 c 0
500 812 m 0
 491 812 482 812 473 811 c 1
 473 678 l 1
 377 678 l 1
 377 82 l 1
 473 82 l 1
 473 -51 l 1
 482 -52 491 -52 500 -52 c 0
 509 -52 518 -52 527 -51 c 1
 527 82 l 1
 623 82 l 1
 623 678 l 1
 527 678 l 1
 527 811 l 1
 518 812 509 812 500 812 c 0
570 625 m 1
 570 135 l 1
 430 135 l 1
 430 625 l 1
 570 625 l 1
473 178 m 1
 527 178 l 1
 527 582 l 1
 473 582 l 1
 473 178 l 1
EndSplineSet
Validated: 1
EndChar

StartChar: u1F260
Encoding: 127584 127584 230
Width: 1000
GlyphClass: 1
Flags: W
LayerCount: 2
Fore
SplineSet
500 855 m 1
 629 855 746 804 832 720 c 1
 767 720 l 1
 693 778 601 812 500 812 c 1
 500 855 l 1
447 574 m 1
 403 574 l 1
 403 801 l 1
 276 772 172 687 114 574 c 1
 67 574 l 1
 134 725 276 833 447 852 c 1
 447 574 l 1
879 666 m 1
 924 607 956 535 968 458 c 1
 500 458 l 1
 500 666 l 1
 879 666 l 1
914 502 m 1
 902 546 882 587 857 623 c 1
 543 623 l 1
 543 502 l 1
 914 502 l 1
447 -92 m 1
 432 -91 417 -88 403 -85 c 1
 403 478 l 1
 267 478 l 1
 267 -34 l 1
 252 -26 238 -16 224 -6 c 1
 224 478 l 1
 80 478 l 1
 72 446 68 414 68 380 c 0
 68 274 107 176 170 102 c 1
 170 38 l 1
 81 124 25 245 25 380 c 0
 25 429 33 476 46 521 c 1
 447 521 l 1
 447 -92 l 1
975 380 m 1
 975 118 762 -95 500 -95 c 1
 500 405 l 1
 974 405 l 1
 975 380 l 1
543 243 m 1
 716 243 l 1
 716 362 l 1
 543 362 l 1
 543 243 l 1
909 243 m 1
 922 281 929 320 931 362 c 1
 760 362 l 1
 760 243 l 1
 909 243 l 1
543 -49 m 1
 606 -43 665 -23 716 6 c 1
 716 199 l 1
 543 199 l 1
 543 -49 l 1
760 35 m 1
 817 78 862 134 892 199 c 1
 760 199 l 1
 760 35 l 1
EndSplineSet
Validated: 1
EndChar

StartChar: u1F261
Encoding: 127585 127585 231
Width: 1000
GlyphClass: 1
Flags: W
LayerCount: 2
Fore
SplineSet
500 855 m 0
 754 855 961 657 975 407 c 1
 878 407 l 1
 879 398 879 389 879 380 c 0
 879 371 879 362 878 353 c 1
 975 353 l 1
 961 103 754 -95 500 -95 c 0
 247 -95 40 103 26 353 c 1
 123 353 l 1
 122 362 122 371 122 380 c 0
 122 389 122 398 123 407 c 1
 26 407 l 1
 40 657 247 855 500 855 c 0
430 707 m 1
 336 688 256 628 210 547 c 1
 334 547 l 1
 334 606 l 1
 347 617 362 626 377 633 c 1
 377 503 l 1
 143 503 l 1
 159 551 185 594 218 632 c 1
 180 669 l 1
 125 609 88 534 74 450 c 1
 430 450 l 1
 430 707 l 1
499 812 m 0
 388 812 286 769 210 700 c 1
 248 662 l 1
 309 717 387 751 473 757 c 1
 473 407 l 1
 165 407 l 1
 164 398 164 389 164 380 c 0
 164 371 164 362 165 353 c 1
 473 353 l 1
 473 3 l 1
 387 9 309 43 248 98 c 1
 210 60 l 1
 286 -9 388 -52 499 -52 c 0
 611 -52 713 -9 790 61 c 1
 751 98 l 1
 691 44 613 9 527 3 c 1
 527 353 l 1
 834 353 l 1
 836 362 836 371 836 380 c 0
 836 389 836 398 834 407 c 1
 527 407 l 1
 527 757 l 1
 613 751 690 717 751 662 c 1
 789 700 l 1
 713 769 611 812 499 812 c 0
570 707 m 1
 570 450 l 1
 926 450 l 1
 912 534 875 609 820 669 c 1
 782 632 l 1
 815 594 841 551 857 503 c 1
 623 503 l 1
 623 633 l 1
 638 626 653 617 666 606 c 1
 666 547 l 1
 790 547 l 1
 744 628 664 688 570 707 c 1
430 53 m 1
 430 310 l 1
 74 310 l 1
 88 226 125 151 180 91 c 1
 218 128 l 1
 185 166 159 209 143 257 c 1
 377 257 l 1
 377 127 l 1
 362 134 347 143 334 154 c 1
 334 213 l 1
 210 213 l 1
 256 132 336 72 430 53 c 1
570 53 m 1
 664 72 744 132 790 213 c 1
 666 213 l 1
 666 154 l 1
 653 143 638 134 623 127 c 1
 623 257 l 1
 857 257 l 1
 841 209 815 166 782 128 c 1
 820 91 l 1
 875 151 912 226 926 310 c 1
 570 310 l 1
 570 53 l 1
EndSplineSet
Validated: 1
EndChar

StartChar: u1F262
Encoding: 127586 127586 232
Width: 1000
GlyphClass: 1
Flags: W
LayerCount: 2
Fore
SplineSet
500 855 m 0
 672 855 823 763 906 627 c 1
 854 627 l 1
 780 733 659 804 522 811 c 1
 522 757 l 1
 628 751 722 702 787 627 c 1
 726 627 l 1
 671 677 600 709 522 714 c 1
 522 627 l 1
 478 627 l 1
 478 714 l 1
 400 709 329 677 274 627 c 1
 213 627 l 1
 278 702 372 751 478 757 c 1
 478 811 l 1
 341 804 220 733 146 627 c 1
 94 627 l 1
 177 763 328 855 500 855 c 0
114 573 m 1
 85 515 68 449 68 380 c 1
 122 380 l 1
 122 450 141 517 175 573 c 1
 825 573 l 1
 859 517 878 450 878 380 c 1
 932 380 l 1
 932 449 915 515 886 573 c 1
 934 573 l 1
 960 514 975 449 975 380 c 0
 975 365 974 351 973 337 c 1
 832 337 l 1
 834 351 835 365 835 380 c 0
 835 434 822 485 799 530 c 1
 201 530 l 1
 178 485 165 434 165 380 c 0
 165 365 166 351 168 337 c 1
 27 337 l 1
 26 351 25 365 25 380 c 0
 25 449 40 514 66 573 c 1
 114 573 l 1
764 477 m 1
 769 463 774 448 776 433 c 1
 522 433 l 1
 522 380 l 1
 782 380 l 1
 782 365 780 351 778 337 c 1
 222 337 l 1
 220 351 218 365 218 380 c 1
 478 380 l 1
 478 433 l 1
 224 433 l 1
 226 448 231 463 236 477 c 1
 764 477 l 1
965 283 m 1
 922 75 744 -82 527 -94 c 1
 527 -51 l 1
 704 -40 853 79 908 240 c 1
 522 240 l 1
 522 187 l 1
 825 187 l 1
 763 83 654 12 527 3 c 1
 527 46 l 1
 608 52 681 88 734 143 c 1
 266 143 l 1
 319 88 392 52 473 46 c 1
 473 3 l 1
 346 12 237 83 175 187 c 1
 478 187 l 1
 478 240 l 1
 92 240 l 1
 147 79 296 -40 473 -51 c 1
 473 -94 l 1
 256 -82 78 75 35 283 c 1
 965 283 l 1
EndSplineSet
Validated: 1
EndChar

StartChar: u1F264
Encoding: 127588 127588 233
Width: 1000
GlyphClass: 1
Flags: W
LayerCount: 2
Fore
SplineSet
348 758 m 1
 652 758 l 1
 652 830 l 1
 666 825 681 819 695 813 c 1
 695 758 l 1
 787 758 l 1
 804 744 821 730 836 715 c 1
 695 715 l 1
 695 661 l 1
 882 661 l 1
 893 648 902 633 910 618 c 1
 90 618 l 1
 98 633 107 648 118 661 c 1
 305 661 l 1
 305 715 l 1
 164 715 l 1
 179 730 196 744 213 758 c 1
 305 758 l 1
 305 813 l 1
 319 819 334 825 348 830 c 1
 348 758 l 1
348 661 m 1
 652 661 l 1
 652 715 l 1
 348 715 l 1
 348 661 l 1
473 565 m 1
 473 358 l 1
 348 358 l 1
 348 305 l 1
 652 305 l 1
 652 358 l 1
 527 358 l 1
 527 565 l 1
 938 565 l 1
 961 507 975 445 975 380 c 0
 975 372 975 365 974 358 c 1
 695 358 l 1
 695 305 l 1
 969 305 l 1
 967 290 964 275 960 261 c 1
 695 261 l 1
 695 208 l 1
 943 208 l 1
 877 38 717 -84 527 -95 c 1
 527 208 l 1
 652 208 l 1
 652 261 l 1
 348 261 l 1
 348 208 l 1
 473 208 l 1
 473 -95 l 1
 283 -84 123 38 57 208 c 1
 305 208 l 1
 305 261 l 1
 40 261 l 1
 36 275 34 290 31 305 c 1
 305 305 l 1
 305 358 l 1
 26 358 l 1
 25 365 25 372 25 380 c 0
 25 445 39 507 62 565 c 1
 473 565 l 1
93 521 m 1
 79 484 71 443 69 401 c 1
 430 401 l 1
 430 521 l 1
 93 521 l 1
931 401 m 1
 929 443 921 484 907 521 c 1
 570 521 l 1
 570 401 l 1
 931 401 l 1
127 165 m 1
 189 54 299 -25 430 -47 c 1
 430 165 l 1
 127 165 l 1
570 -47 m 1
 701 -25 811 54 873 165 c 1
 570 165 l 1
 570 -47 l 1
EndSplineSet
Validated: 1
EndChar

StartChar: u1F263
Encoding: 127587 127587 234
Width: 1000
GlyphClass: 1
Flags: W
LayerCount: 2
Fore
SplineSet
500 855 m 0
 531 855 560 852 588 846 c 1
 588 711 l 1
 522 711 l 1
 522 654 l 1
 642 654 l 1
 642 833 l 1
 835 773 975 593 975 380 c 0
 975 167 835 -13 642 -73 c 1
 642 106 l 1
 522 106 l 1
 522 49 l 1
 588 49 l 1
 588 -86 l 1
 560 -92 531 -95 500 -95 c 0
 469 -95 440 -92 412 -86 c 1
 412 49 l 1
 478 49 l 1
 478 106 l 1
 358 106 l 1
 358 -73 l 1
 165 -13 25 167 25 380 c 0
 25 593 165 773 358 833 c 1
 358 654 l 1
 478 654 l 1
 478 711 l 1
 412 711 l 1
 412 846 l 1
 440 852 469 855 500 855 c 0
500 812 m 0
 485 812 470 811 455 808 c 1
 455 754 l 1
 545 754 l 1
 545 808 l 1
 530 811 515 812 500 812 c 0
315 770 m 1
 169 701 68 552 68 380 c 0
 68 208 169 59 315 -10 c 1
 315 310 l 1
 173 310 l 1
 180 276 193 238 218 199 c 1
 218 257 l 1
 262 257 l 1
 262 87 l 1
 183 151 130 246 123 353 c 1
 218 353 l 1
 218 407 l 1
 123 407 l 1
 130 514 183 609 262 673 c 1
 262 503 l 1
 218 503 l 1
 218 561 l 1
 193 522 180 484 173 450 c 1
 315 450 l 1
 315 770 l 1
358 553 m 1
 478 553 l 1
 478 610 l 1
 358 610 l 1
 358 553 l 1
522 553 m 1
 642 553 l 1
 642 610 l 1
 522 610 l 1
 522 553 l 1
358 407 m 1
 262 407 l 1
 262 353 l 1
 358 353 l 1
 358 251 l 1
 478 251 l 1
 478 308 l 1
 412 308 l 1
 412 452 l 1
 478 452 l 1
 478 509 l 1
 358 509 l 1
 358 407 l 1
522 452 m 1
 588 452 l 1
 588 308 l 1
 522 308 l 1
 522 251 l 1
 642 251 l 1
 642 353 l 1
 738 353 l 1
 738 407 l 1
 642 407 l 1
 642 509 l 1
 522 509 l 1
 522 452 l 1
455 351 m 1
 545 351 l 1
 545 409 l 1
 455 409 l 1
 455 351 l 1
358 150 m 1
 478 150 l 1
 478 207 l 1
 358 207 l 1
 358 150 l 1
522 150 m 1
 642 150 l 1
 642 207 l 1
 522 207 l 1
 522 150 l 1
455 -48 m 1
 470 -51 485 -52 500 -52 c 0
 515 -52 530 -51 545 -48 c 1
 545 6 l 1
 455 6 l 1
 455 -48 l 1
685 770 m 1
 685 450 l 1
 827 450 l 1
 820 484 807 522 782 561 c 1
 782 503 l 1
 738 503 l 1
 738 673 l 1
 817 609 870 514 877 407 c 1
 782 407 l 1
 782 353 l 1
 877 353 l 1
 870 246 817 151 738 87 c 1
 738 257 l 1
 782 257 l 1
 782 199 l 1
 807 238 820 276 827 310 c 1
 685 310 l 1
 685 -10 l 1
 831 59 932 208 932 380 c 0
 932 552 831 701 685 770 c 1
EndSplineSet
Validated: 1
EndChar

StartChar: uniFFE4.vert
Encoding: 1114175 -1 235
Width: 1000
GlyphClass: 1
Flags: W
LayerCount: 2
Fore
SplineSet
34 413 m 1
 450 413 l 1
 450 347 l 1
 34 347 l 1
 34 413 l 1
550 413 m 1
 966 413 l 1
 966 347 l 1
 550 347 l 1
 550 413 l 1
EndSplineSet
Validated: 1
EndChar

StartChar: uniFFE0
Encoding: 65504 65504 236
Width: 1000
GlyphClass: 1
Flags: W
LayerCount: 2
Fore
SplineSet
571 668 m 1
 627 667 677 655 715 638 c 1
 693 572 l 1
 653 588 603 600 562 600 c 0
 432 600 365 515 365 360 c 0
 365 209 427 128 554 128 c 0
 615 128 662 142 707 160 c 1
 707 91 l 1
 668 72 627 61 570 59 c 1
 570 -49 l 1
 508 -49 l 1
 508 61 l 1
 367 78 285 171 285 360 c 0
 285 551 372 646 508 665 c 1
 508 758 l 1
 571 758 l 1
 571 668 l 1
EndSplineSet
Validated: 1
EndChar

StartChar: uniFF04
Encoding: 65284 65284 237
Width: 1000
GlyphClass: 1
Flags: W
LayerCount: 2
Fore
SplineSet
467 5 m 1
 382 6 305 19 258 40 c 1
 258 117 l 1
 308 95 391 75 467 74 c 1
 467 330 l 1
 330 370 257 421 257 529 c 0
 257 639 341 702 467 710 c 1
 467 797 l 1
 526 797 l 1
 526 711 l 1
 599 709 661 693 715 670 c 1
 690 603 l 1
 639 625 581 638 526 642 c 1
 526 390 l 1
 665 347 743 306 743 194 c 0
 743 86 661 20 526 8 c 1
 526 -102 l 1
 467 -102 l 1
 467 5 l 1
526 78 m 1
 617 86 665 124 665 189 c 0
 665 254 626 281 526 311 c 1
 526 78 l 1
467 640 m 1
 382 635 335 598 335 535 c 0
 335 465 377 435 467 410 c 1
 467 640 l 1
EndSplineSet
Validated: 1
EndChar

StartChar: uniFFE1
Encoding: 65505 65505 238
Width: 1000
GlyphClass: 1
Flags: W
LayerCount: 2
Fore
SplineSet
560 757 m 0
 637 757 697 739 745 716 c 1
 718 652 l 1
 672 673 621 691 561 691 c 0
 470 691 422 644 422 536 c 2
 422 379 l 1
 645 379 l 1
 645 318 l 1
 422 318 l 1
 422 192 l 2
 422 99 386 58 343 34 c 1
 773 34 l 1
 773 -38 l 1
 227 -38 l 1
 227 28 l 1
 297 44 343 91 343 191 c 2
 343 318 l 1
 235 318 l 1
 235 379 l 1
 343 379 l 1
 343 544 l 2
 343 680 426 757 560 757 c 0
EndSplineSet
Validated: 1
EndChar

StartChar: uniFFE6
Encoding: 65510 65510 239
Width: 1000
GlyphClass: 1
Flags: W
LayerCount: 2
Fore
SplineSet
296 -38 m 1
 233 331 l 1
 153 331 l 1
 153 391 l 1
 223 391 l 1
 162 747 l 1
 235 747 l 1
 288 391 l 1
 396 391 l 1
 460 747 l 1
 543 747 l 1
 606 391 l 1
 712 391 l 1
 766 747 l 1
 838 747 l 1
 778 391 l 1
 848 391 l 1
 848 331 l 1
 768 331 l 1
 705 -38 l 1
 624 -38 l 1
 559 331 l 1
 443 331 l 1
 377 -38 l 1
 296 -38 l 1
297 331 m 1
 337 68 l 1
 385 331 l 1
 297 331 l 1
453 391 m 1
 548 391 l 1
 501 658 l 1
 453 391 l 1
616 331 m 1
 663 64 l 1
 703 331 l 1
 616 331 l 1
153 391 m 1
 153 331 l 1
 153 391 l 1
848 379 m 1
 848 343 l 1
 848 379 l 1
EndSplineSet
Validated: 5
EndChar

StartChar: uniFFE5
Encoding: 65509 65509 240
Width: 1000
GlyphClass: 1
Flags: W
LayerCount: 2
Fore
SplineSet
462 -38 m 1
 462 114 l 1
 289 114 l 1
 289 172 l 1
 462 172 l 1
 462 271 l 1
 289 271 l 1
 289 330 l 1
 436 330 l 1
 205 747 l 1
 289 747 l 1
 500 355 l 1
 712 747 l 1
 795 747 l 1
 563 330 l 1
 712 330 l 1
 712 271 l 1
 539 271 l 1
 539 172 l 1
 712 172 l 1
 712 114 l 1
 539 114 l 1
 539 -38 l 1
 462 -38 l 1
EndSplineSet
Validated: 1
EndChar

StartChar: uniFF5C
Encoding: 65372 65372 241
Width: 1000
GlyphClass: 1
Flags: W
LayerCount: 2
Fore
SplineSet
467 -86 m 1
 467 846 l 1
 533 846 l 1
 533 -86 l 1
 467 -86 l 1
EndSplineSet
Validated: 1
EndChar

StartChar: uniFF1D
Encoding: 65309 65309 242
Width: 1000
GlyphClass: 1
Flags: W
LayerCount: 2
Fore
SplineSet
165 523 m 1
 835 523 l 1
 835 457 l 1
 165 457 l 1
 165 523 l 1
165 303 m 1
 835 303 l 1
 835 237 l 1
 165 237 l 1
 165 303 l 1
EndSplineSet
Validated: 1
Substitution2: "'vert' Vertical Alternates +Z+VifgAA 8+Zv9O44ho" uniFF1D.vert
EndChar

StartChar: uni229C
Encoding: 8860 8860 243
Width: 1000
GlyphClass: 1
Flags: W
LayerCount: 2
Fore
SplineSet
500 -55 m 0
 272 -55 88 129 88 357 c 0
 88 585 272 769 500 769 c 0
 728 769 912 585 912 357 c 0
 912 129 728 -55 500 -55 c 0
500 -7 m 0
 701 -7 864 156 864 357 c 0
 864 558 701 721 500 721 c 0
 299 721 136 558 136 357 c 0
 136 156 299 -7 500 -7 c 0
742 416 m 1
 258 416 l 1
 258 475 l 1
 742 475 l 1
 742 416 l 1
742 239 m 1
 258 239 l 1
 258 298 l 1
 742 298 l 1
 742 239 l 1
EndSplineSet
Validated: 1
EndChar

StartChar: uniFF1E
Encoding: 65310 65310 244
Width: 1000
GlyphClass: 1
Flags: W
LayerCount: 2
Fore
SplineSet
243 644 m 1
 757 403 l 1
 757 357 l 1
 243 116 l 1
 243 186 l 1
 671 377 l 1
 243 574 l 1
 243 644 l 1
EndSplineSet
Validated: 1
EndChar

StartChar: uniFF1C
Encoding: 65308 65308 245
Width: 1000
GlyphClass: 1
Flags: W
LayerCount: 2
Fore
SplineSet
757 116 m 1
 243 357 l 1
 243 403 l 1
 757 644 l 1
 757 574 l 1
 329 383 l 1
 757 186 l 1
 757 116 l 1
EndSplineSet
Validated: 1
EndChar

StartChar: uniFF0B
Encoding: 65291 65291 246
Width: 1000
GlyphClass: 1
Flags: W
LayerCount: 2
Fore
SplineSet
835 347 m 1
 533 347 l 1
 533 45 l 1
 467 45 l 1
 467 347 l 1
 165 347 l 1
 165 413 l 1
 467 413 l 1
 467 715 l 1
 533 715 l 1
 533 413 l 1
 835 413 l 1
 835 347 l 1
EndSplineSet
Validated: 1
EndChar

StartChar: uniFF5C.vert
Encoding: 1114176 -1 247
Width: 1000
GlyphClass: 1
Flags: W
LayerCount: 2
Fore
SplineSet
34 413 m 1
 966 413 l 1
 966 347 l 1
 34 347 l 1
 34 413 l 1
EndSplineSet
Validated: 1
EndChar

StartChar: uniFF1D.vert
Encoding: 1114177 -1 248
Width: 1000
GlyphClass: 1
Flags: W
LayerCount: 2
Fore
SplineSet
643 715 m 1
 643 45 l 1
 577 45 l 1
 577 715 l 1
 643 715 l 1
423 715 m 1
 423 45 l 1
 357 45 l 1
 357 715 l 1
 423 715 l 1
EndSplineSet
Validated: 1
EndChar

StartChar: u16FE2
Encoding: 94178 94178 249
Width: 1000
GlyphClass: 1
Flags: W
LayerCount: 2
Fore
SplineSet
275 30 m 1
 275 269 l 1
 342 269 l 1
 342 96 l 1
 725 96 l 1
 725 30 l 1
 275 30 l 1
EndSplineSet
Validated: 1
Substitution2: "'vert' Vertical Alternates +Z+VifgAA 8+Zv9O44ho" u16FE2.vert
EndChar

StartChar: u16FE3
Encoding: 94179 94179 250
Width: 1000
GlyphClass: 1
Flags: W
LayerCount: 2
Fore
SplineSet
275 30 m 1
 275 96 l 1
 725 96 l 1
 725 30 l 1
 275 30 l 1
275 202 m 1
 275 269 l 1
 725 269 l 1
 725 202 l 1
 275 202 l 1
EndSplineSet
Validated: 1
Substitution2: "'vert' Vertical Alternates +Z+VifgAA 8+Zv9O44ho" u16FE3.vert
EndChar

StartChar: u1F10D
Encoding: 127245 127245 251
Width: 1000
GlyphClass: 1
Flags: W
LayerCount: 2
Fore
SplineSet
500 -55 m 0
 272 -55 88 129 88 357 c 0
 88 585 272 769 500 769 c 0
 728 769 912 585 912 357 c 0
 912 129 728 -55 500 -55 c 0
500 -7 m 0
 701 -7 864 156 864 357 c 0
 864 558 701 721 500 721 c 0
 299 721 136 558 136 357 c 0
 136 156 299 -7 500 -7 c 0
500 135 m 0
 398 135 345 208 345 358 c 0
 345 507 398 579 500 579 c 0
 602 579 655 507 655 358 c 0
 655 208 602 135 500 135 c 0
500 185 m 0
 563 185 596 242 596 358 c 0
 596 376 595 393 593 409 c 1
 423 239 l 1
 439 203 465 185 500 185 c 0
405 357 m 0
 405 339 406 322 407 306 c 1
 577 475 l 1
 561 512 535 530 500 530 c 0
 437 530 405 472 405 357 c 0
EndSplineSet
Validated: 1
EndChar

StartChar: u1F10E
Encoding: 127246 127246 252
Width: 1000
GlyphClass: 1
Flags: W
LayerCount: 2
Fore
SplineSet
500 -55 m 0
 272 -55 88 129 88 357 c 0
 88 585 272 769 500 769 c 0
 728 769 912 585 912 357 c 0
 912 129 728 -55 500 -55 c 0
500 -7 m 0
 701 -7 864 156 864 357 c 0
 864 558 701 721 500 721 c 0
 299 721 136 558 136 357 c 0
 136 156 299 -7 500 -7 c 0
500 107 m 0
 650 107 736 209 736 357 c 0
 736 505 650 607 500 607 c 0
 397 607 293 547 273 428 c 1
 236 428 l 1
 330 336 l 1
 424 428 l 1
 387 428 l 1
 405 473 437 510 500 510 c 0
 571 510 616 457 616 357 c 0
 616 257 571 204 500 204 c 0
 458 204 413 232 395 289 c 1
 272 289 l 1
 299 170 393 107 500 107 c 0
EndSplineSet
Validated: 9
EndChar

StartChar: u1F10F
Encoding: 127247 127247 253
Width: 1000
GlyphClass: 1
Flags: W
LayerCount: 2
Fore
SplineSet
500 -55 m 0
 272 -55 88 129 88 357 c 0
 88 585 272 769 500 769 c 0
 728 769 912 585 912 357 c 0
 912 129 728 -55 500 -55 c 0
500 -7 m 0
 637 -7 757 69 819 181 c 1
 641 264 l 1
 641 259 l 2
 641 192 597 151 525 140 c 1
 525 76 l 1
 475 76 l 1
 475 137 l 1
 432 138 392 146 358 160 c 1
 358 215 l 1
 400 195 442 186 485 186 c 0
 548 186 579 210 579 254 c 0
 579 276 568 293 550 307 c 1
 161 489 l 1
 145 448 136 403 136 357 c 0
 136 156 299 -7 500 -7 c 0
525 637 m 1
 525 585 l 1
 561 583 597 576 632 561 c 1
 615 515 l 1
 583 529 548 537 512 537 c 0
 455 537 428 516 428 474 c 0
 428 428 456 414 532 382 c 0
 568 366 594 350 612 331 c 1
 839 225 l 1
 855 266 864 311 864 357 c 0
 864 558 701 721 500 721 c 0
 363 721 243 645 181 533 c 1
 369 445 l 1
 367 454 366 464 366 474 c 0
 366 531 405 573 475 583 c 1
 475 637 l 1
 525 637 l 1
EndSplineSet
Validated: 1
EndChar

StartChar: u16FE2.vert
Encoding: 1114178 -1 254
Width: 1000
GlyphClass: 1
Flags: W
LayerCount: 2
Fore
SplineSet
500 561 m 1
 500 800 l 1
 567 800 l 1
 567 627 l 1
 950 627 l 1
 950 561 l 1
 500 561 l 1
EndSplineSet
Validated: 1
Position2: "'vhal' +Zv9O41eCdvRTSlw6W/gA +Z+VifgAA 3 +a89OKltXX2JlcGNu 0" dx=0 dy=0 dh=-500 dv=0
EndChar

StartChar: u16FE3.vert
Encoding: 1114179 -1 255
Width: 1000
GlyphClass: 1
Flags: W
LayerCount: 2
Fore
SplineSet
500 561 m 1
 500 627 l 1
 950 627 l 1
 950 561 l 1
 500 561 l 1
500 733 m 1
 500 800 l 1
 950 800 l 1
 950 733 l 1
 500 733 l 1
EndSplineSet
Validated: 1
Position2: "'vhal' +Zv9O41eCdvRTSlw6W/gA +Z+VifgAA 3 +a89OKltXX2JlcGNu 0" dx=0 dy=0 dh=-500 dv=0
EndChar
